<svg xmlns="http://www.w3.org/2000/svg" viewBox="0 0 200 106.86">
  <title>logo-1976</title>
  <g id="Layer_2" data-name="Layer 2">
    <g id="Layer_1-2" data-name="Layer 1">
      <rect x="0.75" y="0.75" width="198.5" height="105.36" rx="18" style="fill: #fff;stroke: #231f20;stroke-miterlimit: 10;stroke-width: 1.5px"/>
      <g>
        <path d="M20.58,86.34,17.7,83.42l.65-.63L20.49,85l1.11-1.09L19.72,82l.6-.6,1.88,1.92,1.88-1.85.73.74Z" style="fill: #231f20"/>
        <path d="M16.9,82.48l-1.7-2.27a2.2,2.2,0,0,1-.54-1.43,1.5,1.5,0,0,1,.66-1.1,1.57,1.57,0,0,1,.63-.32,1.72,1.72,0,0,1,.54,0,1.28,1.28,0,0,1,.39.12l.22.13h0a1,1,0,0,1-.1-.28.69.69,0,0,1,0-.35,1.09,1.09,0,0,1,.17-.41,1.78,1.78,0,0,1,.41-.42,5.07,5.07,0,0,0,.72-.63,1.29,1.29,0,0,0,.34-.56l.67.89a1.18,1.18,0,0,1-.26.37l-.35.28a4.38,4.38,0,0,0-.53.46,1.13,1.13,0,0,0-.28.44.72.72,0,0,0,0,.46,1.71,1.71,0,0,0,.28.53l.91,1.22,2-1.46.62.83ZM18.44,80l-1-1.36a1.1,1.1,0,0,0-.64-.47.92.92,0,0,0-.72.22,1.13,1.13,0,0,0-.32.35.73.73,0,0,0-.09.35,1.07,1.07,0,0,0,.09.34,3,3,0,0,0,.21.33l1,1.35Z" style="fill: #231f20"/>
        <path d="M13.29,77.42l-2.07-3.74.79-.43,1.56,2.83,1.36-.75-1.44-2.62.74-.41,1.44,2.62,1.52-.84L15.6,71.2l.79-.43,2.09,3.78Z" style="fill: #231f20"/>
        <path d="M10.66,72.44l-1.56-4,.84-.33,1.18,3,1.44-.57L11.47,67.8l.79-.31,1.09,2.78L15,69.64l-1.2-3.07.83-.32,1.58,4Z" style="fill: #231f20"/>
        <path d="M8.69,67.19l-.56-2.4a2.61,2.61,0,0,1-.05-1.2,2.19,2.19,0,0,1,.43-.94A2.69,2.69,0,0,1,9.32,62a4.05,4.05,0,0,1,1.09-.42,4.62,4.62,0,0,1,1.16-.12,2.83,2.83,0,0,1,1,.24,2.18,2.18,0,0,1,.81.65,2.9,2.9,0,0,1,.5,1.09l.57,2.39ZM13.4,65l-.24-1a2.53,2.53,0,0,0-.38-.93,1.48,1.48,0,0,0-.58-.49,1.57,1.57,0,0,0-.72-.13,3.51,3.51,0,0,0-.83.11,4.42,4.42,0,0,0-.8.27,1.54,1.54,0,0,0-.58.45A1.4,1.4,0,0,0,9,64,2.75,2.75,0,0,0,9,65l.24,1Z" style="fill: #231f20"/>
        <path d="M7,58.43a2.66,2.66,0,0,1,.15-1.21,2.7,2.7,0,0,1,.6-.94,3,3,0,0,1,.94-.64,3.59,3.59,0,0,1,1.18-.29,3.81,3.81,0,0,1,1.22.1,3.14,3.14,0,0,1,1,.48,2.58,2.58,0,0,1,.73.84,2.67,2.67,0,0,1,.34,1.17,2.62,2.62,0,0,1-.15,1.2,2.58,2.58,0,0,1-.59,1,3.15,3.15,0,0,1-.95.63,3.53,3.53,0,0,1-1.18.29,3.49,3.49,0,0,1-1.21-.1,3,3,0,0,1-1-.48,2.68,2.68,0,0,1-.74-.83A2.76,2.76,0,0,1,7,58.43Zm.84-.07a1.65,1.65,0,0,0,.26.8,1.61,1.61,0,0,0,.55.52,2.3,2.3,0,0,0,.75.26,3.38,3.38,0,0,0,.84,0,3.33,3.33,0,0,0,.82-.17,2.49,2.49,0,0,0,.7-.38,1.61,1.61,0,0,0,.46-.6,1.81,1.81,0,0,0-.13-1.63,1.61,1.61,0,0,0-.55-.52,2.66,2.66,0,0,0-.75-.26,3,3,0,0,0-.84,0,3.31,3.31,0,0,0-.82.16,2.36,2.36,0,0,0-.7.38,1.61,1.61,0,0,0-.46.6A1.71,1.71,0,0,0,7.83,58.36Z" style="fill: #231f20"/>
        <path d="M6.89,54.27,7,52.81l4.77-1.21v0l-4.49-2,.14-1.44,5.9.53-.09,1L8.7,49.24v0l4.41,2.05-.07.85L8.33,53.39v0l4.56.41-.09,1Z" style="fill: #231f20"/>
        <path d="M8.9,42.36l.34-1L15.59,41,15.25,42l-1.67.05-.72,2.25,1.32,1-.33,1Zm3.29,1.44.56-1.72-2.7.06v0Z" style="fill: #231f20"/>
        <path d="M10.31,38.3l.48-1,5.12-.51h0L12,34.87l.44-.89,5.32,2.61-.48,1-5.1.51v0L16.07,40l-.43.88Z" style="fill: #231f20"/>
        <path d="M13.24,32.61l1.4-2a2.69,2.69,0,0,1,.86-.83,2.13,2.13,0,0,1,1-.31,2.74,2.74,0,0,1,1,.15,4.2,4.2,0,0,1,1,.53,4.1,4.1,0,0,1,.87.78,3,3,0,0,1,.51.93,2.1,2.1,0,0,1,0,1,2.82,2.82,0,0,1-.47,1.1l-1.4,2Zm4.77,2,.58-.84a2.6,2.6,0,0,0,.43-.9,1.49,1.49,0,0,0,0-.76,1.59,1.59,0,0,0-.38-.63,4.64,4.64,0,0,0-1.38-1,1.67,1.67,0,0,0-.72-.13,1.4,1.4,0,0,0-.71.24,2.54,2.54,0,0,0-.7.72l-.58.84Z" style="fill: #231f20"/>
        <path d="M18.81,25.39l1.9-1.79a2.47,2.47,0,0,1,.88-.58,1.72,1.72,0,0,1,.76-.09,1.45,1.45,0,0,1,.62.23,2.35,2.35,0,0,1,.47.38,2.67,2.67,0,0,1,.35.49,1.66,1.66,0,0,1,.2.63,1.63,1.63,0,0,1-.14.75,2.49,2.49,0,0,1-.63.84l-1.14,1.09L23.64,29l-.75.71Zm2.68,1.33,1.11-1a2.26,2.26,0,0,0,.23-.29,1,1,0,0,0,.13-.34.86.86,0,0,0,0-.39,1,1,0,0,0-.25-.41,1.1,1.1,0,0,0-.39-.29.72.72,0,0,0-.37-.07.85.85,0,0,0-.34.11,1.36,1.36,0,0,0-.31.24L20.15,25.3Z" style="fill: #231f20"/>
        <path d="M23.19,21.4l2.31-1.64a2.23,2.23,0,0,1,1.44-.5,1.47,1.47,0,0,1,1.08.68,1.63,1.63,0,0,1,.31.64,1.43,1.43,0,0,1,0,.54,1.12,1.12,0,0,1-.13.39l-.13.21v0a1,1,0,0,1,.28-.1.88.88,0,0,1,.36,0,1.27,1.27,0,0,1,.4.18,1.62,1.62,0,0,1,.4.42,4.64,4.64,0,0,0,.62.73,1.2,1.2,0,0,0,.55.36L29.8,24a.89.89,0,0,1-.35-.26,2.93,2.93,0,0,1-.28-.36,4.57,4.57,0,0,0-.45-.54,1.29,1.29,0,0,0-.43-.3.8.8,0,0,0-.46,0,1.72,1.72,0,0,0-.53.26l-1.25.89,1.41,2-.84.6Zm2.4,1.6L27,22a1,1,0,0,0,.48-.63.89.89,0,0,0-.2-.73,1.15,1.15,0,0,0-.33-.33.73.73,0,0,0-.35-.09.89.89,0,0,0-.35.08,1.94,1.94,0,0,0-.33.2l-1.38,1Z" style="fill: #231f20"/>
        <path d="M30.52,16.63a2.65,2.65,0,0,1,2.28-.12,2.88,2.88,0,0,1,.94.63,3.67,3.67,0,0,1,.71,1,3.39,3.39,0,0,1,.37,1.17,2.85,2.85,0,0,1-.06,1.13,2.6,2.6,0,0,1-.49,1,2.84,2.84,0,0,1-1,.76,2.69,2.69,0,0,1-1.17.31A2.53,2.53,0,0,1,31,22.3a3.21,3.21,0,0,1-.95-.63,3.79,3.79,0,0,1-.71-1A3.83,3.83,0,0,1,29,19.52a3,3,0,0,1,.06-1.13,2.62,2.62,0,0,1,.5-1A2.69,2.69,0,0,1,30.52,16.63Zm.38.75a1.67,1.67,0,0,0-.65.54,1.81,1.81,0,0,0-.27.71,2.36,2.36,0,0,0,.05.79,3.1,3.1,0,0,0,.28.79,3.26,3.26,0,0,0,.46.7,2.24,2.24,0,0,0,.62.5,1.51,1.51,0,0,0,.73.21,1.88,1.88,0,0,0,1.46-.74,1.55,1.55,0,0,0,.27-.71,2.36,2.36,0,0,0,0-.79,3.53,3.53,0,0,0-.28-.79,4.08,4.08,0,0,0-.47-.7,2.2,2.2,0,0,0-.61-.5,1.71,1.71,0,0,0-.73-.21A1.8,1.8,0,0,0,30.9,17.38Z" style="fill: #231f20"/>
        <path d="M41.12,19.05l-.63.21-.37-.62A2.11,2.11,0,0,1,38.68,20a2.7,2.7,0,0,1-1.21.13,2.57,2.57,0,0,1-1.06-.36,3,3,0,0,1-.83-.77,3.84,3.84,0,0,1-.73-2.29,2.76,2.76,0,0,1,.23-1.11,2.6,2.6,0,0,1,.64-.91,2.69,2.69,0,0,1,1.06-.6,3.29,3.29,0,0,1,.92-.16,2.2,2.2,0,0,1,.85.13,2,2,0,0,1,.73.43,2.33,2.33,0,0,1,.54.75l-1,.31a1.33,1.33,0,0,0-.33-.43,1.29,1.29,0,0,0-.44-.25,1.43,1.43,0,0,0-.51-.07,2,2,0,0,0-.54.09,1.63,1.63,0,0,0-.72.44,1.59,1.59,0,0,0-.38.65,2.29,2.29,0,0,0-.08.79,3.91,3.91,0,0,0,.15.83,3.77,3.77,0,0,0,.36.76,2.27,2.27,0,0,0,.52.59,1.57,1.57,0,0,0,1.53.25,1.92,1.92,0,0,0,.64-.32,1.45,1.45,0,0,0,.4-.46,1.33,1.33,0,0,0,.14-.6,2.09,2.09,0,0,0-.09-.68L38,17.6l-.24-.75,2.41-.77Z" style="fill: #231f20"/>
        <path d="M40.78,13.08l2.79-.45a2.19,2.19,0,0,1,1.52.19,1.47,1.47,0,0,1,.67,1.09,1.67,1.67,0,0,1,0,.71,1.48,1.48,0,0,1-.21.49,1.13,1.13,0,0,1-.29.29l-.22.14h0a1.08,1.08,0,0,1,.3,0,.77.77,0,0,1,.32.17,1.35,1.35,0,0,1,.28.33,1.61,1.61,0,0,1,.17.56,5.27,5.27,0,0,0,.23.93,1.25,1.25,0,0,0,.34.56l-1.1.18a1,1,0,0,1-.2-.4,3.43,3.43,0,0,1-.09-.44,6.29,6.29,0,0,0-.16-.68,1.35,1.35,0,0,0-.26-.46.76.76,0,0,0-.4-.22,1.5,1.5,0,0,0-.6,0l-1.5.24.38,2.41-1,.17Zm1.45,2.5,1.68-.27a1.07,1.07,0,0,0,.71-.35.93.93,0,0,0,.14-.74,1.13,1.13,0,0,0-.15-.44.76.76,0,0,0-.27-.24.82.82,0,0,0-.35-.08l-.39,0-1.66.26Z" style="fill: #231f20"/>
        <path d="M47,12.23l4.27-.08v.9L48,13.11l0,1.55,3-.06,0,.85-3,.06,0,1.73,3.29-.06,0,.9-4.33.08Z" style="fill: #231f20"/>
        <path d="M52.81,16.23a1.23,1.23,0,0,0,0,.59,1,1,0,0,0,.28.43,1.28,1.28,0,0,0,.45.28,2.38,2.38,0,0,0,.57.14,1.88,1.88,0,0,0,.59,0,1.17,1.17,0,0,0,.41-.15.77.77,0,0,0,.25-.26,1,1,0,0,0,.1-.32.74.74,0,0,0-.1-.52.76.76,0,0,0-.31-.26,6.87,6.87,0,0,0-.7-.31l-1-.38a2.56,2.56,0,0,1-.6-.33,1.68,1.68,0,0,1-.36-.41,1.23,1.23,0,0,1-.16-.44,1.48,1.48,0,0,1,0-.47,1.54,1.54,0,0,1,.27-.75,1.8,1.8,0,0,1,.55-.48,2.22,2.22,0,0,1,.74-.24,3,3,0,0,1,.79,0,3,3,0,0,1,.86.22,2.1,2.1,0,0,1,.68.44,1.83,1.83,0,0,1,.42.64,1.91,1.91,0,0,1,.09.84l-1-.12a1,1,0,0,0-.3-.85,1.56,1.56,0,0,0-.86-.33,1.51,1.51,0,0,0-.37,0,1.35,1.35,0,0,0-.36.08.86.86,0,0,0-.29.21.59.59,0,0,0-.14.36.62.62,0,0,0,.13.51,1.32,1.32,0,0,0,.48.33l.25.1.49.19.53.21.38.15a1.64,1.64,0,0,1,.79.7,1.6,1.6,0,0,1,.17.46,1.49,1.49,0,0,1,0,.47,1.61,1.61,0,0,1-.29.82,2,2,0,0,1-.6.52,2.51,2.51,0,0,1-.79.24,4.22,4.22,0,0,1-.87,0,3.5,3.5,0,0,1-.94-.23,2.19,2.19,0,0,1-.73-.47,1.77,1.77,0,0,1-.45-.72,2.13,2.13,0,0,1-.1-1Z" style="fill: #231f20"/>
        <path d="M58,17a1.55,1.55,0,0,0,0,.6,1.15,1.15,0,0,0,.22.46,1.49,1.49,0,0,0,.41.33,2.25,2.25,0,0,0,.55.21,1.79,1.79,0,0,0,.58.07,1.3,1.3,0,0,0,.43-.1.71.71,0,0,0,.28-.23.69.69,0,0,0,.14-.3.72.72,0,0,0,0-.53.79.79,0,0,0-.27-.3,6.41,6.41,0,0,0-.66-.39l-.94-.52a2,2,0,0,1-.55-.41,1.33,1.33,0,0,1-.3-.44,1.14,1.14,0,0,1-.1-.47,1.48,1.48,0,0,1,0-.46,1.43,1.43,0,0,1,.37-.7,1.69,1.69,0,0,1,.61-.41,2.08,2.08,0,0,1,.75-.14,3.57,3.57,0,0,1,.8.09,3.52,3.52,0,0,1,.82.33,2.4,2.4,0,0,1,.61.53,1.81,1.81,0,0,1,.33.7,1.68,1.68,0,0,1,0,.83l-1-.25a1,1,0,0,0-.18-.88,1.56,1.56,0,0,0-.8-.45,2.2,2.2,0,0,0-.37-.05,1.11,1.11,0,0,0-.37,0,.85.85,0,0,0-.31.17.61.61,0,0,0-.2.34.68.68,0,0,0,.07.53,1.35,1.35,0,0,0,.43.38l.24.13L60,16l.5.28.35.19a1.74,1.74,0,0,1,.43.37,1.65,1.65,0,0,1,.26.44,1.53,1.53,0,0,1,.11.47,1.83,1.83,0,0,1-.05.47,1.8,1.8,0,0,1-.4.78,1.88,1.88,0,0,1-.67.43,2.37,2.37,0,0,1-.81.13,3.56,3.56,0,0,1-.86-.11A3.26,3.26,0,0,1,58,19a2.14,2.14,0,0,1-.66-.56,2,2,0,0,1-.36-.77,2.29,2.29,0,0,1,0-1Z" style="fill: #231f20"/>
        <path d="M65.91,15.25l4.35,2.05-.39.81-1.7-.8L66,21.86l-.94-.44,2.15-4.56-1.7-.8Z" style="fill: #231f20"/>
        <path d="M71.18,17.81l.87.57-1.29,2L73,21.83l1.29-2,.87.57-3.24,5-.87-.57,1.46-2.24-2.26-1.47-1.46,2.24-.87-.57Z" style="fill: #231f20"/>
        <path d="M76.47,21.41l2.12,1.88a2.25,2.25,0,0,1,.82,1.29A1.46,1.46,0,0,1,79,25.79a1.64,1.64,0,0,1-.55.44,1.43,1.43,0,0,1-.52.15,1.06,1.06,0,0,1-.41,0l-.24-.08h0a1.28,1.28,0,0,1,.16.26.89.89,0,0,1,.07.34,1.35,1.35,0,0,1-.08.43,1.65,1.65,0,0,1-.33.5,5.19,5.19,0,0,0-.57.76,1.29,1.29,0,0,0-.22.62l-.83-.74a.94.94,0,0,1,.18-.41c.09-.12.18-.24.28-.35a4.41,4.41,0,0,0,.43-.55,1.34,1.34,0,0,0,.18-.49.68.68,0,0,0-.08-.46,1.56,1.56,0,0,0-.37-.45l-1.15-1-1.62,1.83-.77-.69Zm-1,2.71,1.27,1.13a1.12,1.12,0,0,0,.72.33,1,1,0,0,0,.67-.36,1.12,1.12,0,0,0,.24-.41.6.6,0,0,0,0-.35.65.65,0,0,0-.16-.32,1.75,1.75,0,0,0-.26-.29l-1.26-1.11Z" style="fill: #231f20"/>
        <path d="M82.8,27.48a2.9,2.9,0,0,1,.57,1.08,2.66,2.66,0,0,1,0,1.12,2.86,2.86,0,0,1-.4,1.06,3.61,3.61,0,0,1-.79.92,3.77,3.77,0,0,1-1,.62,3,3,0,0,1-1.12.2A2.64,2.64,0,0,1,79,32.22a3,3,0,0,1-1.52-1.83,2.62,2.62,0,0,1-.06-1.11,2.91,2.91,0,0,1,.4-1.07,3.65,3.65,0,0,1,.8-.92,3.55,3.55,0,0,1,1-.61,3,3,0,0,1,1.12-.21,2.6,2.6,0,0,1,1.09.26A2.71,2.71,0,0,1,82.8,27.48Zm-.65.55a1.74,1.74,0,0,0-.67-.51,1.65,1.65,0,0,0-.76-.1,2.19,2.19,0,0,0-.76.22,3.54,3.54,0,0,0-.71.45,3.68,3.68,0,0,0-.57.61,2.35,2.35,0,0,0-.35.71,1.63,1.63,0,0,0,0,.76,1.65,1.65,0,0,0,.37.75,1.84,1.84,0,0,0,.67.51,1.65,1.65,0,0,0,.76.1,2.43,2.43,0,0,0,.76-.22,3.22,3.22,0,0,0,.7-.45,3.71,3.71,0,0,0,.58-.61,2.47,2.47,0,0,0,.35-.71,1.63,1.63,0,0,0,0-.76A1.65,1.65,0,0,0,82.15,28Z" style="fill: #231f20"/>
        <path d="M85.21,30.79l.53.89-2.95,1.79a4.11,4.11,0,0,0-.51.34,1.45,1.45,0,0,0-.39.43,1.13,1.13,0,0,0-.13.56,1.71,1.71,0,0,0,.27.75,1.59,1.59,0,0,0,.55.59,1,1,0,0,0,.56.15,1.4,1.4,0,0,0,.55-.14c.19-.09.37-.19.54-.29l3-1.79.53.89-3.25,2a2.59,2.59,0,0,1-.94.37,1.77,1.77,0,0,1-.86-.06,2.11,2.11,0,0,1-.77-.43,3.58,3.58,0,0,1-.63-.78,3.68,3.68,0,0,1-.4-.93,2.19,2.19,0,0,1,0-.88,1.92,1.92,0,0,1,.35-.79,2.55,2.55,0,0,1,.77-.66Z" style="fill: #231f20"/>
        <path d="M84.94,43.44l-.25-.61.58-.41a2.59,2.59,0,0,1-.92-.52,2.33,2.33,0,0,1-.53-.82,2.74,2.74,0,0,1-.23-1.19,2.62,2.62,0,0,1,.28-1.08,3,3,0,0,1,.7-.9,3.78,3.78,0,0,1,1-.64A3.55,3.55,0,0,1,86.79,37a2.84,2.84,0,0,1,1.13.14,2.78,2.78,0,0,1,1,.57,2.61,2.61,0,0,1,.68,1,3.18,3.18,0,0,1,.24.89,2.53,2.53,0,0,1-.06.87,2.24,2.24,0,0,1-.37.76,2.2,2.2,0,0,1-.71.6l-.39-.94a1.31,1.31,0,0,0,.41-.36,1.28,1.28,0,0,0,.21-.46,1.45,1.45,0,0,0,0-.51,2,2,0,0,0-.14-.53,1.7,1.7,0,0,0-.49-.69,1.58,1.58,0,0,0-.68-.32,2.38,2.38,0,0,0-.8,0,3.65,3.65,0,0,0-.8.22,3.44,3.44,0,0,0-.73.41,2.15,2.15,0,0,0-.55.58,1.49,1.49,0,0,0-.26.71,1.66,1.66,0,0,0,.13.83,1.91,1.91,0,0,0,.37.61,1.36,1.36,0,0,0,.5.36,1.31,1.31,0,0,0,.6.1,2.14,2.14,0,0,0,.67-.15l-.6-1.46.73-.3,1,2.33Z" style="fill: #231f20"/>
        <path d="M90.87,42.61l.25,1-2.29.56.63,2.62,2.3-.56.24,1-5.77,1.4-.24-1,2.6-.63L88,44.39l-2.6.63-.24-1Z" style="fill: #231f20"/>
        <path d="M92.61,51.53V53L88,54.67h0l4.66,1.56v1.45l-5.93,0v-1l4.58,0v0l-4.59-1.61v-.85l4.56-1.68v0l-4.58,0v-1Z" style="fill: #231f20"/>
        <path d="M92.22,61.84A2.62,2.62,0,0,1,91.78,63a2.55,2.55,0,0,1-.8.77,3,3,0,0,1-1.07.4,3.51,3.51,0,0,1-1.21,0,3.69,3.69,0,0,1-1.16-.39,2.82,2.82,0,0,1-.89-.71,2.7,2.7,0,0,1-.56-2.2,2.74,2.74,0,0,1,.43-1.14,2.55,2.55,0,0,1,.8-.77,2.93,2.93,0,0,1,1.07-.4,3.57,3.57,0,0,1,1.22,0,3.71,3.71,0,0,1,1.15.38,3,3,0,0,1,.88.72,2.66,2.66,0,0,1,.53,1A2.91,2.91,0,0,1,92.22,61.84Zm-.84-.13a1.65,1.65,0,0,0,0-.84,1.62,1.62,0,0,0-.42-.64,2.41,2.41,0,0,0-.67-.43,3.53,3.53,0,0,0-.8-.24,3.94,3.94,0,0,0-.84,0,2.66,2.66,0,0,0-.76.2,1.56,1.56,0,0,0-.6.48,1.63,1.63,0,0,0-.32.77,1.66,1.66,0,0,0,.06.84,1.62,1.62,0,0,0,.42.64,2.22,2.22,0,0,0,.66.43,3.26,3.26,0,0,0,.81.23,2.88,2.88,0,0,0,.83,0,2.35,2.35,0,0,0,.77-.19,1.61,1.61,0,0,0,.59-.48A1.54,1.54,0,0,0,91.38,61.71Z" style="fill: #231f20"/>
        <path d="M91.28,65.92l-.88,2.75a2.1,2.1,0,0,1-.74,1.11,1.31,1.31,0,0,1-1.2.12,1.29,1.29,0,0,1-.67-.45,1.47,1.47,0,0,1-.28-.74h0a1.27,1.27,0,0,1-.75.63,1.72,1.72,0,0,1-1,0,1.92,1.92,0,0,1-.58-.32,1.36,1.36,0,0,1-.38-.53,2,2,0,0,1-.12-.76,3.15,3.15,0,0,1,.18-1l.83-2.59Zm-5.16-.56-.56,1.75a1,1,0,0,0,0,.78.9.9,0,0,0,.58.46.84.84,0,0,0,.72,0,1,1,0,0,0,.45-.62l.56-1.75Zm2.47.8-.51,1.61a.88.88,0,0,0,0,.66.74.74,0,0,0,.5.42.8.8,0,0,0,.67,0,.94.94,0,0,0,.37-.56l.52-1.62Z" style="fill: #231f20"/>
        <path d="M89.21,71.8l-.42,1-5.43-2.39.42-1Z" style="fill: #231f20"/>
        <path d="M88.1,74.26l-.5.91-4.4-2.44-1.47,2.63L81,74.93l2-3.55Z" style="fill: #231f20"/>
        <path d="M85.49,78.7l-.59.86L80,76.21l.59-.85Z" style="fill: #231f20"/>
        <path d="M84.3,80.5l-3.07,3.69-.69-.57,1.21-1.45L77.87,79l.67-.8,3.87,3.22,1.2-1.44Z" style="fill: #231f20"/>
        <path d="M76.88,83.38,81,84.51l-.89.82-3-.89.68,3-.85.79-.83-4.15-1.58-1.7.76-.71Z" style="fill: #231f20"/>
      </g>
      <g>
        <path d="M114.86,78.16l-.59-.93,3.82-5.09.59,1-1,1.3,1.26,2,1.62-.36.57.9Zm3.22-1.58-1-1.54-1.69,2.11v0Z" style="fill: #231f20"/>
        <path d="M112.43,74.12l-.56-1.35,3.67-3.29h0l-4.9.3-.56-1.34,5.49-2.26.37.91-4.23,1.75h0l4.86-.22.32.79-3.6,3.26v0l4.23-1.75.38.92Z" style="fill: #231f20"/>
        <path d="M109.54,66.42l-1-4.16.88-.2.72,3.15,1.52-.35L111,62l.82-.19.67,2.91,1.69-.38-.73-3.21.87-.2,1,4.22Z" style="fill: #231f20"/>
        <path d="M108.32,60.53l-.22-2.83a2.2,2.2,0,0,1,.3-1.49,1.46,1.46,0,0,1,1.14-.58,1.75,1.75,0,0,1,.71.06,1.6,1.6,0,0,1,.47.26,1,1,0,0,1,.27.31,1.76,1.76,0,0,1,.12.23h0a.91.91,0,0,1,.25-.59,1.1,1.1,0,0,1,.36-.25,1.71,1.71,0,0,1,.57-.13,6,6,0,0,0,.94-.15,1.29,1.29,0,0,0,.59-.3l.09,1.11a.88.88,0,0,1-.41.17l-.45.06a5.59,5.59,0,0,0-.7.1,1.37,1.37,0,0,0-.47.22.82.82,0,0,0-.26.39,1.53,1.53,0,0,0,0,.59l.12,1.52,2.43-.19.08,1Zm2.61-1.25-.13-1.69a1.1,1.1,0,0,0-.3-.74.89.89,0,0,0-.73-.2,1,1,0,0,0-.45.12.69.69,0,0,0-.26.25.91.91,0,0,0-.11.34,2.54,2.54,0,0,0,0,.39l.13,1.68Z" style="fill: #231f20"/>
        <path d="M108,53.89l0-1,5.92.22,0,1Z" style="fill: #231f20"/>
        <path d="M110.62,47.09a2.5,2.5,0,0,0-.49.11,1.58,1.58,0,0,0-.42.24,1.31,1.31,0,0,0-.3.39,1.62,1.62,0,0,0-.18.55,1.59,1.59,0,0,0,.49,1.46,2.15,2.15,0,0,0,.66.43,3.26,3.26,0,0,0,.81.23,3.38,3.38,0,0,0,.84,0,2.38,2.38,0,0,0,.76-.21,1.59,1.59,0,0,0,.91-1.25,1.46,1.46,0,0,0,0-.63,1.33,1.33,0,0,0-.26-.5,1.45,1.45,0,0,0-.44-.37,2.52,2.52,0,0,0-.58-.24l.16-1a2.71,2.71,0,0,1,.92.38,2.41,2.41,0,0,1,.68.63,2.37,2.37,0,0,1,.36.85,2.87,2.87,0,0,1-.4,2.15,2.59,2.59,0,0,1-.8.78,3.07,3.07,0,0,1-1.06.4,3.83,3.83,0,0,1-1.22,0,3.62,3.62,0,0,1-1.15-.38,2.94,2.94,0,0,1-.89-.7,2.7,2.7,0,0,1-.53-1,2.86,2.86,0,0,1-.07-1.21,3.72,3.72,0,0,1,.28-.91,2.51,2.51,0,0,1,.52-.71,2.07,2.07,0,0,1,.71-.44,2.11,2.11,0,0,1,.88-.12Z" style="fill: #231f20"/>
        <path d="M109.84,42.56l.34-1.05,6.34-.38-.34,1.06-1.66.05-.72,2.26,1.33,1-.32,1Zm3.3,1.43.54-1.73-2.7.08v0Z" style="fill: #231f20"/>
        <path d="M111.39,38.12l.49-1,5.11-.5h0l-3.92-1.94.44-.88,5.32,2.62-.49,1-5.1.49v0l3.91,1.93-.44.89Z" style="fill: #231f20"/>
        <path d="M116.33,29.47l1.8-2.19a2.21,2.21,0,0,1,1.27-.86,1.45,1.45,0,0,1,1.22.37,1.7,1.7,0,0,1,.46.54,1.36,1.36,0,0,1,.16.51,1.07,1.07,0,0,1,0,.41,2.33,2.33,0,0,1-.07.25h0a1.21,1.21,0,0,1,.25-.17.9.9,0,0,1,.34-.09,1.44,1.44,0,0,1,.44.07,1.9,1.9,0,0,1,.5.31,5.51,5.51,0,0,0,.78.54,1.28,1.28,0,0,0,.63.2l-.71.86a1,1,0,0,1-.41-.17,3.32,3.32,0,0,1-.36-.26,3.93,3.93,0,0,0-.57-.41,1.19,1.19,0,0,0-.5-.17.73.73,0,0,0-.45.09,1.58,1.58,0,0,0-.44.4l-1,1.18,1.88,1.55-.66.8Zm2.75.92,1.08-1.32a1.11,1.11,0,0,0,.3-.73.88.88,0,0,0-.39-.65,1,1,0,0,0-.4-.23.59.59,0,0,0-.37,0,.86.86,0,0,0-.31.17,1.44,1.44,0,0,0-.27.28l-1.07,1.3Z" style="fill: #231f20"/>
        <path d="M120.7,24.45l3.17-2.86.6.67-2.4,2.16,1,1.16,2.22-2,.57.63-2.22,2,1.16,1.29,2.44-2.2.6.66-3.22,2.9Z" style="fill: #231f20"/>
        <path d="M124.72,20.9l.9-.6,3.86,3.06h0l-1.36-4.74L129,18l1.64,6.05-1,.65Z" style="fill: #231f20"/>
        <path d="M132.44,16.12a2.76,2.76,0,0,1,1.19-.28,2.66,2.66,0,0,1,1.09.22,3.11,3.11,0,0,1,.93.66,3.8,3.8,0,0,1,1,2.17A3.25,3.25,0,0,1,136.6,20a2.65,2.65,0,0,1-.53,1,2.7,2.7,0,0,1-1,.73,2.73,2.73,0,0,1-1.18.29,2.66,2.66,0,0,1-1.09-.22,2.73,2.73,0,0,1-.93-.66,3.81,3.81,0,0,1-.7-1,3.54,3.54,0,0,1-.33-1.17,2.85,2.85,0,0,1,.08-1.13,2.62,2.62,0,0,1,.52-1A2.81,2.81,0,0,1,132.44,16.12Zm.36.77a1.63,1.63,0,0,0-.65.52,1.59,1.59,0,0,0-.29.7,2.4,2.4,0,0,0,0,.8,3.18,3.18,0,0,0,.26.79,3.28,3.28,0,0,0,.45.71,2.25,2.25,0,0,0,.6.52,1.56,1.56,0,0,0,.73.22,1.59,1.59,0,0,0,.82-.18,1.65,1.65,0,0,0,.66-.52,1.52,1.52,0,0,0,.28-.7,2.11,2.11,0,0,0,0-.79,3.36,3.36,0,0,0-.71-1.51,2.44,2.44,0,0,0-.6-.52,1.64,1.64,0,0,0-.72-.22A1.71,1.71,0,0,0,132.8,16.89Z" style="fill: #231f20"/>
        <path d="M136.75,14.47l1-.3L139.2,19l2.89-.88.26.86-3.88,1.18Z" style="fill: #231f20"/>
        <path d="M142,13l1-.16.52,3.42c0,.2.07.39.12.59a1.39,1.39,0,0,0,.24.52,1.17,1.17,0,0,0,.47.34,1.57,1.57,0,0,0,.8,0,1.64,1.64,0,0,0,.76-.27,1.21,1.21,0,0,0,.35-.47,1.49,1.49,0,0,0,.08-.57q0-.3-.06-.6l-.52-3.42,1-.15.57,3.75a2.6,2.6,0,0,1,0,1,1.9,1.9,0,0,1-.38.78,2.12,2.12,0,0,1-.7.54,3.73,3.73,0,0,1-1,.29,3.81,3.81,0,0,1-1,0,2,2,0,0,1-1.42-.94,2.78,2.78,0,0,1-.32-1Z" style="fill: #231f20"/>
        <path d="M148.28,12.13l4.8,0V13H151.2l0,5h-1l0-5h-1.87Z" style="fill: #231f20"/>
        <path d="M154.57,12.28l1,.1-.59,5.9-1-.1Z" style="fill: #231f20"/>
        <path d="M160.16,13A2.69,2.69,0,0,1,162,14.36a3.22,3.22,0,0,1,.33,1.09,3.83,3.83,0,0,1-.07,1.21,3.78,3.78,0,0,1-.46,1.13,3.11,3.11,0,0,1-.76.85,2.71,2.71,0,0,1-2.23.43,2.7,2.7,0,0,1-1.11-.5,2.59,2.59,0,0,1-.73-.85,2.84,2.84,0,0,1-.33-1.08,3.81,3.81,0,0,1,.52-2.35,3.1,3.1,0,0,1,.77-.84,2.52,2.52,0,0,1,1-.46A2.66,2.66,0,0,1,160.16,13Zm-.18.82a1.69,1.69,0,0,0-.84,0,1.55,1.55,0,0,0-.66.38,2,2,0,0,0-.47.64,3.66,3.66,0,0,0-.29.78,4,4,0,0,0-.08.84,2.21,2.21,0,0,0,.16.78,1.65,1.65,0,0,0,.43.62,1.63,1.63,0,0,0,.76.36,1.7,1.7,0,0,0,.84,0,1.68,1.68,0,0,0,.66-.38,2.36,2.36,0,0,0,.47-.64,3.1,3.1,0,0,0,.28-.79,3.29,3.29,0,0,0,.08-.83,2.46,2.46,0,0,0-.15-.78,1.5,1.5,0,0,0-.44-.62A1.56,1.56,0,0,0,160,13.83Z" style="fill: #231f20"/>
        <path d="M164.53,14.31l1,.41.88,5.06h0l1.63-4.06.91.37-2.21,5.5-1-.4-.88-5.06h0l-1.62,4.05-.92-.37Z" style="fill: #231f20"/>
        <path d="M173.53,18.56l2.36,1.66a2,2,0,0,1,.84,1,1.48,1.48,0,0,1-.86,1.68,1.43,1.43,0,0,1-.8.05h0a1.3,1.3,0,0,1,.39.9,1.73,1.73,0,0,1-.35,1,1.75,1.75,0,0,1-.47.47,1.51,1.51,0,0,1-.62.2,1.9,1.9,0,0,1-.76-.1,3.79,3.79,0,0,1-.89-.46l-2.23-1.57Zm-2.06,4.76,1.5,1.06a1.06,1.06,0,0,0,.74.22,1,1,0,0,0,.62-.42.91.91,0,0,0,.17-.71,1,1,0,0,0-.47-.61l-1.5-1.05ZM173,21.19l1.39,1a.93.93,0,0,0,.63.18.75.75,0,0,0,.55-.36.79.79,0,0,0,.18-.65,1.06,1.06,0,0,0-.43-.52l-1.38-1Z" style="fill: #231f20"/>
        <path d="M178.86,22.56l.77.69-3.93,4.43-.78-.68Z" style="fill: #231f20"/>
        <path d="M182.44,28.88a2,2,0,0,0,.24-.45,1.25,1.25,0,0,0,.07-.47,1.18,1.18,0,0,0-.1-.48,1.63,1.63,0,0,0-.31-.48,1.66,1.66,0,0,0-.69-.49,1.75,1.75,0,0,0-.75-.08,2.42,2.42,0,0,0-.76.25,3.65,3.65,0,0,0-.69.47,3.38,3.38,0,0,0-.55.64,2.59,2.59,0,0,0-.33.72,1.63,1.63,0,0,0,0,.76,1.56,1.56,0,0,0,.4.73,1.36,1.36,0,0,0,.5.38,1.3,1.3,0,0,0,.55.12,1.63,1.63,0,0,0,.57-.1,3.2,3.2,0,0,0,.54-.3l.68.75a2.82,2.82,0,0,1-.88.48,2.22,2.22,0,0,1-.92.11,2.25,2.25,0,0,1-.89-.25,2.8,2.8,0,0,1-.78-.62,2.86,2.86,0,0,1-.62-1.05,2.68,2.68,0,0,1-.09-1.12,3.08,3.08,0,0,1,.36-1.07,3.66,3.66,0,0,1,.77-.95,3.74,3.74,0,0,1,1-.65,3,3,0,0,1,1.11-.24,2.49,2.49,0,0,1,1.1.22,2.68,2.68,0,0,1,1,.72,3.31,3.31,0,0,1,.53.79,2.59,2.59,0,0,1,.21.85,2,2,0,0,1-.11.83,2.25,2.25,0,0,1-.46.76Z" style="fill: #231f20"/>
        <path d="M185.56,29.82l2.34,3.58-.75.49-1.77-2.71-1.3.85,1.64,2.51L185,35l-1.64-2.5-1.45,1,1.8,2.75-.75.49-2.37-3.62Z" style="fill: #231f20"/>
        <path d="M188.75,34.92l.46,1-2.85,4.29h0l4-1.82.41.9-5.39,2.47-.46-1,2.84-4.27v0l-4,1.82-.41-.9Z" style="fill: #231f20"/>
        <path d="M191.27,40.67l1.34,4.61-.86.25-.53-1.81-4.83,1.41-.29-1,4.83-1.41-.53-1.8Z" style="fill: #231f20"/>
        <path d="M192.91,46.75l.62,4.23-.89.13-.47-3.2-1.54.23.44,3-.84.12-.44-3-1.71.26.48,3.25-.89.13L187,47.62Z" style="fill: #231f20"/>
        <path d="M193.66,52.7v1.1l-4.38,2.69v0l4.37,0v1l-5.93,0V56.4l4.37-2.69v0l-4.36,0v-1Z" style="fill: #231f20"/>
        <path d="M193.48,59.48l-.17,1.08-4.76,2v0l4.31.71-.16,1-5.85-1,.18-1.08,4.74-2v0l-4.3-.71.16-1Z" style="fill: #231f20"/>
        <path d="M192.14,66.21l-.28,1-5.7-1.64.28-1Z" style="fill: #231f20"/>
        <path d="M190.66,70.64l-.41,1-6.36-.11.42-1,1.66.07.89-2.19-1.24-1.11.4-1ZM187.49,69l-.68,1.67,2.7.14v0Z" style="fill: #231f20"/>
        <path d="M188.71,75l-.52.9-4.36-2.53L182.32,76l-.78-.45,2-3.51Z" style="fill: #231f20"/>
      </g>
      <g>
        <path d="M134,83.55a2.16,2.16,0,0,0,.39.22,1,1,0,0,0,.39.12,1,1,0,0,0,.38,0,.7.7,0,0,0,.33-.19L136,84l-2.57,3.67-.65-.46,1.81-2.59-.9-.63Z" style="fill: #231f20"/>
        <path d="M137,84.28l2.78,1.29-.26.55a7.41,7.41,0,0,0-.93.48,5.29,5.29,0,0,0-.83.6,6,6,0,0,0-.74.77,6.88,6.88,0,0,0-.65,1l-.72-.33a4.77,4.77,0,0,1,.61-.88,6.7,6.7,0,0,1,1.63-1.37,7.66,7.66,0,0,1,.94-.49l-2.1-1Z" style="fill: #231f20"/>
        <path d="M141,85.81l2.89,1-.2.57a9.33,9.33,0,0,0-.87.57,7.16,7.16,0,0,0-.77.69,5.51,5.51,0,0,0-.65.84,6.11,6.11,0,0,0-.54,1l-.76-.26a5.7,5.7,0,0,1,.51-.94,7,7,0,0,1,1.48-1.53,8.06,8.06,0,0,1,.89-.59l-2.2-.75Z" style="fill: #231f20"/>
        <path d="M149.67,89.27h2.43v.9h-2.43Z" style="fill: #231f20"/>
        <path d="M154.34,88.34a2.6,2.6,0,0,0,.42-.15,1.77,1.77,0,0,0,.35-.23,1.09,1.09,0,0,0,.23-.3.77.77,0,0,0,.07-.37l.57-.16,1.16,4.32-.77.21-.82-3-1.06.28Z" style="fill: #231f20"/>
        <path d="M161.67,86l2.88-1,.21.57a7.59,7.59,0,0,0-.32,1,5.72,5.72,0,0,0-.17,1,6.29,6.29,0,0,0,0,1.06,7,7,0,0,0,.22,1.13l-.75.28a5.38,5.38,0,0,1-.19-1,6.36,6.36,0,0,1,0-1.07,7.55,7.55,0,0,1,.17-1.06c.09-.35.2-.68.32-1l-2.18.8Z" style="fill: #231f20"/>
        <path d="M168,84.83a.73.73,0,0,0-.33-.36.69.69,0,0,0-.49,0,.81.81,0,0,0-.3.19.8.8,0,0,0-.16.26,1.13,1.13,0,0,0,0,.32,1.93,1.93,0,0,0,0,.34,3.4,3.4,0,0,0,.07.34c0,.11.06.22.08.31h0a1,1,0,0,1,.24-.52,1.37,1.37,0,0,1,.48-.31,1.46,1.46,0,0,1,.6-.1,1.35,1.35,0,0,1,.53.15,1.27,1.27,0,0,1,.42.35,2.09,2.09,0,0,1,.3.53,1.58,1.58,0,0,1,.1.6,1.31,1.31,0,0,1-.12.56,1.26,1.26,0,0,1-.33.47,1.55,1.55,0,0,1-.53.31,1.65,1.65,0,0,1-.82.11,1.27,1.27,0,0,1-.64-.3,2.16,2.16,0,0,1-.49-.61,4.64,4.64,0,0,1-.38-.84,3.52,3.52,0,0,1-.2-.79,2.38,2.38,0,0,1,0-.8,1.77,1.77,0,0,1,.3-.69,1.43,1.43,0,0,1,.68-.47,1.52,1.52,0,0,1,.51-.09,1.27,1.27,0,0,1,.47.09,1.36,1.36,0,0,1,.41.26,1.33,1.33,0,0,1,.3.43Zm.31,2.89a.67.67,0,0,0,.29-.19.72.72,0,0,0,.16-.28.72.72,0,0,0,0-.33,1.45,1.45,0,0,0-.07-.35,1.11,1.11,0,0,0-.17-.3.75.75,0,0,0-.24-.23.76.76,0,0,0-.3-.1.73.73,0,0,0-.35,0,.91.91,0,0,0-.3.19.88.88,0,0,0-.17.28.85.85,0,0,0,0,.32,1.09,1.09,0,0,0,.07.35,1,1,0,0,0,.17.31,1,1,0,0,0,.24.23.89.89,0,0,0,.31.11A.78.78,0,0,0,168.32,87.72Z" style="fill: #231f20"/>
      </g>
      <path d="M159.93,74.48a10.6,10.6,0,0,1-6-2c-.89-.62-1.77-1.24-2.64-1.89a.53.53,0,0,0-.77,0c-1,.72-1.93,1.44-2.94,2.09-7.18,4.63-15.08-.64-16.31-6.46a10.44,10.44,0,0,1,.25-5.32c.32-1,.67-2.1,1-3.13a.53.53,0,0,0-.23-.73c-1.13-.79-2.29-1.56-3.33-2.45-5.16-4.44-4.07-10.89-1.14-14.54a10.11,10.11,0,0,1,7.7-3.78c1.19-.06,2.38,0,3.56,0a.6.6,0,0,0,.71-.49c.27-.92.59-1.83.89-2.73a10.77,10.77,0,0,1,20.4,0c.31.92.63,1.85.91,2.78a.52.52,0,0,0,.59.43c1.45,0,2.91-.06,4.35.08a10.28,10.28,0,0,1,9.3,8.88,9.86,9.86,0,0,1-4.09,9.91c-.87.67-1.77,1.29-2.68,1.91a.51.51,0,0,0-.23.69,35.43,35.43,0,0,1,1.34,4.56,9.64,9.64,0,0,1-3.95,9.79A10.54,10.54,0,0,1,159.93,74.48Zm-6-6.32a14.27,14.27,0,0,0,3.73,2.38,6.62,6.62,0,0,0,3.61.27c3.37-.66,7.17-4.15,5.44-9.29-1.36-4-2.67-8.05-4-12.07-.11-.34-.09-.52.22-.73.85-.57,1.67-1.19,2.5-1.78l0-.13h-9.18c-.61,0-1.39.21-1.79-.09s-.48-1.1-.69-1.69-.36-1.11-.55-1.71c4.31,0,8.54,0,12.76,0a3.1,3.1,0,0,1,2.86,2,3.2,3.2,0,0,1-.29,3.51,8.36,8.36,0,0,1-1.45,1.26c-.23.18-.32.32-.21.61.2.52.36,1,.54,1.58s.33,1,.52,1.57c.82-.6,1.6-1.11,2.31-1.7,4.11-3.36,2.64-8.67-.09-10.83a7.52,7.52,0,0,0-4.9-1.53c-4.21,0-8.42,0-12.62,0a.7.7,0,0,1-.81-.58c-.27-.93-.6-1.85-1-2.9-.11.29-.17.44-.22.6q-1.56,4.71-3.14,9.44c-.05.16-.22.42-.34.42-1.16,0-2.32,0-3.54,0,.2-.58.36-1.1.53-1.61,1.1-3.31,2.18-6.63,3.29-9.94a3.58,3.58,0,0,1,6.8-.06c.1.27.16.54.28.79s.23.29.35.29c1.13,0,2.27,0,3.5,0-.33-1-.61-1.85-.94-2.73a6.81,6.81,0,0,0-1.86-2.62c-3-2.75-9.66-2.44-11.52,3.18q-1.94,5.9-3.89,11.78c-.3.92-.3.92-1.28.92h-2.75l.37.27,7.71,5.52c1,.72,1,.72.62,1.87l-.6,1.84c0,.16-.12.31-.19.5l-4.87-3.48c-1.75-1.25-3.51-2.47-5.24-3.75A3.18,3.18,0,0,1,132.67,46a3.3,3.3,0,0,1,2.83-2.66c.47-.07,1,0,1.46-.07.13,0,.35-.07.38-.17.38-1.07.73-2.16,1.12-3.33-.91,0-1.72,0-2.54,0a7,7,0,0,0-3.76,12.86l10.36,7.39a.55.55,0,0,1,.26.76c-.3.84-.56,1.69-.84,2.53,0,.12-.05.25-.1.47l9-6.46,3,2.16-.43.33-6.18,4.42c-1.24.88-2.45,1.8-3.73,2.62a3.54,3.54,0,0,1-5.33-3.3,14.07,14.07,0,0,1,.38-1.52c0-.15,0-.42-.06-.49-.92-.69-1.86-1.35-2.92-2.1-.34,1.34-.73,2.57-1,3.83a5.64,5.64,0,0,0,.06,1.92A7.2,7.2,0,0,0,146,69.55q5.26-3.76,10.52-7.53a.68.68,0,0,1,1,0c.77.59,1.58,1.14,2.5,1.79-.09-.3-.13-.46-.18-.62-1-3.15-2.07-6.3-3.13-9.44a.53.53,0,0,1,.24-.73c.54-.35,1.06-.74,1.59-1.11l1.07-.76c.54,1.63,1,3.16,1.55,4.7.77,2.33,1.56,4.64,2.29,7a3.24,3.24,0,0,1-1.07,3.67,3.43,3.43,0,0,1-4,.41c-.36-.2-.68-.48-1-.69-.13-.07-.35-.13-.45-.06C155.84,66.82,154.91,67.49,154,68.16Z"/>
      <path d="M146.7,88.65a.74.74,0,0,0,0-.49.59.59,0,0,0-.37-.31.71.71,0,0,0-.34,0,.76.76,0,0,0-.3.1.79.79,0,0,0-.24.21,1.39,1.39,0,0,0-.21.27c-.06.1-.12.2-.17.3l-.13.29v0a.92.92,0,0,1,.52-.24,1.25,1.25,0,0,1,.57.07,1.41,1.41,0,0,1,.52.31,1.25,1.25,0,0,1,.31.45,1.4,1.4,0,0,1,.1.54,1.76,1.76,0,0,1-.11.59,1.91,1.91,0,0,1-.31.54,1.52,1.52,0,0,1-.45.35,1.48,1.48,0,0,1-1.17,0,1.54,1.54,0,0,1-.69-.45,1.27,1.27,0,0,1-.3-.64,2.28,2.28,0,0,1,0-.78,7.12,7.12,0,0,1,.25-.89,3.8,3.8,0,0,1,.36-.73,2.35,2.35,0,0,1,.52-.6,1.62,1.62,0,0,1,.68-.34,1.4,1.4,0,0,1,.82.08,1.26,1.26,0,0,1,.44.25,1.4,1.4,0,0,1,.31.38,1.25,1.25,0,0,1,.15.46,1.34,1.34,0,0,1-.05.52Zm-1.63,2.41a.62.62,0,0,0,.35,0,.64.64,0,0,0,.3-.11.87.87,0,0,0,.24-.23,1.17,1.17,0,0,0,.17-.31,1.28,1.28,0,0,0,.07-.34.85.85,0,0,0,0-.32.88.88,0,0,0-.16-.28.91.91,0,0,0-.3-.19.87.87,0,0,0-.35,0,1,1,0,0,0-.31.1.87.87,0,0,0-.24.23,1.17,1.17,0,0,0-.24.66.93.93,0,0,0,0,.33.68.68,0,0,0,.17.28A.65.65,0,0,0,145.07,91.06Z" style="fill: #231f20"/>
      <path d="M159.66,90.18a.77.77,0,0,0,.34.35.64.64,0,0,0,.49,0,.7.7,0,0,0,.29-.19.63.63,0,0,0,.16-.27,1.07,1.07,0,0,0,.05-.32c0-.11,0-.22,0-.34a1.87,1.87,0,0,0-.08-.34c0-.11-.06-.21-.08-.3h0a1,1,0,0,1-.23.52,1.23,1.23,0,0,1-.48.32,1.47,1.47,0,0,1-.6.11,1.35,1.35,0,0,1-.95-.48,1.94,1.94,0,0,1-.31-.52,1.68,1.68,0,0,1-.11-.61,1.33,1.33,0,0,1,.1-.56,1.54,1.54,0,0,1,.33-.47,1.49,1.49,0,0,1,.53-.33,1.78,1.78,0,0,1,.82-.12,1.38,1.38,0,0,1,.64.29,2.28,2.28,0,0,1,.5.6,5.81,5.81,0,0,1,.4.83,5.41,5.41,0,0,1,.21.79,2.68,2.68,0,0,1,0,.8,1.61,1.61,0,0,1-.29.7,1.42,1.42,0,0,1-.67.48,1.48,1.48,0,0,1-.5.1,1.28,1.28,0,0,1-.48-.09,1.07,1.07,0,0,1-.42-.25,1.33,1.33,0,0,1-.3-.42Zm-.35-2.89a.83.83,0,0,0-.3.2.85.85,0,0,0-.15.28.93.93,0,0,0,0,.33,1.47,1.47,0,0,0,.08.35,1.11,1.11,0,0,0,.17.3.83.83,0,0,0,.24.22.76.76,0,0,0,.3.1.87.87,0,0,0,.35,0,.79.79,0,0,0,.3-.2.74.74,0,0,0,.16-.27.72.72,0,0,0,0-.33,1.05,1.05,0,0,0-.08-.34,1,1,0,0,0-.17-.31.78.78,0,0,0-.25-.23.81.81,0,0,0-.31-.1A.87.87,0,0,0,159.31,87.29Z" style="fill: #231f20"/>
      <path d="M50.05,26.81c.44-.17,10.94,7.09,19,20.91,2.2,3.75,4.41,11.19,5.57,15.72a19.25,19.25,0,0,1,.85,6.37.38.38,0,0,1-.15.21,16.92,16.92,0,0,1-1.83,1,52.55,52.55,0,0,1-23.57,5.13H49.8A52.55,52.55,0,0,1,26.23,71a16.92,16.92,0,0,1-1.83-1,.38.38,0,0,1-.15-.21,19.25,19.25,0,0,1,.85-6.37c1.16-4.53,3.37-12,5.57-15.72,8.08-13.82,18.54-21,19-20.91Z" style="fill: #231f20;stroke: #231f20;stroke-miterlimit: 10;stroke-width: 0.951886715891672px"/>
      <g>
        <path d="M44.27,69.75a4.39,4.39,0,0,0-.54-.53,1.39,1.39,0,0,1-.23-.43,6.34,6.34,0,0,1-.33-2.41c.09-.88.16-1.76.18-2.63,0-1.16,0-2.33,0-3.49a10.68,10.68,0,0,0-.18-1.48C43,57.86,42.82,57,42.72,56a10.49,10.49,0,0,0-.84-3.22c-.27-.6-.63-.71-1.25-.26-.35.26-.66.58-1,.87-.52.46-1.09.87-1.56,1.36-.67.71-1.21,1.46-1.93,2.19a26.51,26.51,0,0,0-1.83,2.38c-.59.75-1,1.6-1.59,2.39-.4.58-.85,1.12-1.24,1.71a2.22,2.22,0,0,1-1.69,1.27c-.18,0-.37.23-.49.4s.06.32.16.37c1,.46,1.91.93,2.89,1.33.17.07.46-.16.69-.25a1.73,1.73,0,0,0-.26-.6,1.11,1.11,0,0,1-.36-1.18A9.17,9.17,0,0,1,34,62c.29-.41.6-.36,1-.18a18.36,18.36,0,0,0,1.88.68c.73.23,1.46.42,2.19.64a8.52,8.52,0,0,1,1,.33,1.39,1.39,0,0,1,.66.45,4.37,4.37,0,0,1,.22,3.06,1.79,1.79,0,0,1-1.73,1.42C39.8,69.35,42.5,70.14,44.27,69.75Z" style="fill: #fff"/>
        <path d="M42.06,60.24c0,.39-.09.9-.14,1.41a.53.53,0,0,1-.76.5c-1.25-.39-2.51-.79-3.77-1.17a1.08,1.08,0,0,1-.67-1.43,16.29,16.29,0,0,1,1.08-1.4c.6-.77,1.2-1.55,1.81-2.3a5,5,0,0,1,.82-.83c.46-.37.77-.29,1,.29a8.59,8.59,0,0,1,.39,1.74C41.92,58.07,42,59.09,42.06,60.24Z"/>
      </g>
      <path d="M66.64,53.7c.07-.15.23-.33.22-.49a5.64,5.64,0,0,0-.93-2.92c-.26-.39-.48-.49-.78-.21a3.5,3.5,0,0,1-2.11.66,5.12,5.12,0,0,0-1.89.49A9.33,9.33,0,0,0,58,54.31a9.11,9.11,0,0,0-1.35,3.36,10,10,0,0,0,.26,3.77,17.51,17.51,0,0,0,.92,2.48,7.21,7.21,0,0,0,2.3,2.83A5.62,5.62,0,0,0,62.93,68a3.64,3.64,0,0,0,2.35-.22,9.51,9.51,0,0,0,1.59-.41,11.64,11.64,0,0,0,1.32-.77,4.16,4.16,0,0,1,1.86-.46.51.51,0,0,0,.55-.62A5.68,5.68,0,0,0,69.79,63a.43.43,0,0,0-.35-.23.49.49,0,0,0-.27.32c-.13.48-.18,1-.34,1.45a3.31,3.31,0,0,1-3,2.22A3.94,3.94,0,0,1,62,65.47c-.48-.57-1.17-1-1.41-1.75a7.91,7.91,0,0,0-.75-1.44,1.09,1.09,0,0,1,.66-1.51c.44-.08.89-.13,1.31-.25.87-.25,1.7-.61,2.58-.78,1.12-.2,2.31-.65,3.35.31.1.08.45.08.49,0a1.09,1.09,0,0,0,.17-.67c-.09-.47-.27-.92-.39-1.38s-.09-1.1-.62-1.55c-.12.17-.31.3-.33.46-.08.59-.62.8-.9,1.21a.51.51,0,0,1-.25.21,13.38,13.38,0,0,1-3,.72,15,15,0,0,0-2.84.62c-.47.11-1.07-.21-1-.68,0-1.48-.26-3,.33-4.44a4.38,4.38,0,0,1,1.72-2.11,6.67,6.67,0,0,1,1.26-.52,2.4,2.4,0,0,1,2.47.31C65.39,52.7,66,53.15,66.64,53.7Z" style="fill: #fff"/>
      <path d="M46.62,47.33a2.14,2.14,0,0,0-.29.65c-.06,1.21-.12,2.42-.1,3.63a1.44,1.44,0,0,0,.51.77c.09.08.37-.09.56-.09a3.32,3.32,0,0,1,1.05.07,3.23,3.23,0,0,1,.37.22,2.86,2.86,0,0,0,1.05.18,12.85,12.85,0,0,0,2.63,0A5,5,0,0,0,54.51,52a4.38,4.38,0,0,0,2-2.45,6.16,6.16,0,0,0,.12-3.56,3.81,3.81,0,0,0-.46-1.29,7.07,7.07,0,0,0-1.43-1.46A16.43,16.43,0,0,0,52.8,42a10.3,10.3,0,0,0-2.26-1.11,7,7,0,0,1-2-1.2A1.48,1.48,0,0,1,48,39a4.86,4.86,0,0,1-.33-1.39,1.67,1.67,0,0,1,.44-1c.09-.13.21-.24.41-.47l.2-.24a2.79,2.79,0,0,1,3-1.08,2.62,2.62,0,0,1,2,1.53,6.16,6.16,0,0,1,.89,2.35.53.53,0,0,0,.32.37.49.49,0,0,0,.41-.17c.22-.72.8-1.34.49-2.23a15.74,15.74,0,0,1-.46-2.29c-.06-.32-.2-.34-.5-.24a2.45,2.45,0,0,1-1.08.21,16.57,16.57,0,0,1-1.65-.52,3.76,3.76,0,0,0-3.22.18,10.62,10.62,0,0,0-2.5,2.55,3.68,3.68,0,0,0-.33,4.07,4.1,4.1,0,0,0,.34.86,2.7,2.7,0,0,0,1.41,1.35c.93.55,1.9,1,2.85,1.56.19.1.48.11.66.2a12.55,12.55,0,0,1,2.48,1.64A3.26,3.26,0,0,1,52.31,52a3.41,3.41,0,0,1-3.07-.51c-.26-.21-.48-.48-.72-.71a4.28,4.28,0,0,1-1.21-2.41C47.24,48,47.22,47.5,46.62,47.33Z" style="fill: #fff"/>
      <circle cx="42.1" cy="43.22" r="1.4" style="fill: #fff"/>
      <circle cx="60.11" cy="43.22" r="1.4" style="fill: #fff"/>
      <circle cx="51.68" cy="60.72" r="1.4" style="fill: #fff"/>
    </g>
  </g>
</svg>
