<svg xmlns="http://www.w3.org/2000/svg" viewBox="0 0 76.31 47.2">
  <title>logo_current</title>
  <g id="Layer_2" data-name="Layer 2">
    <g id="Layer_1-2" data-name="Layer 1">
      <g>
        <path d="M50.92,36.59V29H72v7.63ZM70.21,22.41V14.77H50.92v7.64ZM72,8.22V.59H50.92V8.22ZM27.56,17.13,21.62,27c1-2.11-.63-3.23-1.66-3.55-1.74-.66-7.19-1.74-10.73-2.77a13.64,13.64,0,0,1-3.88-1.8,9.47,9.47,0,0,1-4-7.8C1.32,8.9,2.42,0,16.06,0,27.28,0,30.32,6.56,30.59,10.48H21.41c-.32-1.43-1.61-3.11-5.54-3.13-.91,0-4.55.09-4.9,2.45a2.11,2.11,0,0,0,.85,2.11,6.42,6.42,0,0,0,1.93.77c1.66.5,5.29,1.2,7.08,1.64A17.71,17.71,0,0,1,27.56,17.13ZM16,29c-3.61,0-6-.92-6.73-4.63H0c0,1.49.78,7.8,6.42,10.44a22.37,22.37,0,0,0,9.45,1.75l5.67-9.44C21.14,27.69,20.35,29,16,29Z" style="fill: #fff"/>
        <path d="M76.31,45.61A1.58,1.58,0,1,1,74.74,44,1.57,1.57,0,0,1,76.31,45.61Zm-.18,0a1.4,1.4,0,1,0-1.4,1.4A1.38,1.38,0,0,0,76.13,45.61Zm-1,.19.41.6h-.43l-.36-.54h-.29v.54h-.37V44.73h.74c.4,0,.66.2.66.55A.53.53,0,0,1,75.13,45.8Zm0-.5c0-.16-.11-.25-.29-.25h-.36v.49h.37C75,45.54,75.11,45.44,75.11,45.3ZM31.34,41.09h1.22v6H31.49L29.1,43.46v3.63H27.88v-6H29l2.31,3.5Zm-6.29,3.77,1.28,2.23H24.9l-1.11-2H23v2H21.75v-6H24a2.28,2.28,0,0,1,1.64.57,1.9,1.9,0,0,1,.51,1.39v0A1.81,1.81,0,0,1,25.05,44.86Zm-.14-1.75c0-.6-.37-.9-1-.9H23V44h.93a.86.86,0,0,0,1-.9Zm-23.67,4H2.49v-6H1.24Zm16.07-2.46h2.33V43.51H17.31v-1.3H20V41.09H16.07v6H20V46H17.31Zm-9.53,0-2.31-3.5H4.32v6H5.54V43.46l2.39,3.63H9v-6H7.78Zm2.62-2.35h1.51v4.85h1.25V42.24h1.51V41.09H10.4Zm26.84-1.15,2.15,6H38.1l-.45-1.3H35.58l-.44,1.3H33.88l2.15-6Zm0,3.6-.66-1.95-.66,1.95Zm21.69-.1-2.31-3.5H55.48v6h1.23V43.46l2.38,3.63h1.07v-6H58.94Zm10.62-3.5H68.31v6H72V46H69.56ZM39.87,42.24h1.52v4.85h1.24V42.24h1.52V41.09H39.87Zm5.71,4.85h1.25v-6H45.58ZM53.88,44v.1a2.75,2.75,0,1,1-5.46,0v-.1a2.75,2.75,0,1,1,5.46,0Zm-1.29,0c0-1.18-.6-1.93-1.44-1.93s-1.44.74-1.44,1.92v.06c0,1.19.61,1.93,1.45,1.93s1.43-.73,1.43-1.92Zm14.42,3h-1.3l-.44-1.3H63.19l-.44,1.3H61.49l2.15-6h1.21Zm-2.12-2.4-.66-1.95-.66,1.95ZM50.92.59H37.5L27.56,17.13,21.62,27l-.08.14-5.67,9.44h9.56L30,29H42.49v7.64h8.43ZM42.49,22.4H34L42.49,8.2Z" style="fill: #d1d3d4"/>
      </g>
    </g>
  </g>
</svg>
