<svg xmlns="http://www.w3.org/2000/svg" viewBox="0 0 121.76 76.45">
  <title>logo_1955</title>
  <g id="Layer_2" data-name="Layer 2">
    <g id="Layer_1-2" data-name="Layer 1">
      <path d="M11.22,41.73a17,17,0,0,1-7.81,7.41.6.6,0,0,0,.07,1.12c6.58,2.09,16,1.38,22.69-.26v4.8c0,2.44,2.89,4.67,8.11,6.3,13,4.05,40.47,4.06,53.47,0,5.22-1.63,8.1-3.86,8.11-6.3V50c6.68,1.64,16.11,2.35,22.69.26a.6.6,0,0,0,.07-1.12c-4.74-2.19,3-16.54,3.09-16.82a.61.61,0,0,0-.72-.82c-10.23,3-34.85-9.94-34.85-2.42V41c-12.46,2.84-37.79,2.84-50.25,0V29.08c0-7.56-24.56,5.47-34.85,2.42a.6.6,0,0,0-.71.82A19.32,19.32,0,0,0,11.22,41.73Z" style="fill: #333"/>
      <g>
        <path id="_4" data-name="4" d="M93.53,41.09l0-.84a.37.37,0,0,0-.19-.3l-.55-.3c-.33-.17-.74-.39-1.21-.6-.25-.12-.5-.22-.73-.32-.1-.77-.24-1.54-.4-2.29.19-.17.39-.36.58-.56.68-.69,1.34-1.44,1.34-1.44a.4.4,0,0,0,.08-.35s-.09-.33-.23-.81c-.07-.24-.14-.53-.23-.83l-.35-.92-.66-1.72a4.6,4.6,0,0,0-.24-.55l-.11-.21a.37.37,0,0,0-.29-.22s-1-.14-2-.22l-.78-.07c-.36-.68-.75-1.35-1.17-2,.11-.23.23-.47.34-.71.43-.9.82-1.85.82-1.85a.37.37,0,0,0-.06-.36l-1.63-2.11c-.43-.52-.91-1-1.25-1.36L84,19.54a.37.37,0,0,0-.34-.12l-.6.12c-.36.08-.86.22-1.34.35L81,20.1c-.57-.51-1.17-1-1.78-1.48,0-.25,0-.52.08-.79.08-1,.11-2,.11-2a.39.39,0,0,0-.16-.33,34.43,34.43,0,0,0-4.64-2.67.38.38,0,0,0-.36,0s-.86.52-1.66,1.08c-.23.15-.45.31-.66.46-.71-.29-1.43-.56-2.17-.79,0-.25-.12-.51-.19-.78-.12-.49-.26-1-.38-1.31L69,10.93a.37.37,0,0,0-.27-.23l-.82-.2c-.49-.1-1.13-.31-1.8-.39l-2.65-.36a.32.32,0,0,0-.33.13s-.63.81-1.2,1.63l-.43.64-1.17,0-1.16,0-.44-.64c-.57-.8-1.2-1.6-1.2-1.6a.37.37,0,0,0-.33-.14,33.82,33.82,0,0,0-5.27.93.39.39,0,0,0-.26.24s-.32,1-.58,1.9c-.07.27-.14.53-.21.77-.73.24-1.45.51-2.16.8L48,13.94c-.41-.3-.83-.59-1.14-.77l-.53-.33a.39.39,0,0,0-.35,0l-.75.38c-.45.24-1.07.5-1.63.86L41.36,15.5a.36.36,0,0,0-.17.31s0,1,.14,2c0,.27.05.54.08.79-.61.48-1.21,1-1.78,1.49l-.76-.22c-.95-.25-1.95-.46-1.95-.46a.38.38,0,0,0-.35.1,6.89,6.89,0,0,0-.58.6l-1.21,1.39A13.4,13.4,0,0,0,33.64,23l-.49.68a.37.37,0,0,0-.06.35s.36.93.77,1.82c.12.26.25.51.37.74-.41.65-.8,1.31-1.15,2l-.82.07c-1,.09-2,.24-2,.24a.38.38,0,0,0-.29.22l-.35.76A14.94,14.94,0,0,0,29,31.53l-.6,1.74a6.07,6.07,0,0,0-.17.59l0,.22a.42.42,0,0,0,.08.36s.68.75,1.38,1.45l.56.55c-.16.75-.3,1.52-.4,2.29l-.72.32c-.9.42-1.81.9-1.81.9a.35.35,0,0,0-.19.3L27,42.93a14.57,14.57,0,0,0,.07,1.83l.05.84a.37.37,0,0,0,.19.3l.54.3c.34.17.75.39,1.22.6l.74.33c.1.76.23,1.52.39,2.27-.19.18-.39.37-.58.57-.68.69-1.34,1.44-1.34,1.44a.4.4,0,0,0-.08.35s.09.33.23.81c.06.24.14.53.23.83l.35.92L29.65,56a4.6,4.6,0,0,0,.24.55l.11.21a.37.37,0,0,0,.29.22s1,.14,2,.22l.79.07c.36.68.75,1.35,1.16,2l-.35.71c-.42.9-.81,1.86-.81,1.86a.35.35,0,0,0,.06.35l1.63,2.12c.43.51.91,1,1.25,1.35l.57.61a.37.37,0,0,0,.34.12l.6-.12c.36-.08.86-.22,1.34-.35.27-.07.53-.14.77-.22.57.52,1.16,1,1.77,1.48,0,.25,0,.53-.08.8-.08,1-.11,2-.11,2a.39.39,0,0,0,.16.33A34.43,34.43,0,0,0,46,73a.36.36,0,0,0,.36,0s.86-.52,1.66-1.08c.23-.15.45-.31.66-.46.71.29,1.43.55,2.16.79.06.25.13.51.2.78.12.49.26,1,.38,1.31l.19.59a.39.39,0,0,0,.27.24l.82.19c.49.1,1.13.31,1.8.39l2.65.36a.32.32,0,0,0,.33-.13s.63-.81,1.19-1.63c.16-.22.3-.44.44-.64.39,0,.78,0,1.17,0s.78,0,1.16,0l.44.64c.57.8,1.19,1.6,1.19,1.6a.4.4,0,0,0,.34.14,33.82,33.82,0,0,0,5.27-.93.37.37,0,0,0,.26-.24s.32-1,.58-1.9l.2-.77c.74-.24,1.47-.5,2.18-.79l.64.46c.41.3.83.59,1.14.77l.53.33a.39.39,0,0,0,.35,0l.75-.38c.45-.24,1.07-.5,1.63-.86l2.27-1.43a.36.36,0,0,0,.17-.31s0-1-.14-2c0-.27,0-.54-.08-.79.61-.47,1.21-1,1.78-1.48l.76.21c1,.25,2,.47,2,.47a.42.42,0,0,0,.35-.11,6.89,6.89,0,0,0,.58-.6l1.21-1.39a13.4,13.4,0,0,0,1.14-1.44l.49-.68a.37.37,0,0,0,.06-.35s-.36-.93-.77-1.82c-.12-.26-.25-.5-.36-.73.41-.65.79-1.31,1.15-2l.81-.06c1-.1,2-.25,2-.25a.38.38,0,0,0,.29-.22l.35-.76a14.94,14.94,0,0,0,.67-1.71l.6-1.74a6.07,6.07,0,0,0,.17-.59l0-.22a.42.42,0,0,0-.08-.36S91.65,50.66,91,50l-.55-.54c.16-.76.3-1.53.4-2.3l.7-.32c.91-.42,1.82-.9,1.82-.9a.35.35,0,0,0,.19-.3l.09-2.68A14.65,14.65,0,0,0,93.53,41.09ZM34.09,42.93a25.2,25.2,0,1,1,25.2,25.2A25.23,25.23,0,0,1,34.09,42.93Z" style="fill: #fff;stroke: #1d1d1b;stroke-miterlimit: 10;stroke-width: 0.7000000000000001px"/>
        <circle cx="60.29" cy="42.93" r="28.54" style="fill: #231f20;stroke: #1d1d1b;stroke-miterlimit: 10;stroke-width: 0.8085px"/>
      </g>
      <path d="M121.43,32.49a.6.6,0,0,0-.72-.81c-10.28,3-34.84-10-34.84-2.43V41.19C73.41,44,48.07,44,35.62,41.19V29.25c0-7.52-24.62,5.46-34.85,2.43a.6.6,0,0,0-.72.81c.12.28,7.82,14.63,3.09,16.83a.6.6,0,0,0,.07,1.11c6.58,2.1,16,1.38,22.69-.26V55c0,2.43,2.89,4.67,8.11,6.29,13,4.06,40.49,4,53.47,0,5.22-1.62,8.1-3.86,8.11-6.3v-4.8c6.68,1.64,16.11,2.36,22.69.26a.6.6,0,0,0,.07-1.11,17.06,17.06,0,0,1-7.81-7.41A19.35,19.35,0,0,0,121.43,32.49Z" style="fill: #333"/>
      <path d="M27.1,36.26c0-2.77,5-3.41,7.32-5V40.9C29.75,39.68,27.1,38,27.1,36.26Z" style="fill: #fff"/>
      <path d="M5,49.69c5.3-3-2-14.6-3.24-16.56,10.43,1.72,32.64-8.64,32.64-3.88,0,.92-1.69,1.6-3.33,2.26-2.4,1-5.26,2.13-5.19,4.77V48.93C19.8,50.47,11.34,51.22,5,49.69Z" style="fill: #fff"/>
      <path d="M94.39,55c0,2.73-7,8-33.65,8.16C34.15,62.92,27.11,57.7,27.1,55V38.83c7.83,7.7,59.57,7.58,67.29,0Z" style="fill: #fff"/>
      <path d="M87.07,40.9V31.23c2.27,1.61,7.32,2.27,7.32,5C94.39,38,91.73,39.68,87.07,40.9Z" style="fill: #fff"/>
      <g>
        <path d="M46.57,49.42h1.51a.66.66,0,0,1,.19,0s0,0,0,.08a.68.68,0,0,1,0,.12,2.86,2.86,0,0,0,0,.37v1a.15.15,0,0,0,.09.14.11.11,0,0,1,.07.09v.12s-.05.1-.15.14a4.26,4.26,0,0,1-.62.15,4.71,4.71,0,0,1-1,.1c-1.8,0-2.7-.84-2.7-2.53a3.52,3.52,0,0,1,.26-1.37,2.46,2.46,0,0,1,.9-1.11,2.36,2.36,0,0,1,1.38-.44,2.94,2.94,0,0,1,.79.11.58.58,0,0,0,.2,0l.14,0,.13,0h.23c.11,0,.17,0,.17.09v1.13c0,.06,0,.1-.15.1h-.25a.3.3,0,0,1-.14,0s0-.08-.1-.22a1.06,1.06,0,0,0-1-.79.89.89,0,0,0-.59.19,1.31,1.31,0,0,0-.33.86,9,9,0,0,0-.1,1.36,5.48,5.48,0,0,0,.1,1.17,2.23,2.23,0,0,0,.22.69.66.66,0,0,0,.32.32.93.93,0,0,0,.42.09c.35,0,.53-.14.53-.43v-.74a.38.38,0,0,0-.08-.27.77.77,0,0,0-.36-.15c-.08,0-.13-.05-.13-.1V49.5S46.47,49.42,46.57,49.42Z" style="fill: #231f20"/>
        <path d="M51.65,51.71A2.31,2.31,0,0,1,49.79,51a3,3,0,0,1-.62-2,3,3,0,0,1,.62-2,2.2,2.2,0,0,1,1.8-.74,2.27,2.27,0,0,1,1.75.68A2.82,2.82,0,0,1,54,49,2.9,2.9,0,0,1,53.35,51,2.22,2.22,0,0,1,51.65,51.71Zm-.07-.37a.76.76,0,0,0,.5-.2,1.93,1.93,0,0,0,.32-1.08c.06-.6.09-1.14.09-1.63a3.68,3.68,0,0,0-.14-1.1,1.2,1.2,0,0,0-.31-.56.73.73,0,0,0-.43-.12.87.87,0,0,0-.4.09.65.65,0,0,0-.28.34,4.84,4.84,0,0,0-.17,1,14.51,14.51,0,0,0-.07,1.5,3.12,3.12,0,0,0,.22,1.38A.72.72,0,0,0,51.58,51.34Z" style="fill: #231f20"/>
        <path d="M55.05,51V47c0-.12-.07-.2-.22-.26s-.16-.09-.16-.14v-.15c0-.06,0-.08.16-.08h1.86c.09,0,.13,0,.13.07v.16s0,.1-.15.14-.23.15-.23.26v4.27H57a1.27,1.27,0,0,0,.7-.16.92.92,0,0,0,.36-.54.84.84,0,0,1,.07-.17.23.23,0,0,1,.11,0h.28c.1,0,.16,0,.16.08v1.22H54.82c-.13,0-.2,0-.2-.1v-.13c0-.06.06-.1.18-.14S55.05,51.12,55.05,51Z" style="fill: #231f20"/>
        <path d="M59.08,46.56v-.18s.05-.05.14-.05h1.55a3.84,3.84,0,0,1,2.22.61,2.23,2.23,0,0,1,.9,2,3.51,3.51,0,0,1-.27,1.36,2.07,2.07,0,0,1-.87,1,4.33,4.33,0,0,1-2,.35H59.19c-.07,0-.11,0-.11-.06v-.17s.05-.1.15-.14.22-.15.22-.27V47a.26.26,0,0,0-.2-.25C59.14,46.66,59.08,46.61,59.08,46.56Zm1.75.17v4.51a2.13,2.13,0,0,0,.93-.16,1.05,1.05,0,0,0,.48-.72,4.86,4.86,0,0,0,.15-1.27,5,5,0,0,0-.12-1.23,1.9,1.9,0,0,0-.28-.68.94.94,0,0,0-.42-.33A2.9,2.9,0,0,0,60.83,46.73Z" style="fill: #231f20"/>
        <path d="M68.82,51.64h-4.1c-.1,0-.14,0-.14-.08v-.15s.06-.1.19-.16A.26.26,0,0,0,65,51V47a.3.3,0,0,0-.22-.27c-.1,0-.15-.08-.15-.13v-.17s0-.06.14-.06h3.65c.13,0,.2,0,.2.06v1c0,.05,0,.09,0,.1h-.37c-.1,0-.15,0-.16-.09a1.07,1.07,0,0,0-.24-.46.89.89,0,0,0-.68-.19h-.76v1.93h.28a.88.88,0,0,0,.35-.05.83.83,0,0,0,.24-.36c0-.06,0-.1.07-.1h.37c.1,0,.15,0,.15.08v1.29c0,.06,0,.08-.14.08h-.28l-.12,0a.55.55,0,0,1-.1-.16.59.59,0,0,0-.23-.3,1,1,0,0,0-.35,0h-.24v2.16h.81a1.13,1.13,0,0,0,.62-.12,1.77,1.77,0,0,0,.43-.66.22.22,0,0,1,.22-.13h.26q.15,0,.15.09Z" style="fill: #231f20"/>
        <path d="M72.78,49.2V47c0-.12-.07-.2-.23-.26s-.15-.09-.15-.14v-.15c0-.06,0-.08.15-.08h1.36c.08,0,.13,0,.13.07v.16s-.05.1-.15.14-.24.15-.24.26v4.59c0,.08-.05.11-.17.11h-.26c-.12,0-.21,0-.25-.11l-2.48-3.72V51c0,.12.07.21.23.27s.15.08.15.14v.15s-.05.08-.16.08H69.38c-.09,0-.13,0-.13-.07v-.16s0-.1.15-.14.23-.15.23-.27V47c0-.12-.07-.2-.23-.26s-.15-.09-.15-.14v-.15c0-.06,0-.08.15-.08h1.27a.39.39,0,0,1,.18,0,.26.26,0,0,1,.1.09Z" style="fill: #231f20"/>
        <path d="M35,53.5l-.05-.23,0-.13s0,0,.09-.06l1-.27H36a.09.09,0,0,1,.1.06l1.62,4.63a.5.5,0,0,0,.11.18.65.65,0,0,0,.24.12c.09,0,.14.06.14.11v.15s0,.08-.12.08h-2c-.11,0-.16,0-.16-.08v-.15c0-.06.06-.1.19-.14s.23-.11.23-.19a.25.25,0,0,0,0-.08l-.25-.71H34.57l-.25.68a.25.25,0,0,0,0,.07c0,.07.09.14.27.22s.17.1.17.15v.15s-.06.08-.17.08H33.32c-.14,0-.21,0-.21-.08v-.18c0-.05,0-.09.13-.12a.47.47,0,0,0,.32-.29Zm.42,1.1-.63,1.75H36Z" style="fill: #231f20"/>
        <path d="M42.19,55.7V53.46c0-.12-.07-.2-.22-.26s-.16-.09-.16-.14V52.9s0-.07.16-.07h1.35c.08,0,.13,0,.13.07v.16s-.05.09-.15.14-.23.14-.23.26v4.59c0,.08-.06.11-.18.11h-.26c-.12,0-.21,0-.25-.11L39.9,54.33V57.5c0,.12.07.21.23.27s.15.08.15.14v.15s-.05.08-.15.08H38.79c-.09,0-.13,0-.13-.07v-.16s.05-.1.15-.14.23-.15.23-.27v-4c0-.12-.07-.21-.23-.26s-.15-.09-.15-.14V52.9s.05-.07.15-.07h1.27a.39.39,0,0,1,.18,0,.2.2,0,0,1,.1.09Z" style="fill: #231f20"/>
        <path d="M47.49,55.7V53.46c0-.12-.07-.2-.23-.26s-.15-.09-.15-.14V52.9s0-.07.15-.07h1.36c.08,0,.13,0,.13.07v.16s0,.09-.15.14-.24.14-.24.26v4.59c0,.08,0,.11-.17.11h-.26c-.12,0-.21,0-.25-.11L45.2,54.33V57.5c0,.12.07.21.23.27s.15.08.15.14v.15s0,.08-.16.08H44.09c-.09,0-.13,0-.13-.07v-.16s0-.1.15-.14.23-.15.23-.27v-4c0-.12-.07-.21-.23-.26s-.15-.09-.15-.14V52.9s0-.07.15-.07h1.27a.39.39,0,0,1,.18,0,.26.26,0,0,1,.1.09Z" style="fill: #231f20"/>
        <path d="M51,57.5c0,.12.07.21.22.27s.16.08.16.14v.15s0,.08-.16.08H49.39c-.09,0-.13,0-.13-.07v-.16s.05-.1.15-.14.23-.15.23-.27v-4c0-.12-.08-.21-.23-.26s-.15-.09-.15-.14V52.9s.05-.07.15-.07h1.87c.09,0,.13,0,.13.07v.16s0,.09-.16.14-.22.14-.22.26Z" style="fill: #231f20"/>
        <path d="M54.53,55.93l.82-2.38a.2.2,0,0,0,0-.1c0-.09-.09-.17-.27-.22s-.2-.1-.2-.15v-.17s.05-.08.17-.08h1.41c.12,0,.18,0,.18.08v.17c0,.06,0,.1-.17.14a.49.49,0,0,0-.36.3L54.57,58.1a.16.16,0,0,1-.17.11h-.24A.18.18,0,0,1,54,58.1l-1.57-4.55A.6.6,0,0,0,52,53.2c-.1,0-.16-.09-.16-.14V52.9s.06-.07.16-.07h1.85c.1,0,.15,0,.15.08v.17c0,.05-.05.08-.16.12s-.2.11-.2.19a.65.65,0,0,0,0,.11Z" style="fill: #231f20"/>
        <path d="M61.37,58.14h-4.1c-.09,0-.14,0-.14-.08v-.15s.07-.1.2-.16a.27.27,0,0,0,.17-.25v-4c0-.12-.07-.21-.22-.27s-.15-.08-.15-.13v-.17s0-.06.14-.06h3.66c.13,0,.19,0,.19.06v1c0,.05,0,.08,0,.1h-.38c-.09,0-.15,0-.16-.09a1.05,1.05,0,0,0-.23-.46.93.93,0,0,0-.69-.19h-.75v1.93h.27a1,1,0,0,0,.36-.05,1.06,1.06,0,0,0,.24-.36c0-.06.05-.1.06-.1h.37c.11,0,.16,0,.16.08V56s-.05.08-.15.08h-.27l-.13,0a.61.61,0,0,1-.09-.16.55.55,0,0,0-.24-.3,1,1,0,0,0-.34,0h-.24v2.16h.81a1.18,1.18,0,0,0,.62-.12,1.91,1.91,0,0,0,.43-.66.21.21,0,0,1,.21-.13h.26q.15,0,.15.09Z" style="fill: #231f20"/>
        <path d="M63.57,55.65V57.5c0,.12.08.21.23.27s.15.08.15.14v.15s-.05.08-.15.08H61.93c-.08,0-.13,0-.13-.07v-.16s.05-.1.16-.14.22-.15.22-.27v-4A.27.27,0,0,0,62,53.2c-.11,0-.16-.09-.16-.14V52.9s.05-.07.16-.07h1.56a4.66,4.66,0,0,1,2,.34,1.06,1.06,0,0,1,.7,1c0,.69-.56,1.13-1.67,1.33a2.52,2.52,0,0,1,.74.31,1.22,1.22,0,0,1,.4.51l.43,1.08a.81.81,0,0,0,.17.29.88.88,0,0,0,.26.13s.06,0,.06.07v.19s0,.08-.13.08H65.3a.23.23,0,0,1-.22-.11l-.81-1.88a.84.84,0,0,0-.29-.4A.83.83,0,0,0,63.57,55.65Zm0-2.41v2a1.53,1.53,0,0,0,.95-.23,1,1,0,0,0,.31-.82.84.84,0,0,0-.31-.77A2,2,0,0,0,63.57,53.24Z" style="fill: #231f20"/>
        <path d="M67.63,58.14h-.3q-.15,0-.15-.09V56.76c0-.09,0-.13.16-.13h.26c.07,0,.11,0,.13,0a.81.81,0,0,1,.1.27,1.18,1.18,0,0,0,1.83.67.71.71,0,0,0,.26-.55.84.84,0,0,0-.28-.61,6,6,0,0,0-1.07-.77,7.62,7.62,0,0,1-.88-.57,2,2,0,0,1-.42-.46,1.1,1.1,0,0,1-.16-.56,1.14,1.14,0,0,1,.5-.94,2,2,0,0,1,1.22-.36,2.37,2.37,0,0,1,.71.11l.22,0,.13,0a.48.48,0,0,1,.18,0h.22q.18,0,.18.09v1.13c0,.06,0,.09-.13.09h-.28a.22.22,0,0,1-.14,0,1.43,1.43,0,0,1-.12-.25,1,1,0,0,0-.91-.74.86.86,0,0,0-.55.16.5.5,0,0,0-.2.38.75.75,0,0,0,.24.51,4.6,4.6,0,0,0,1,.69,5.47,5.47,0,0,1,1.29.95,1.38,1.38,0,0,1,.35.9,1.23,1.23,0,0,1-.59,1,2.47,2.47,0,0,1-1.42.41,4.21,4.21,0,0,1-.85-.11l-.22,0-.16,0Z" style="fill: #231f20"/>
        <path d="M73.27,53.5l0-.23,0-.13s0,0,.09-.06l1-.27h0c.06,0,.1,0,.11.06l1.62,4.63a.5.5,0,0,0,.11.18.65.65,0,0,0,.24.12c.09,0,.14.06.14.11v.15s0,.08-.12.08h-2c-.11,0-.16,0-.16-.08v-.15c0-.06.06-.1.19-.14s.23-.11.23-.19a.25.25,0,0,0,0-.08l-.25-.71H72.89l-.25.68a.25.25,0,0,0,0,.07c0,.07.09.14.27.22s.17.1.17.15v.15s-.06.08-.17.08H71.64c-.14,0-.21,0-.21-.08v-.18c0-.05,0-.09.13-.12a.47.47,0,0,0,.32-.29Zm.41,1.1-.62,1.75H74.3Z" style="fill: #231f20"/>
        <path d="M78.75,55.65V57.5c0,.12.07.21.22.27s.16.08.16.14v.15s0,.08-.16.08H77.11c-.09,0-.13,0-.13-.07v-.16s0-.1.15-.14.23-.15.23-.27v-4c0-.12-.08-.21-.23-.26s-.15-.09-.15-.14V52.9s0-.07.15-.07H78.7a4.69,4.69,0,0,1,2,.34,1.06,1.06,0,0,1,.69,1c0,.69-.55,1.13-1.66,1.33a2.78,2.78,0,0,1,.74.31,1.13,1.13,0,0,1,.39.51l.44,1.08a.82.82,0,0,0,.16.29,1,1,0,0,0,.27.13s0,0,0,.07v.19s0,.08-.13.08H80.48c-.12,0-.19,0-.22-.11l-.82-1.88a.78.78,0,0,0-.29-.4A.82.82,0,0,0,78.75,55.65Zm0-2.41v2a1.55,1.55,0,0,0,1-.23,1,1,0,0,0,.3-.82c0-.39-.1-.65-.31-.77A1.9,1.9,0,0,0,78.75,53.24Z" style="fill: #231f20"/>
        <path d="M85.15,55.77V57.5q0,.18.24.27c.09,0,.15.08.15.14v.15s-.06.08-.16.08H83.51c-.08,0-.13,0-.13-.07v-.16s.05-.1.16-.14.23-.15.23-.27V55.77l-1.2-2.31a.55.55,0,0,0-.36-.27c-.09,0-.14-.06-.14-.12V52.9s0-.07.12-.07h1.93c.11,0,.17,0,.17.09v.16s-.06.07-.17.1-.26.08-.26.15a.12.12,0,0,0,0,.08l.87,1.66.79-1.52a.35.35,0,0,0,0-.17c0-.08-.09-.15-.27-.19s-.15-.06-.15-.1V52.9s0-.07.14-.07h1.49c.11,0,.17,0,.17.07v.18q0,.08-.18.12a.67.67,0,0,0-.44.29Z" style="fill: #231f20"/>
      </g>
      <g>
        <path d="M7.78,36.6,7,36.67a.11.11,0,0,1-.12-.11l0-.37A.19.19,0,0,1,6.88,36l1.18-.72a.84.84,0,0,1,.3-.12l.45,0c.09,0,.13,0,.14.13l.75,8.56a1.2,1.2,0,0,0,.16.59.53.53,0,0,0,.44.17.16.16,0,0,1,.18.16l0,.39a.12.12,0,0,1-.11.15L8,45.48a.13.13,0,0,1-.16-.13l0-.34c0-.13.06-.21.2-.26a.6.6,0,0,0,.38-.25,1,1,0,0,0,.08-.58Z" style="fill: #231f20"/>
        <path d="M14.06,40.44a1.45,1.45,0,0,1-1.12.88,1.35,1.35,0,0,1-1.23-.68,4.47,4.47,0,0,1-.64-2.12,5.21,5.21,0,0,1,.35-2.64,1.69,1.69,0,0,1,1.39-1.11,1.75,1.75,0,0,1,1.62,1,8.19,8.19,0,0,1,.91,3.61A9.89,9.89,0,0,1,15,43.58a2.13,2.13,0,0,1-1.77,1.58,1.45,1.45,0,0,1-1-.26,1.13,1.13,0,0,1-.47-.84.88.88,0,0,1,.15-.59.65.65,0,0,1,.49-.29c.41,0,.64.2.69.7a.9.9,0,0,1-.05.36.5.5,0,0,0,0,.14c0,.08.09.12.23.11.35,0,.62-.33.79-.9a6.49,6.49,0,0,0,.13-2.31ZM14,39.63l-.09-1.09a10.9,10.9,0,0,0-.41-2.5c-.16-.42-.36-.61-.61-.59s-.4.21-.48.56a6.52,6.52,0,0,0,0,1.76l.1,1.11c.08.88.34,1.3.8,1.26A1,1,0,0,0,14,39.63Z" style="fill: #231f20"/>
        <path d="M17.56,34.35c.68-.06,1.25.34,1.68,1.19a10.68,10.68,0,0,1,.88,3.82,10.46,10.46,0,0,1-.21,3.92c-.29.89-.75,1.37-1.39,1.42s-1.15-.33-1.61-1.14A9.11,9.11,0,0,1,16,39.88a10.82,10.82,0,0,1,.22-4.09Q16.67,34.44,17.56,34.35Zm1,3.12c-.15-1.65-.46-2.46-.93-2.42-.28,0-.45.3-.5.82a11.61,11.61,0,0,0,0,1.93l.35,4c.14,1.53.44,2.27.91,2.23.25,0,.41-.24.49-.65a11.44,11.44,0,0,0,0-2.39Z" style="fill: #231f20"/>
        <path d="M20.77,34.29l2.14-.18a.51.51,0,0,0,.47-.36.19.19,0,0,1,.17-.16l.24,0c.05,0,.08,0,.08.07l.14,1.6-2.51.22.11,2.8a2.12,2.12,0,0,1,.88-.31,1.84,1.84,0,0,1,1.22.28,2.44,2.44,0,0,1,.83,1A4.4,4.4,0,0,1,25,40.82a4.21,4.21,0,0,1-.41,2.55,2,2,0,0,1-1.62,1A1.93,1.93,0,0,1,21.51,44a1.59,1.59,0,0,1-.61-1.16,1.12,1.12,0,0,1,.17-.72.67.67,0,0,1,.53-.36.57.57,0,0,1,.49.18.8.8,0,0,1,.24.54.73.73,0,0,1-.3.67c-.08.06-.11.11-.11.15s.1.17.27.28a1,1,0,0,0,.58.12.82.82,0,0,0,.76-.64,5.43,5.43,0,0,0,.07-1.86c-.14-1.6-.63-2.37-1.45-2.3a1.51,1.51,0,0,0-.9.43L21,39.11Z" style="fill: #231f20"/>
      </g>
      <path d="M95.76,48.93V36.28c.06-2.64-2.85-3.8-5.3-4.77-1.67-.66-3.39-1.34-3.39-2.26,0-4.76,22.65,5.6,33.29,3.88-1.25,2-8.71,13.53-3.31,16.56C110.61,51.22,102,50.47,95.76,48.93Z" style="fill: #fff"/>
      <g>
        <path d="M98.54,35.63l-.83-.06c-.07,0-.1,0-.1-.12l0-.38a.18.18,0,0,1,.11-.17L99,34.38a.74.74,0,0,1,.31-.08l.45,0q.13,0,.12.15l-.6,8.57a1.17,1.17,0,0,0,.07.61.52.52,0,0,0,.4.23.18.18,0,0,1,.16.19l0,.39c0,.09,0,.13-.13.13l-2.46-.17a.14.14,0,0,1-.14-.16l0-.35q0-.18.24-.21a.69.69,0,0,0,.41-.19A.94.94,0,0,0,98,43Z" style="fill: #231f20"/>
        <path d="M104.15,40.41a1.47,1.47,0,0,1-1.25.7,1.35,1.35,0,0,1-1.1-.87,4.27,4.27,0,0,1-.3-2.2,5.06,5.06,0,0,1,.75-2.55,1.7,1.7,0,0,1,1.55-.87,1.75,1.75,0,0,1,1.45,1.19,8.33,8.33,0,0,1,.33,3.71,9.74,9.74,0,0,1-1,4.14,2.15,2.15,0,0,1-2,1.29,1.5,1.5,0,0,1-1-.42,1.16,1.16,0,0,1-.34-.91.93.93,0,0,1,.25-.56.65.65,0,0,1,.52-.21c.42,0,.61.3.58.8a1.08,1.08,0,0,1-.1.35.24.24,0,0,0,0,.13c0,.09.06.14.2.15.36,0,.66-.23.92-.77a6.29,6.29,0,0,0,.49-2.26Zm0-.81.08-1.09a10.52,10.52,0,0,0,0-2.54c-.09-.43-.26-.66-.51-.67s-.42.14-.56.48a6.59,6.59,0,0,0-.29,1.73l-.07,1.11c-.07.88.13,1.34.59,1.37A1,1,0,0,0,104.2,39.6Z" style="fill: #231f20"/>
        <path d="M107,35.06l2.15.15a.47.47,0,0,0,.51-.28c0-.09.11-.14.2-.13l.24,0s.08,0,.07.08l-.11,1.61-2.52-.18-.33,2.78a2.18,2.18,0,0,1,.92-.17,1.85,1.85,0,0,1,1.17.47,2.46,2.46,0,0,1,.66,1.11,4.66,4.66,0,0,1,.15,1.64,4.21,4.21,0,0,1-.81,2.46,2,2,0,0,1-1.75.72,1.91,1.91,0,0,1-1.33-.57,1.53,1.53,0,0,1-.42-1.23,1.17,1.17,0,0,1,.27-.7.71.71,0,0,1,.58-.27.62.62,0,0,1,.46.26.77.77,0,0,1,.15.57.7.7,0,0,1-.4.61c-.08.05-.12.09-.13.13s.07.19.22.32a1,1,0,0,0,.55.22.84.84,0,0,0,.86-.52,5.41,5.41,0,0,0,.35-1.82c.12-1.61-.24-2.45-1.07-2.5a1.48,1.48,0,0,0-1,.28l-.24-.27Z" style="fill: #231f20"/>
        <path d="M111.73,35.39l2.15.15a.48.48,0,0,0,.51-.28.19.19,0,0,1,.19-.13l.25,0s.07,0,.07.08l-.12,1.61-2.52-.18-.33,2.78a2.2,2.2,0,0,1,.92-.17,1.82,1.82,0,0,1,1.17.47,2.46,2.46,0,0,1,.66,1.11,4.23,4.23,0,0,1,.15,1.64A4.22,4.22,0,0,1,114,45a2,2,0,0,1-1.76.72,1.93,1.93,0,0,1-1.33-.57,1.6,1.6,0,0,1-.42-1.23,1.18,1.18,0,0,1,.28-.7.68.68,0,0,1,.57-.27.61.61,0,0,1,.46.26.77.77,0,0,1,.15.57.7.7,0,0,1-.4.61c-.08,0-.12.09-.12.13s.07.19.22.32a.87.87,0,0,0,.55.21.81.81,0,0,0,.85-.51,5.36,5.36,0,0,0,.36-1.82c.11-1.61-.25-2.45-1.07-2.5a1.49,1.49,0,0,0-1,.28l-.24-.27Z" style="fill: #231f20"/>
      </g>
      <g>
        <path d="M60.16.63C60.5.5,68.63,6.13,74.9,16.84c1.7,2.9,3.42,8.67,4.31,12.18A15,15,0,0,1,79.87,34a.27.27,0,0,1-.12.16,11.24,11.24,0,0,1-1.41.75,40.64,40.64,0,0,1-18.27,4H60a40.64,40.64,0,0,1-18.27-4,11.24,11.24,0,0,1-1.41-.75.34.34,0,0,1-.12-.16A15,15,0,0,1,40.82,29c.9-3.51,2.61-9.28,4.31-12.18C51.4,6.13,59.51.57,59.87.63Z" style="fill: #fff;stroke: #231f20;stroke-miterlimit: 10;stroke-width: 1.2650000000000001px"/>
        <path d="M60.13,5.75c.27-.11,6.7,4.34,11.65,12.81,1.34,2.29,2.7,6.85,3.41,9.63a11.77,11.77,0,0,1,.52,3.9.22.22,0,0,1-.09.13,10.55,10.55,0,0,1-1.12.59A32,32,0,0,1,60.06,36H60a32,32,0,0,1-14.44-3.14,10.55,10.55,0,0,1-1.12-.59.22.22,0,0,1-.09-.13,11.77,11.77,0,0,1,.52-3.9c.71-2.78,2.07-7.34,3.41-9.63C53.2,10.09,59.61,5.7,59.9,5.75Z" style="fill: #231f20;stroke: #231f20;stroke-miterlimit: 10;stroke-width: 0.58315586173574px"/>
        <path d="M70.29,22.22c0-.09.14-.2.14-.3a3.49,3.49,0,0,0-.58-1.79c-.15-.23-.29-.3-.47-.12a2.17,2.17,0,0,1-1.3.4,3.1,3.1,0,0,0-1.15.3,5.85,5.85,0,0,0-2.79,3.94A6,6,0,0,0,64.3,27a10.68,10.68,0,0,0,.56,1.52,4.44,4.44,0,0,0,1.41,1.73A3.52,3.52,0,0,0,68,31a2.29,2.29,0,0,0,1.44-.13,6.62,6.62,0,0,0,1-.26,6.56,6.56,0,0,0,.81-.47,2.63,2.63,0,0,1,1.14-.28.32.32,0,0,0,.34-.38,3.63,3.63,0,0,0-.5-1.54c0-.07-.15-.15-.21-.14s-.15.12-.17.19c-.08.3-.11.61-.21.9a2,2,0,0,1-1.86,1.35,2.4,2.4,0,0,1-2.31-.77c-.29-.35-.72-.58-.86-1.07a5.28,5.28,0,0,0-.46-.88.66.66,0,0,1,.4-.93c.27-.05.54-.08.8-.15.53-.15,1-.38,1.58-.48.69-.12,1.42-.39,2.06.19a.35.35,0,0,0,.3,0,.68.68,0,0,0,.1-.41c-.06-.29-.17-.56-.24-.85s-.06-.67-.38-.94c-.07.09-.19.18-.2.28,0,.35-.38.48-.55.74a.33.33,0,0,1-.15.12A8.14,8.14,0,0,1,68,25.5a9.67,9.67,0,0,0-1.74.38c-.29.07-.65-.13-.65-.41a7.33,7.33,0,0,1,.21-2.72,2.66,2.66,0,0,1,1.05-1.29,3.36,3.36,0,0,1,.78-.32,1.43,1.43,0,0,1,1.5.19Z" style="fill: #fff"/>
        <path d="M58,18.32c-.06.15-.17.27-.17.4,0,.74-.07,1.48-.06,2.22a.78.78,0,0,0,.31.47c0,.05.22-.05.34-.05a2,2,0,0,1,.65,0,1.54,1.54,0,0,1,.22.14,2,2,0,0,0,.65.11,7.88,7.88,0,0,0,1.61,0,3.1,3.1,0,0,0,1.29-.5,2.64,2.64,0,0,0,1.22-1.5,3.68,3.68,0,0,0,.07-2.18,2.18,2.18,0,0,0-.28-.79,4.08,4.08,0,0,0-.87-.89,9,9,0,0,0-1.19-.73,6.1,6.1,0,0,0-1.38-.68,4.47,4.47,0,0,1-1.26-.73.91.91,0,0,1-.3-.42,2.91,2.91,0,0,1-.2-.86c0-.25.13-.41.27-.62a2.34,2.34,0,0,1,.25-.29l.12-.15a1.7,1.7,0,0,1,1.82-.66,1.6,1.6,0,0,1,1.25.94A3.55,3.55,0,0,1,62.92,13a.36.36,0,0,0,.2.22.28.28,0,0,0,.25-.1c.14-.45.49-.82.31-1.36a9.53,9.53,0,0,1-.29-1.41c0-.2-.12-.21-.3-.15a1.47,1.47,0,0,1-.66.13,9.26,9.26,0,0,1-1-.32,2.29,2.29,0,0,0-2,.12,6.44,6.44,0,0,0-1.53,1.55,2.24,2.24,0,0,0-.2,2.5,2.89,2.89,0,0,0,.2.53,1.72,1.72,0,0,0,.87.82c.57.34,1.16.64,1.74,1,.12.06.3.07.41.12a8.49,8.49,0,0,1,1.52,1,2,2,0,0,1-.94,3.56,2.11,2.11,0,0,1-1.88-.31c-.16-.13-.29-.3-.44-.44A2.59,2.59,0,0,1,58.45,19C58.4,18.71,58.39,18.42,58,18.32Z" style="fill: #fff"/>
        <circle cx="55.26" cy="15.8" r="0.85" style="fill: #fff"/>
        <circle cx="66.29" cy="15.8" r="0.85" style="fill: #fff"/>
        <circle cx="61.12" cy="26.52" r="0.85" style="fill: #fff"/>
        <g>
          <path d="M56.58,32.06a3.45,3.45,0,0,0-.32-.33.87.87,0,0,1-.15-.26,3.9,3.9,0,0,1-.2-1.48c.06-.54.1-1.08.11-1.61,0-.71,0-1.43,0-2.14a5.65,5.65,0,0,0-.11-.91c-.09-.56-.21-1.11-.28-1.67a6.42,6.42,0,0,0-.51-2c-.17-.37-.38-.43-.77-.16-.21.16-.4.36-.6.54s-.67.53-1,.83-.74.89-1.18,1.34a16.68,16.68,0,0,0-1.12,1.46c-.36.46-.64,1-1,1.46s-.53.69-.76,1.05a1.37,1.37,0,0,1-1,.78c-.11,0-.23.14-.3.24s0,.2.1.23c.58.29,1.17.57,1.77.82.1,0,.28-.1.42-.16-.05-.12-.07-.28-.16-.36a.7.7,0,0,1-.22-.73,5.73,5.73,0,0,1,1-1.75c.18-.25.36-.21.61-.1a12.3,12.3,0,0,0,1.16.41c.44.14.89.26,1.34.39a6.45,6.45,0,0,1,.62.21.82.82,0,0,1,.4.27,2.71,2.71,0,0,1,.13,1.88,1.08,1.08,0,0,1-1.06.86C53.85,31.81,55.5,32.29,56.58,32.06Z" style="fill: #fff"/>
          <path d="M55.23,26.23c0,.24,0,.55-.08.86a.33.33,0,0,1-.47.31c-.77-.24-1.54-.49-2.31-.72a.66.66,0,0,1-.41-.87,9.32,9.32,0,0,1,.66-.86c.37-.47.73-.95,1.11-1.41a3.45,3.45,0,0,1,.5-.51c.28-.23.48-.18.6.18a6.38,6.38,0,0,1,.24,1.07C55.14,24.9,55.18,25.53,55.23,26.23Z"/>
        </g>
      </g>
    </g>
  </g>
</svg>
