<svg xmlns="http://www.w3.org/2000/svg" viewBox="0 0 140.06 46.4">
  <title>logo_2005</title>
  <g id="Layer_2" data-name="Layer 2">
    <g id="Layer_1-2" data-name="Layer 1">
      <g>
        <path d="M21.28,14.13A16.25,16.25,0,0,0,15,10.91l-1.26-.48a1.5,1.5,0,0,1-1-1.84,2.29,2.29,0,0,1,2.45-1.73c2.56,0,3.69,2.2,3.51,4.23h7.81c.78-5-2.92-11.09-11-11.09C8.64,0,3.81,2.21,3,8.7a6.62,6.62,0,0,0,1.91,5.43" style="fill: #fff"/>
        <polyline points="69.93 7.99 71.42 0.95 51.51 0.95 48.52 14.13 68.5 14.13 69.15 11.21 57.47 11.21 58.3 7.99" style="fill: #fff"/>
        <path d="M46.9,21.59l-1.06-5.43H37.79l.25,2H34l.91-2H26.46l-2,4a8.76,8.76,0,0,0-1.36-4H7.45a28.8,28.8,0,0,0,4.23,2l.83.36c1.67.78,2.39,1.37,2.45,2.09.24,1.61-1.73,2.32-2.69,2.26C10.9,22.83,9,22.18,9.12,20H.05c-.41,4.18,1.49,11.39,11.51,11.39a16,16,0,0,0,8.22-2.06l-.59,1.16h9.06l2.76-6h7.82l.75,6H65.1l1.79-8.28H55l.78-3.7H67.54L68,16.16H48.11" style="fill: #fff"/>
      </g>
      <polyline points="37.21 11.09 37.55 14.13 45.42 14.13 42.92 1.01 34.04 1.01 27.48 14.13 35.83 14.13" style="fill: #fff"/>
      <polyline points="0.79 44.65 2.69 38.32 3.56 38.32 1.89 43.89 4.83 43.89 4.61 44.65" style="fill: #fff"/>
      <path d="M9.84,42c.23-.74.07-1.31-.73-1.31A1.7,1.7,0,0,0,7.61,42m-.17.57c-.3.78-.22,1.57.63,1.57a1.31,1.31,0,0,0,1.34-.89h.87a2.49,2.49,0,0,1-2.4,1.5c-1.41,0-1.67-1-1.28-2.3a3,3,0,0,1,2.75-2.36c1.3,0,1.68.86,1.31,2.07l-.12.41Z" style="fill: #fff"/>
      <path d="M14.28,42.51a1.46,1.46,0,0,0-1.44.85c-.16.54.14.81.63.81,1,0,1.42-.85,1.64-1.66m.18-.58c.22-.76.31-1.21-.57-1.21a1.08,1.08,0,0,0-1,.7h-.88a2,2,0,0,1,2.06-1.3c.9,0,1.71.27,1.34,1.49l-.63,2.11c-.06.19-.16.56-.24.93h-.56c-.08,0-.24,0-.22-.07s.08-.39.13-.59h0a2,2,0,0,1-1.61.79c-.76,0-1.41-.4-1.15-1.26a2.49,2.49,0,0,1,2.61-1.59Z" style="fill: #fff"/>
      <path d="M19.46,44.2c1,0,1.52-.94,1.77-1.76s.22-1.75-.72-1.75-1.52.92-1.77,1.75-.22,1.76.72,1.76m3-5.88h.83l-1.67,5.55c-.07.26-.13.52-.19.78h-.85l.18-.66v-.05h0a2.13,2.13,0,0,1-1.76.84c-1.31,0-1.47-1.2-1.13-2.33a3,3,0,0,1,2.67-2.33c.56,0,1.06.2,1.15.72h0Z" style="fill: #fff"/>
      <path d="M25.45,38.32h1l-.27.9h-1m-1.55,5.43L25,40.25h.83l-1.32,4.4Z" style="fill: #fff"/>
      <path d="M28.73,40.9h0a2.13,2.13,0,0,1,1.57-.78c.3,0,1.64.08,1.21,1.49l-.91,3h-.83l.83-2.77c.22-.73,0-1.12-.67-1.12a1.44,1.44,0,0,0-.9.32,1.91,1.91,0,0,0-.71,1.17l-.71,2.4h-.84l1.32-4.4h.82" style="fill: #fff"/>
      <path d="M34.86,44c.91,0,1.47-.77,1.73-1.62s.15-1.62-.75-1.62-1.52.93-1.72,1.62S33.89,44,34.86,44m2.38-3.71h.86a7.47,7.47,0,0,0-.29.79l-.93,3.09a2.76,2.76,0,0,1-3,2.27c-1,0-1.5-.41-1.2-1.42h.87c-.14.58.19.81.78.81,1.18,0,1.48-1,1.8-2h0a2.21,2.21,0,0,1-1.67.75c-1.34,0-1.59-1-1.22-2.18A2.94,2.94,0,0,1,36,40.12a1,1,0,0,1,1,.57s0,.28.07.22Z" style="fill: #fff"/>
      <path d="M45,44c1.6,0,2.34-1.22,2.73-2.54s.4-2.54-1.2-2.54-2.33,1.19-2.74,2.54S43.37,44,45,44m1.75-5.83c2,0,2.46,1.45,1.9,3.29a4.14,4.14,0,0,1-3.88,3.3c-2,0-2.45-1.45-1.9-3.3a4.16,4.16,0,0,1,3.88-3.29" style="fill: #fff"/>
      <g>
        <path d="M54,40.25h.84l-1.32,4.4h-.82l.2-.65h0a2.31,2.31,0,0,1-1.74.78c-.92,0-1.24-.7-1-1.59L51,40.25h.84l-.79,2.6c-.22.76-.22,1.32.58,1.32a1.47,1.47,0,0,0,1.17-.63,4.23,4.23,0,0,0,.48-1" style="fill: #fff"/>
        <path d="M56.68,44.65h-.83l1.32-4.4H58l-.26.85h0a1.73,1.73,0,0,1,1.56-.91h.29l-.24.78a1,1,0,0,0-.35,0c-1.06,0-1.41.6-1.69,1.52" style="fill: #fff"/>
      </g>
      <polyline points="63.46 38.32 64.33 38.32 64.19 43.52 64.21 43.52 67.27 38.32 68.35 38.32 68.2 43.57 68.21 43.57 71.2 38.32 72.07 38.32 68.3 44.65 67.33 44.65 67.5 39.24 67.48 39.24 64.3 44.65 63.35 44.65" style="fill: #fff"/>
      <g>
        <path d="M73.33,44.17c1,0,1.55-.79,1.83-1.72s.2-1.73-.79-1.73-1.55.79-1.83,1.73-.2,1.72.79,1.72M76,42.45a3,3,0,0,1-2.89,2.33c-1.44,0-1.9-1-1.49-2.33a3,3,0,0,1,2.89-2.33c1.44,0,1.9,1,1.49,2.33" style="fill: #fff"/>
        <path d="M78.25,44.65h-.83l1.32-4.4h.83l-.25.85h0a1.74,1.74,0,0,1,1.56-.91h.29l-.24.78a1,1,0,0,0-.34,0c-1.06,0-1.42.6-1.69,1.52" style="fill: #fff"/>
      </g>
      <polyline points="81.56 44.65 83.46 38.32 84.29 38.32 82.39 44.65" style="fill: #fff"/>
      <path d="M86.66,44.2c1,0,1.53-.94,1.77-1.76s.23-1.75-.72-1.75-1.52.92-1.76,1.75-.22,1.76.71,1.76m3-5.88h.83l-1.66,5.55c-.08.26-.13.52-.19.78h-.85L88,44v-.05h0a2.16,2.16,0,0,1-1.77.84c-1.3,0-1.46-1.2-1.12-2.33a3,3,0,0,1,2.67-2.33c.56,0,1.05.2,1.15.72h0Z" style="fill: #fff"/>
      <polyline points="93.99 44.65 95.89 38.32 96.77 38.32 94.87 44.65" style="fill: #fff"/>
      <path d="M99.12,40.9h0a2.1,2.1,0,0,1,1.56-.78c.31,0,1.64.08,1.22,1.49l-.91,3h-.84l.83-2.77c.22-.73,0-1.12-.67-1.12a1.46,1.46,0,0,0-.9.32,1.92,1.92,0,0,0-.7,1.17L98,44.65h-.83l1.32-4.4h.81" style="fill: #fff"/>
      <polyline points="113.96 38.95 113.94 38.95 110.21 44.65 109.39 44.65 109.07 38.95 109.06 38.95 107.35 44.65 106.47 44.65 108.37 38.32 109.94 38.32 110.2 43.53 110.21 43.53 113.56 38.32 115.03 38.32 113.13 44.65 112.25 44.65" style="fill: #fff"/>
      <path d="M117.5,44.17c1,0,1.55-.79,1.83-1.72s.2-1.73-.79-1.73-1.55.79-1.84,1.73-.19,1.72.8,1.72m2.71-1.72a3,3,0,0,1-2.89,2.33c-1.45,0-1.9-1-1.49-2.33a3,3,0,0,1,2.89-2.33c1.44,0,1.9,1,1.49,2.33" style="fill: #fff"/>
      <path d="M122.93,40.25l.28-.94.91-.26-.36,1.2,1,0-.19.62h-1l-.85,2.83c-.09.32.11.47.4.47a1.88,1.88,0,0,0,.46-.06l-.19.64c-.2,0-.4.06-.59.06a2.5,2.5,0,0,1-.55-.05.51.51,0,0,1-.4-.29c-.09-.21-.13-.22,0-.81l.84-2.79H122l.19-.62" style="fill: #fff"/>
      <path d="M127.06,38.32h1l-.27.9h-1m-1.55,5.43,1.32-4.4h.83l-1.32,4.4Z" style="fill: #fff"/>
      <path d="M130.44,44.17c1,0,1.55-.79,1.83-1.72s.19-1.73-.8-1.73-1.55.79-1.83,1.73-.19,1.72.8,1.72m2.7-1.72a3,3,0,0,1-2.88,2.33c-1.45,0-1.91-1-1.5-2.33a3,3,0,0,1,2.89-2.33c1.45,0,1.9,1,1.49,2.33" style="fill: #fff"/>
      <path d="M136.44,40.9h0a2.1,2.1,0,0,1,1.56-.78c.31,0,1.64.08,1.22,1.49l-.91,3h-.84l.83-2.77c.22-.73,0-1.12-.67-1.12a1.46,1.46,0,0,0-.9.32,1.92,1.92,0,0,0-.7,1.17l-.72,2.4h-.83l1.32-4.4h.81" style="fill: #fff"/>
      <path d="M124.78.45a15.25,15.25,0,0,0-12.86,7A15.28,15.28,0,0,0,85.33,9V1H73.57l-1.4,7H76v6.76l17.87-.29-2.77-.8,4.3.48-3.84-2,4.13,1.31-3.38-2.7,3.31,1.82-5-5.7,5.71,5L94.48,8.53l2.7,3.39L95.87,7.79l2,3.84-.48-4.3.8,2.77.77-9,.77,9,.8-2.77-.48,4.3,2-3.84-1.31,4.13,2.71-3.39-1.83,3.32,5.7-5-5,5.7,3.32-1.82-3.38,2.7,4.12-1.31-3.84,2,4.3-.48-2.77.8,33.33.77L104.08,16l2.77.8-4.3-.48,3.84,2L102.27,17l3.38,2.7-3.32-1.82,5,5.7-5.7-5,1.83,3.32-2.71-3.38L102,22.67l-2-3.84.48,4.3-.8-2.77L99,29.78l-.77-9.42-.8,2.77.48-4.3-2,3.84,1.31-4.12-2.7,3.38,1.83-3.32-5.71,5,5-5.7L92.26,19.7,95.64,17l-4.13,1.31,3.84-2-4.3.48,2.77-.8L76,15.71V30.48h9.38V22.41A15.27,15.27,0,0,0,111.92,24,15.27,15.27,0,1,0,124.78.45" style="fill: #fff"/>
    </g>
  </g>
</svg>
