<svg xmlns="http://www.w3.org/2000/svg" viewBox="0 0 171.79 76.92">
  <title>logo_87-91</title>
  <g id="Layer_2" data-name="Layer 2">
    <g id="Layer_1-2" data-name="Layer 1">
      <g>
        <path d="M48.58,32.26C42.59,27,35,25.18,34.15,24.91l-2.86-1.09C28.43,23,28.84,20,29,19.6c.54-2.17,2.31-4,5.58-4,5.85,0,8.44,5,8,9.67H60.42C62.19,13.88,53.75,0,35.24,0,19.72,0,8.7,5,6.93,19.87a15,15,0,0,0,4.35,12.39Z" style="fill: #fff"/>
        <polygon points="159.66 18.24 163.06 2.18 117.6 2.18 110.79 32.26 156.39 32.26 157.89 25.59 131.21 25.59 133.12 18.24 159.66 18.24" style="fill: #fff"/>
        <path d="M107.09,49.31l-2.42-12.42H86.29l.56,4.49H77.54l2.08-4.49H60.42L55.78,46a20.08,20.08,0,0,0-3.11-9.13H17a69.84,69.84,0,0,0,9.67,4.49l1.9.82C32.38,44,34,45.33,34.15,47c.54,3.68-3.95,5.31-6.12,5.18-3.13,0-7.49-1.5-7.22-6.54H.12c-.95,9.53,3.4,26,26.27,26a36.56,36.56,0,0,0,18.78-4.7l-1.35,2.66H64.51L70.8,56H88.67l1.7,13.61h58.26l4.09-18.92H125.63l1.77-8.44h26.81l1.09-5.31H109.84Z" style="fill: #fff"/>
        <polygon points="84.95 25.31 85.74 32.26 103.71 32.26 97.99 2.31 95.41 2.31 82.34 2.31 77.71 2.31 62.74 32.26 81.8 32.26 84.95 25.31" style="fill: #fff"/>
      </g>
      <path d="M157.84,69.26a6.21,6.21,0,1,1,6.23,6.39A6.18,6.18,0,0,1,157.84,69.26Zm6.23,7.66a7.64,7.64,0,1,0-7.77-7.66A7.63,7.63,0,0,0,164.07,76.92Zm-1.62-7H164l2.32,3.82h1.5l-2.51-3.88a2.29,2.29,0,0,0,2.28-2.43c0-1.74-1-2.51-3.11-2.51h-3.36v8.82h1.34Zm0-1.13V66h1.82c.93,0,1.92.2,1.92,1.29,0,1.36-1,1.44-2.14,1.44Z" style="fill: #fff"/>
    </g>
  </g>
</svg>
