<svg xmlns="http://www.w3.org/2000/svg" xmlns:xlink="http://www.w3.org/1999/xlink" viewBox="0 0 200 106.86">
  <defs>
    <clipPath id="clip-path">
      <rect x="21.99" y="12.1" width="69.6" height="69.45" style="fill: none"/>
    </clipPath>
  </defs>
  <title>logo_1980</title>
  <g id="Layer_2" data-name="Layer 2">
    <g id="Layer_1-2" data-name="Layer 1">
      <rect x="0.75" y="0.75" width="198.5" height="105.36" rx="18" style="fill: #fff;stroke: #231f20;stroke-miterlimit: 10;stroke-width: 1.5px"/>
      <g>
        <path d="M14.64,76.62,11.92,71.4l1.14-.6,2,3.9,2-1-1.79-3.42,1.08-.56,1.79,3.41,3.35-1.75.69,1.33Z" style="fill: #231f20"/>
        <path d="M11.13,69.5l-1.2-3.89a3.15,3.15,0,0,1,0-2.2,2.11,2.11,0,0,1,1.41-1.17,2.42,2.42,0,0,1,1-.13,2,2,0,0,1,.74.21,1.46,1.46,0,0,1,.47.34,2.85,2.85,0,0,1,.24.28h0a2,2,0,0,1,0-.43,1.32,1.32,0,0,1,.17-.48,1.7,1.7,0,0,1,.43-.47,2.56,2.56,0,0,1,.76-.37,8,8,0,0,0,1.27-.51,1.71,1.71,0,0,0,.73-.6l.48,1.53a1.45,1.45,0,0,1-.53.37,4.84,4.84,0,0,1-.6.22,5.42,5.42,0,0,0-.94.37,1.71,1.71,0,0,0-.6.46,1.1,1.1,0,0,0-.24.62,2.33,2.33,0,0,0,.13.84l.65,2.09,3.35-1L19.27,67Zm3.27-2.58-.73-2.34a1.55,1.55,0,0,0-.65-.93,1.28,1.28,0,0,0-1.08,0,1.53,1.53,0,0,0-.6.31,1,1,0,0,0-.28.43,1.24,1.24,0,0,0-.05.51,5.41,5.41,0,0,0,.12.55l.72,2.31Z" style="fill: #231f20"/>
        <path d="M8.66,60.58l-.72-6.09,1.28-.15L9.77,59,12,58.68l-.5-4.26,1.21-.15.5,4.27,2.48-.29-.56-4.7,1.28-.15.74,6.18Z" style="fill: #231f20"/>
        <path d="M7.91,52.28l.35-6.13,1.29.07-.27,4.64,2.23.13.25-4.29,1.21.07-.24,4.29,2.49.14.27-4.72,1.28.08-.35,6.2Z" style="fill: #231f20"/>
        <path d="M8.59,43.91l.86-3.43a4,4,0,0,1,.74-1.56A3,3,0,0,1,11.36,38a4,4,0,0,1,1.48-.33,6.35,6.35,0,0,1,3.22.81,4.09,4.09,0,0,1,1.15,1,3.17,3.17,0,0,1,.6,1.36,4,4,0,0,1-.09,1.73L16.86,46Zm7.45.33.36-1.42a3.77,3.77,0,0,0,.12-1.44,2.14,2.14,0,0,0-.41-1,2.34,2.34,0,0,0-.83-.65,6.11,6.11,0,0,0-1.14-.4A5.21,5.21,0,0,0,13,39.14a2.22,2.22,0,0,0-1,.18,2,2,0,0,0-.84.69,3.69,3.69,0,0,0-.57,1.32l-.36,1.43Z" style="fill: #231f20"/>
        <path d="M12.53,31.44A3.89,3.89,0,0,1,15,29.31a4.42,4.42,0,0,1,1.63-.11,5.33,5.33,0,0,1,1.67.49,5.17,5.17,0,0,1,1.44,1A4.15,4.15,0,0,1,20.69,32,3.61,3.61,0,0,1,21,33.61a4,4,0,0,1-.42,1.7,4.17,4.17,0,0,1-1.06,1.39,3.83,3.83,0,0,1-1.43.74,4.17,4.17,0,0,1-1.62.11,5.35,5.35,0,0,1-1.69-.5,5,5,0,0,1-1.42-1,4.15,4.15,0,0,1-.93-1.34,3.81,3.81,0,0,1,.1-3.27Zm1.1.52a2.29,2.29,0,0,0-.26,1.18,2.25,2.25,0,0,0,.31,1,3,3,0,0,0,.74.86,4.88,4.88,0,0,0,1,.66,5.27,5.27,0,0,0,1.14.38,3.4,3.4,0,0,0,1.14,0,2.35,2.35,0,0,0,1-.41,2.41,2.41,0,0,0,.76-.94,2.37,2.37,0,0,0,.26-1.18,2.21,2.21,0,0,0-.31-1,3.36,3.36,0,0,0-.74-.87,4.7,4.7,0,0,0-1-.65,4.81,4.81,0,0,0-1.14-.39,3.38,3.38,0,0,0-1.14,0,2.37,2.37,0,0,0-1,.4A2.46,2.46,0,0,0,13.63,32Z" style="fill: #231f20"/>
        <path d="M15.6,26l1.3-1.64,6.69,2.3,0,0L19.8,20.68l1.29-1.63,6.68,5.29-.88,1.12-5.16-4.09v0l3.69,5.94-.77,1L18,26.06l0,0,5.16,4.08-.88,1.12Z" style="fill: #231f20"/>
        <path d="M25.6,15l5.67-3.94L32,12.13l-2.22,1.54,4.13,5.94-1.23.85-4.13-5.93-2.21,1.54Z" style="fill: #231f20"/>
        <path d="M32.84,10.17l1.36-.62,1.4,3.09L39.14,11,37.74,8l1.35-.61,3.53,7.76-1.36.61-1.59-3.5-3.53,1.61,1.59,3.5-1.36.61Z" style="fill: #231f20"/>
        <path d="M41.59,6.5l4-.94a3.18,3.18,0,0,1,2.2.11,2.16,2.16,0,0,1,1.08,1.49,2.42,2.42,0,0,1,.05,1,2.09,2.09,0,0,1-.26.73,1.71,1.71,0,0,1-.37.45l-.3.22v0a1.33,1.33,0,0,1,.9.22,1.6,1.6,0,0,1,.43.46,2.35,2.35,0,0,1,.32.78A7,7,0,0,0,50,12.37a1.83,1.83,0,0,0,.54.77L49,13.51a1.47,1.47,0,0,1-.33-.55c-.07-.21-.13-.42-.18-.62a6.63,6.63,0,0,0-.3-1,1.69,1.69,0,0,0-.42-.62,1.05,1.05,0,0,0-.6-.28,2.16,2.16,0,0,0-.85.06L44.19,11,45,14.45l-1.45.34Zm2.34,3.43,2.39-.56a1.56,1.56,0,0,0,1-.58,1.34,1.34,0,0,0,.12-1.08,1.55,1.55,0,0,0-.27-.62,1,1,0,0,0-.41-.31,1.22,1.22,0,0,0-.51-.08,3.65,3.65,0,0,0-.55.08l-2.36.56Z" style="fill: #231f20"/>
        <path d="M54.28,4.29a4,4,0,0,1,1.72.3,3.73,3.73,0,0,1,1.31.93,4.1,4.1,0,0,1,.85,1.39,5.15,5.15,0,0,1,.34,1.71,5.23,5.23,0,0,1-.23,1.74,4.27,4.27,0,0,1-.76,1.45,4,4,0,0,1-1.25,1,4.06,4.06,0,0,1-1.71.4,4,4,0,0,1-1.72-.3A3.7,3.7,0,0,1,51.52,12a4.26,4.26,0,0,1-.85-1.39,5.16,5.16,0,0,1-.33-1.73,5.18,5.18,0,0,1,.22-1.72,4.29,4.29,0,0,1,.77-1.45,3.74,3.74,0,0,1,1.25-1A3.88,3.88,0,0,1,54.28,4.29Zm0,1.21a2.47,2.47,0,0,0-1.17.31,2.36,2.36,0,0,0-.78.76,3.42,3.42,0,0,0-.43,1.06A5,5,0,0,0,52,10a3.52,3.52,0,0,0,.5,1,2.35,2.35,0,0,0,.82.71,2.37,2.37,0,0,0,1.19.23,2.25,2.25,0,0,0,1.16-.31,2.27,2.27,0,0,0,.79-.75,3.41,3.41,0,0,0,.42-1.06A4.84,4.84,0,0,0,57,8.67a5.28,5.28,0,0,0-.19-1.19,3.38,3.38,0,0,0-.49-1,2.28,2.28,0,0,0-.83-.71A2.47,2.47,0,0,0,54.32,5.5Z" style="fill: #231f20"/>
        <path d="M60.47,4.57l1.46.26-.85,4.89c0,.28-.08.57-.11.87a2,2,0,0,0,.1.82,1.5,1.5,0,0,0,.49.67,2.22,2.22,0,0,0,1.07.42,2.39,2.39,0,0,0,1.15,0,1.49,1.49,0,0,0,.69-.47,2,2,0,0,0,.37-.74,8.64,8.64,0,0,0,.19-.85l.86-4.89,1.47.25-.94,5.38a3.76,3.76,0,0,1-.5,1.37,2.71,2.71,0,0,1-.87.88,3,3,0,0,1-1.19.42,5.12,5.12,0,0,1-1.45-.05A4.66,4.66,0,0,1,61,13.32a3,3,0,0,1-1-.79,2.79,2.79,0,0,1-.52-1.13,3.53,3.53,0,0,1,0-1.45Z" style="fill: #231f20"/>
        <path d="M73.62,17.12l-.89-.35.16-1a3.51,3.51,0,0,1-1.46.43,3.32,3.32,0,0,1-1.37-.26A4,4,0,0,1,68.6,15a3.63,3.63,0,0,1-.84-1.37A4.33,4.33,0,0,1,67.53,12a5.27,5.27,0,0,1,.38-1.71,5.17,5.17,0,0,1,.89-1.49,4.27,4.27,0,0,1,1.27-1,3.85,3.85,0,0,1,1.55-.43,4.09,4.09,0,0,1,1.72.3,4.54,4.54,0,0,1,1.16.66,3.33,3.33,0,0,1,.84.92,3.17,3.17,0,0,1,.42,1.15,3.34,3.34,0,0,1-.09,1.32l-1.36-.53a1.9,1.9,0,0,0,0-.78,2,2,0,0,0-.27-.68,2.13,2.13,0,0,0-.5-.54,2.86,2.86,0,0,0-.68-.39,2.61,2.61,0,0,0-1.2-.18,2.36,2.36,0,0,0-1,.39,3.61,3.61,0,0,0-.81.8,5.18,5.18,0,0,0-.58,1.06A4.84,4.84,0,0,0,69,12,3.32,3.32,0,0,0,69,13.13a2.25,2.25,0,0,0,.48,1,2.35,2.35,0,0,0,1,.69,2.54,2.54,0,0,0,1,.23,2,2,0,0,0,.86-.15,1.89,1.89,0,0,0,.7-.53,3,3,0,0,0,.52-.85l-2.11-.83.42-1.06L75.27,13Z" style="fill: #231f20"/>
        <path d="M78.93,10.36l1.25.81L78.33,14l3.25,2.12,1.85-2.84,1.25.82L80,21.25l-1.25-.82,2.09-3.22-3.25-2.12-2.1,3.23-1.25-.82Z" style="fill: #231f20"/>
        <path d="M89.84,18.53l1.33,1.63-3.67,6v0l6.62-2.45,1.31,1.61-6.59,5.39-.9-1.1L93,25.51l0,0-6.58,2.34-.78-1,3.59-6v0L84.15,25l-.9-1.1Z" style="fill: #231f20"/>
        <path d="M98.6,30.8A4,4,0,0,1,99,32.5a3.86,3.86,0,0,1-.29,1.58,4.4,4.4,0,0,1-.91,1.35,5.41,5.41,0,0,1-1.42,1,5.56,5.56,0,0,1-1.67.52,4.42,4.42,0,0,1-1.63-.09,3.76,3.76,0,0,1-1.44-.72,4.05,4.05,0,0,1-1.07-1.38,3.85,3.85,0,0,1-.45-1.69,3.67,3.67,0,0,1,.29-1.58,4.23,4.23,0,0,1,.91-1.35,5.25,5.25,0,0,1,1.42-1,5.48,5.48,0,0,1,1.67-.52,4.42,4.42,0,0,1,1.63.09,3.76,3.76,0,0,1,1.44.72A4,4,0,0,1,98.6,30.8Zm-1.09.55a2.32,2.32,0,0,0-.77-.93,2.25,2.25,0,0,0-1-.4,3.18,3.18,0,0,0-1.14.06,4.59,4.59,0,0,0-1.13.39,4.86,4.86,0,0,0-1,.67,3,3,0,0,0-.73.88,2.13,2.13,0,0,0-.3,1,2.3,2.3,0,0,0,.28,1.18,2.32,2.32,0,0,0,.77.93,2.25,2.25,0,0,0,1,.39,3.39,3.39,0,0,0,1.14-.05,4.68,4.68,0,0,0,1.14-.4,4.81,4.81,0,0,0,1-.66,3.53,3.53,0,0,0,.73-.88,2.37,2.37,0,0,0,.3-1A2.34,2.34,0,0,0,97.51,31.35Z" style="fill: #231f20"/>
        <path d="M101,36.67l1.08,4a3.08,3.08,0,0,1,0,1.91,1.9,1.9,0,0,1-1.36,1.08,2,2,0,0,1-1.15,0,2.16,2.16,0,0,1-.92-.69h0a1.86,1.86,0,0,1-.41,1.34,2.48,2.48,0,0,1-1.3.77,2.37,2.37,0,0,1-1,.07,1.82,1.82,0,0,1-.87-.35,2.93,2.93,0,0,1-.74-.81,4.84,4.84,0,0,1-.54-1.33l-1-3.78ZM94.28,40,95,42.55a1.52,1.52,0,0,0,.61.93,1.31,1.31,0,0,0,1.06.1,1.22,1.22,0,0,0,.84-.61,1.49,1.49,0,0,0,.06-1.11l-.68-2.55Zm3.61-1,.63,2.35a1.37,1.37,0,0,0,.53.79,1.08,1.08,0,0,0,.94.12,1.12,1.12,0,0,0,.79-.55,1.43,1.43,0,0,0,0-1l-.63-2.35Z" style="fill: #231f20"/>
        <path d="M103,45.67l.19,1.48-8.46,1-.19-1.48Z" style="fill: #231f20"/>
        <path d="M103.45,49.83v1.49l-7.23,0v4.33H94.91V49.8Z" style="fill: #231f20"/>
        <path d="M103.15,57.54,103,59l-8.45-1.09.19-1.48Z" style="fill: #231f20"/>
        <path d="M102.77,60.91,101,67.58l-1.25-.33.69-2.62-7-1.83.38-1.44,7,1.83.68-2.61Z" style="fill: #231f20"/>
        <path d="M94.73,69.16l6-.75L100.05,70l-4.41.46,2.55,3.61-.7,1.52-3.38-5-3-1.39.62-1.36Z" style="fill: #231f20"/>
      </g>
      <path d="M27,87.21l3.38-4.41-1.6-1.22L29.2,81a4.41,4.41,0,0,0,.64.42,2.13,2.13,0,0,0,.67.23,1.53,1.53,0,0,0,.67,0,1.64,1.64,0,0,0,.67-.4l.56.43L27.7,87.77Z" style="fill: #231f20"/>
      <path d="M39,88.49a5,5,0,0,1,.45-.78,4.06,4.06,0,0,1,.56-.67,2.21,2.21,0,0,1,.68-.46,2.24,2.24,0,0,1,.84-.15,2.81,2.81,0,0,1,1,.25,2.61,2.61,0,0,1,.88.56A2.13,2.13,0,0,1,44,88a2.23,2.23,0,0,1,.14.81,4.36,4.36,0,0,1-.09.87,6.5,6.5,0,0,1-.25.86c-.11.29-.22.57-.33.83s-.23.53-.37.8a5,5,0,0,1-.45.78,4,4,0,0,1-.55.67,2.37,2.37,0,0,1-.68.45,2.06,2.06,0,0,1-.84.15,2.91,2.91,0,0,1-1-.25,3,3,0,0,1-.88-.56,2.13,2.13,0,0,1-.48-.71,2.18,2.18,0,0,1-.15-.8,5.16,5.16,0,0,1,.1-.86,5.69,5.69,0,0,1,.25-.87c.1-.29.21-.56.32-.82S38.91,88.77,39,88.49Zm.18,2.09a4.2,4.2,0,0,0-.23,1,1.88,1.88,0,0,0,.12.92,1.24,1.24,0,0,0,.72.66,1.19,1.19,0,0,0,1,.06,1.83,1.83,0,0,0,.75-.55,4.05,4.05,0,0,0,.56-.87c.16-.32.3-.62.41-.89l.24-.58a5,5,0,0,0,.22-.65,5.43,5.43,0,0,0,.13-.68,1.88,1.88,0,0,0,0-.63,1.49,1.49,0,0,0-.27-.55,1.31,1.31,0,0,0-.55-.4,1.39,1.39,0,0,0-.67-.12,1.47,1.47,0,0,0-.58.19,1.68,1.68,0,0,0-.47.42,4.39,4.39,0,0,0-.4.56c-.12.2-.22.41-.32.62s-.17.4-.25.57S39.35,90.24,39.22,90.58Z" style="fill: #231f20"/>
      <path d="M48,89.71l-1.08,2,0,0a1.49,1.49,0,0,1,.74-.21,2.63,2.63,0,0,1,.8.12,2.82,2.82,0,0,1,.88.45,2.09,2.09,0,0,1,.6.72,2.23,2.23,0,0,1,.26,1A3.13,3.13,0,0,1,50,94.94a2.83,2.83,0,0,1-.45.86,2.37,2.37,0,0,1-.74.63,2.55,2.55,0,0,1-1,.29,3.21,3.21,0,0,1-1.19-.16,3,3,0,0,1-.86-.43,2.34,2.34,0,0,1-.61-.65,1.93,1.93,0,0,1-.3-.82,2.31,2.31,0,0,1,.09-1l.88.28a1.9,1.9,0,0,0,0,.58,1.54,1.54,0,0,0,.19.53,1.75,1.75,0,0,0,.39.43,2,2,0,0,0,1.21.38,1.39,1.39,0,0,0,.6-.17,1.77,1.77,0,0,0,.52-.44,2.43,2.43,0,0,0,.37-.72,1.78,1.78,0,0,0,.09-.71,1.68,1.68,0,0,0-.16-.64,1.61,1.61,0,0,0-.42-.52,1.87,1.87,0,0,0-.64-.34,1.52,1.52,0,0,0-.84-.06,2.26,2.26,0,0,0-.76.31l-.74-.28,1.91-3.61,3.64,1.17-.25.78Z" style="fill: #231f20"/>
      <path d="M66.2,96.56,64,91.44l-1.85.78-.29-.69a4,4,0,0,0,.68-.35,2,2,0,0,0,.54-.46,1.56,1.56,0,0,0,.29-.61,1.6,1.6,0,0,0,0-.78l.66-.27,3,7.14Z" style="fill: #231f20"/>
      <path d="M71.16,94.17a1.53,1.53,0,0,0,1-.14A1.4,1.4,0,0,0,73,92.8a4.88,4.88,0,0,0-.57-2.23h0a1.93,1.93,0,0,1-.33,1,2,2,0,0,1-.81.72,2.57,2.57,0,0,1-1,.28,2.14,2.14,0,0,1-.92-.13,2.25,2.25,0,0,1-.79-.53,3.59,3.59,0,0,1-.6-.88,2.83,2.83,0,0,1-.28-1,2.26,2.26,0,0,1,.12-.94,2.46,2.46,0,0,1,.5-.83,2.93,2.93,0,0,1,.84-.61,3.11,3.11,0,0,1,1-.3,2,2,0,0,1,1,.15,3,3,0,0,1,1,.77,6.51,6.51,0,0,1,1,1.54,6.26,6.26,0,0,1,.78,3,2.21,2.21,0,0,1-1.37,1.87,2.54,2.54,0,0,1-1.67.27,2,2,0,0,1-1.32-1l.84-.41A1.17,1.17,0,0,0,71.16,94.17Zm.07-5.42a1.71,1.71,0,0,0-.52-.37,1.44,1.44,0,0,0-.62-.13,1.66,1.66,0,0,0-.68.17,1.41,1.41,0,0,0-.81,1,2,2,0,0,0,0,.64,3.23,3.23,0,0,0,.23.66,1.7,1.7,0,0,0,.38.5,1.72,1.72,0,0,0,.51.33,1.52,1.52,0,0,0,.59.12,1.41,1.41,0,0,0,.62-.15,1.54,1.54,0,0,0,.53-.41,1.71,1.71,0,0,0,.29-.55,1.68,1.68,0,0,0,0-.63,1.88,1.88,0,0,0-.19-.64A2,2,0,0,0,71.23,88.75Z" style="fill: #231f20"/>
      <path d="M74.47,87.05a1.94,1.94,0,0,1,.1-.79,2.22,2.22,0,0,1,.41-.71,2.75,2.75,0,0,1,.65-.57,3.11,3.11,0,0,1,1-.44,2.22,2.22,0,0,1,.85,0,1.82,1.82,0,0,1,.69.32,2.33,2.33,0,0,1,.5.54,1.75,1.75,0,0,1,.26,1,1.83,1.83,0,0,1-.31,1,1.92,1.92,0,0,1,1.26,0,2.17,2.17,0,0,1,.94.85,2.54,2.54,0,0,1,.37,1,2.19,2.19,0,0,1-.07.92,2.46,2.46,0,0,1-.45.82,3.26,3.26,0,0,1-.76.66A3.73,3.73,0,0,1,79,92a2.33,2.33,0,0,1-.94.08,2,2,0,0,1-.86-.33,2.42,2.42,0,0,1-.73-.76,2.07,2.07,0,0,1-.34-1.2,2,2,0,0,1,.45-1.16,1.72,1.72,0,0,1-1-.12,1.77,1.77,0,0,1-.77-.66A1.91,1.91,0,0,1,74.47,87.05Zm1.54.73a1.08,1.08,0,0,0,.45.17,1.43,1.43,0,0,0,.5,0,1.81,1.81,0,0,0,.49-.23,1.31,1.31,0,0,0,.6-.76,1.17,1.17,0,0,0-.19-1,1.1,1.1,0,0,0-.78-.56,1.43,1.43,0,0,0-1,.25,2,2,0,0,0-.41.34,1.42,1.42,0,0,0-.24.43,1.05,1.05,0,0,0,0,.47,1,1,0,0,0,.18.49A1.28,1.28,0,0,0,76,87.78Zm2.26,3.42a1.72,1.72,0,0,0,1.21-.3,1.71,1.71,0,0,0,.48-.44,1.5,1.5,0,0,0,.26-.54,1.37,1.37,0,0,0,0-.57,1.54,1.54,0,0,0-.22-.57,1.57,1.57,0,0,0-.42-.43,1.38,1.38,0,0,0-.54-.21,1.73,1.73,0,0,0-.6,0,1.8,1.8,0,0,0-.58.23,2.56,2.56,0,0,0-.49.43,1.74,1.74,0,0,0-.28.54,1.41,1.41,0,0,0,0,.58,1.53,1.53,0,0,0,1.2,1.27Z" style="fill: #231f20"/>
      <path d="M81.81,85.12a7,7,0,0,1-.45-.79,4.22,4.22,0,0,1-.29-.82,2.07,2.07,0,0,1,0-.82,1.94,1.94,0,0,1,.29-.8,2.88,2.88,0,0,1,.73-.76,2.72,2.72,0,0,1,.93-.47,2,2,0,0,1,.86,0,2.26,2.26,0,0,1,.77.29,4.09,4.09,0,0,1,.69.51,5.64,5.64,0,0,1,.63.66l.54.7q.26.35.51.72a7,7,0,0,1,.45.79,4.9,4.9,0,0,1,.29.81,2.21,2.21,0,0,1,0,.81,1.89,1.89,0,0,1-.29.8,3,3,0,0,1-.73.76,2.91,2.91,0,0,1-.93.47,2,2,0,0,1-.86.06,2.32,2.32,0,0,1-.76-.28,4.88,4.88,0,0,1-.7-.52,6.4,6.4,0,0,1-.62-.65l-.54-.7Zm1.9.89a3.87,3.87,0,0,0,.74.72,2.08,2.08,0,0,0,.86.36,1.26,1.26,0,0,0,.93-.28,1.28,1.28,0,0,0,.55-.81,2,2,0,0,0-.1-.93,4,4,0,0,0-.46-.92q-.3-.45-.57-.81l-.37-.5c-.14-.18-.3-.35-.46-.52a4.32,4.32,0,0,0-.51-.45,1.8,1.8,0,0,0-.56-.3,1.4,1.4,0,0,0-.61,0,1.24,1.24,0,0,0-.62.27,1.44,1.44,0,0,0-.45.52,1.36,1.36,0,0,0-.12.59,1.8,1.8,0,0,0,.12.63,3.87,3.87,0,0,0,.29.62,5.8,5.8,0,0,0,.36.59l.37.5C83.27,85.48,83.48,85.74,83.71,86Z" style="fill: #231f20"/>
      <path d="M58,93.53V94.8H56.71V93.53Z" style="fill: #231f20"/>
      <path d="M106.77,7.83q.92,44.3-.9,88.57v.51" style="fill: none;stroke: #231f20;stroke-miterlimit: 10;stroke-width: 0.75px"/>
      <g>
        <path d="M123.63,56.34l9.77-29.63H126a14.78,14.78,0,0,0-6.57,1.14,6,6,0,0,0-2.54,3h-1l2.59-11.14h21.39L127.78,56.34Z" style="fill: #231f20"/>
        <path d="M144,19.7h16.81l-2.68,6.83H144l-1.35,3.57q9.12.34,14,4.56a10.91,10.91,0,0,1,4.05,8.63,13,13,0,0,1-7.17,11.34,16.52,16.52,0,0,1-7.49,1.71,11.76,11.76,0,0,1-6.75-1.64,3.28,3.28,0,0,1-1.65-2.65,3,3,0,0,1,2.86-2.89,5.71,5.71,0,0,1,2.1.43,22.19,22.19,0,0,1,3.62,2.22A13.22,13.22,0,0,0,149,53.35a5.18,5.18,0,0,0,1.86.31,4.93,4.93,0,0,0,3.69-1.58,5.34,5.34,0,0,0,1.52-3.82q0-4.65-4.66-7.57a21.82,21.82,0,0,0-11.75-2.91l-2.15,0Z" style="fill: #231f20"/>
        <path d="M118.26,72.62A3.55,3.55,0,0,1,116,73.71a1.3,1.3,0,0,1-1-.38,1.26,1.26,0,0,1-.38-1,1.89,1.89,0,0,1,.66-1.4,13.15,13.15,0,0,1,2.91-1.65v-.68a3.16,3.16,0,0,0-.08-1,.78.78,0,0,0-.31-.35,1,1,0,0,0-.53-.15,1.32,1.32,0,0,0-.77.21.37.37,0,0,0-.19.31.59.59,0,0,0,.2.37,1,1,0,0,1,.28.61.78.78,0,0,1-.27.6,1,1,0,0,1-.69.25,1.13,1.13,0,0,1-.77-.27.88.88,0,0,1-.31-.65,1.5,1.5,0,0,1,.42-1,2.65,2.65,0,0,1,1.15-.73,4.73,4.73,0,0,1,1.54-.25,2.59,2.59,0,0,1,1.53.41,1.93,1.93,0,0,1,.73.89,5.65,5.65,0,0,1,.1,1.4V72a2.36,2.36,0,0,0,0,.59.39.39,0,0,0,.1.18.26.26,0,0,0,.17,0,.51.51,0,0,0,.39-.26l.21.17a2.56,2.56,0,0,1-.75.78,1.64,1.64,0,0,1-.88.24,1.39,1.39,0,0,1-.91-.27A1.26,1.26,0,0,1,118.26,72.62Zm0-.53V69.82a4.18,4.18,0,0,0-1.3,1.1,1.34,1.34,0,0,0-.28.79.83.83,0,0,0,.23.59.67.67,0,0,0,.51.19A1.39,1.39,0,0,0,118.26,72.09Z" style="fill: #231f20"/>
        <path d="M124.73,66.83v.88a3.72,3.72,0,0,1,1-.82,2.16,2.16,0,0,1,1-.26,1.6,1.6,0,0,1,1.09.37,1.67,1.67,0,0,1,.58.91,6.74,6.74,0,0,1,.12,1.59v2.64a2.12,2.12,0,0,0,.14,1,.86.86,0,0,0,.59.24v.26h-3.43v-.26a.69.69,0,0,0,.55-.32,2,2,0,0,0,.12-.9v-3a4.34,4.34,0,0,0-.07-1.05.58.58,0,0,0-.22-.34.54.54,0,0,0-.34-.12c-.42,0-.81.3-1.16.89v3.64a1.91,1.91,0,0,0,.14,1,.69.69,0,0,0,.52.26v.26H122v-.26a.82.82,0,0,0,.61-.28,2.06,2.06,0,0,0,.12-.94V68.31a1.86,1.86,0,0,0-.14-1,.84.84,0,0,0-.59-.25v-.27Z" style="fill: #231f20"/>
        <path d="M133,66.83v.88a4.06,4.06,0,0,1,1-.82,2.2,2.2,0,0,1,1-.26,1.6,1.6,0,0,1,1.09.37,1.67,1.67,0,0,1,.58.91,6.74,6.74,0,0,1,.12,1.59v2.64a2.12,2.12,0,0,0,.14,1,.84.84,0,0,0,.59.24v.26h-3.43v-.26a.71.71,0,0,0,.55-.32,2,2,0,0,0,.12-.9v-3a5,5,0,0,0-.07-1.05.63.63,0,0,0-.22-.34.57.57,0,0,0-.35-.12c-.41,0-.8.3-1.16.89v3.64a2,2,0,0,0,.14,1,.71.71,0,0,0,.53.26v.26h-3.43v-.26a.84.84,0,0,0,.61-.28,2.06,2.06,0,0,0,.12-.94V68.31a2,2,0,0,0-.14-1,.84.84,0,0,0-.59-.25v-.27Z" style="fill: #231f20"/>
        <path d="M141.14,66.83v5.38a1.54,1.54,0,0,0,.17.92.9.9,0,0,0,.65.23v.26h-3.67v-.26a.92.92,0,0,0,.67-.26,1.59,1.59,0,0,0,.15-.89v-4a1.62,1.62,0,0,0-.17-.92.92.92,0,0,0-.65-.23v-.27Zm-1-3.29a1.08,1.08,0,0,1,.8.33,1.09,1.09,0,0,1,.33.8,1.07,1.07,0,0,1-.33.79,1.09,1.09,0,0,1-.8.33A1.13,1.13,0,0,1,139,64.67a1.09,1.09,0,0,1,.33-.8A1.07,1.07,0,0,1,140.12,63.54Z" style="fill: #231f20"/>
        <path d="M145.68,73.82l-2.29-5.26a5.24,5.24,0,0,0-.64-1.2.89.89,0,0,0-.49-.26v-.27h3.6v.27a.67.67,0,0,0-.46.12.51.51,0,0,0-.18.38,3.31,3.31,0,0,0,.32,1l1.12,2.55.9-2.2a4.35,4.35,0,0,0,.38-1.34.44.44,0,0,0-.16-.36.91.91,0,0,0-.58-.16v-.27h2.22v.27a.9.9,0,0,0-.52.24,4.36,4.36,0,0,0-.61,1.15L146,73.82Z" style="fill: #231f20"/>
        <path d="M155.8,70h-3.72a3.49,3.49,0,0,0,.72,2.14,1.5,1.5,0,0,0,1.2.6,1.36,1.36,0,0,0,.79-.24,3.17,3.17,0,0,0,.76-.88l.25.16a4.17,4.17,0,0,1-1.22,1.6,2.62,2.62,0,0,1-1.54.46,2.57,2.57,0,0,1-2.29-1.16,4.06,4.06,0,0,1-.63-2.32,3.9,3.9,0,0,1,.92-2.71,2.82,2.82,0,0,1,2.15-1,2.3,2.3,0,0,1,1.79.85A3.81,3.81,0,0,1,155.8,70ZM154,69.5a7,7,0,0,0-.13-1.61,1.35,1.35,0,0,0-.4-.66.62.62,0,0,0-.4-.13.7.7,0,0,0-.62.37,3.13,3.13,0,0,0-.43,1.77v.26Z" style="fill: #231f20"/>
        <path d="M159.47,66.83v1.54a5,5,0,0,1,1.18-1.4,1.76,1.76,0,0,1,1-.34.85.85,0,0,1,.65.25,1,1,0,0,1,.24.71,1.14,1.14,0,0,1-.23.75.74.74,0,0,1-.57.27,1,1,0,0,1-.67-.25l-.33-.27a.34.34,0,0,0-.17,0,.66.66,0,0,0-.4.16,1.5,1.5,0,0,0-.45.71,4.8,4.8,0,0,0-.23,1.55v2a1.85,1.85,0,0,0,.05.53.62.62,0,0,0,.26.29,1.69,1.69,0,0,0,.58.11v.26h-3.67v-.26a.84.84,0,0,0,.6-.24,2.21,2.21,0,0,0,.16-1.1V68.27a2.73,2.73,0,0,0-.06-.74.58.58,0,0,0-.21-.3,1.23,1.23,0,0,0-.49-.13v-.27Z" style="fill: #231f20"/>
        <path d="M167.54,66.64l.11,2.32h-.25a3.63,3.63,0,0,0-.92-1.41,1.52,1.52,0,0,0-.95-.38.72.72,0,0,0-.5.2.63.63,0,0,0-.21.46.58.58,0,0,0,.14.38,7.08,7.08,0,0,0,1.3,1,5.41,5.41,0,0,1,1.41,1.23,2,2,0,0,1,.33,1.13,2.4,2.4,0,0,1-.28,1.11,1.94,1.94,0,0,1-.8.83,2.2,2.2,0,0,1-1.14.29,4,4,0,0,1-1.3-.3.82.82,0,0,0-.3-.08q-.24,0-.39.36h-.24l-.12-2.44h.25a3.09,3.09,0,0,0,.89,1.44,1.72,1.72,0,0,0,1.08.48.77.77,0,0,0,.57-.22.67.67,0,0,0,.22-.51.92.92,0,0,0-.21-.61,6.06,6.06,0,0,0-1-.77A7.72,7.72,0,0,1,163.81,70a2.11,2.11,0,0,1-.47-1.32,2.16,2.16,0,0,1,.54-1.42,1.94,1.94,0,0,1,1.56-.63,2.3,2.3,0,0,1,1.07.27.71.71,0,0,0,.32.11A.37.37,0,0,0,167,67a1.19,1.19,0,0,0,.25-.31Z" style="fill: #231f20"/>
        <path d="M172.78,72.62a3.57,3.57,0,0,1-2.23,1.09,1.32,1.32,0,0,1-1.35-1.33,1.87,1.87,0,0,1,.67-1.4,12.66,12.66,0,0,1,2.91-1.65v-.68a3.54,3.54,0,0,0-.08-1,.81.81,0,0,0-.32-.35.93.93,0,0,0-.52-.15,1.33,1.33,0,0,0-.78.21.39.39,0,0,0-.19.31.62.62,0,0,0,.21.37,1,1,0,0,1,.27.61.81.81,0,0,1-.26.6,1,1,0,0,1-.7.25,1.1,1.1,0,0,1-.76-.27.84.84,0,0,1-.31-.65,1.54,1.54,0,0,1,.41-1,2.69,2.69,0,0,1,1.16-.73,4.65,4.65,0,0,1,1.54-.25A2.54,2.54,0,0,1,174,67a1.87,1.87,0,0,1,.73.89,5.47,5.47,0,0,1,.11,1.4V72a3.37,3.37,0,0,0,0,.59.4.4,0,0,0,.11.18.25.25,0,0,0,.17,0,.51.51,0,0,0,.38-.26l.22.17a2.56,2.56,0,0,1-.75.78,1.64,1.64,0,0,1-.88.24,1.39,1.39,0,0,1-.91-.27A1.21,1.21,0,0,1,172.78,72.62Zm0-.53V69.82a4.23,4.23,0,0,0-1.31,1.1,1.34,1.34,0,0,0-.28.79.84.84,0,0,0,.24.59.66.66,0,0,0,.51.19A1.39,1.39,0,0,0,172.78,72.09Z" style="fill: #231f20"/>
        <path d="M179.28,66.83v1.54a5,5,0,0,1,1.19-1.4,1.73,1.73,0,0,1,1-.34.87.87,0,0,1,.65.25,1,1,0,0,1,.24.71,1.09,1.09,0,0,1-.24.75.71.71,0,0,1-.57.27,1,1,0,0,1-.66-.25,3.37,3.37,0,0,0-.34-.27.3.3,0,0,0-.16,0,.64.64,0,0,0-.4.16,1.5,1.5,0,0,0-.45.71,4.8,4.8,0,0,0-.24,1.55v2a1.85,1.85,0,0,0,.05.53.62.62,0,0,0,.26.29,1.63,1.63,0,0,0,.58.11v.26h-3.67v-.26a.84.84,0,0,0,.6-.24,2.34,2.34,0,0,0,.16-1.1V68.27a2.73,2.73,0,0,0-.06-.74.58.58,0,0,0-.21-.3,1.34,1.34,0,0,0-.49-.13v-.27Z" style="fill: #231f20"/>
        <path d="M186.18,73.9l-2.19-5a6.72,6.72,0,0,0-.73-1.41,1.32,1.32,0,0,0-.57-.36v-.27h3.61v.27a.83.83,0,0,0-.5.14.37.37,0,0,0-.15.3,3.65,3.65,0,0,0,.36,1.09l1.16,2.65.8-2a5.19,5.19,0,0,0,.42-1.53.56.56,0,0,0-.17-.42,1,1,0,0,0-.63-.18v-.27h2.27v.27a.86.86,0,0,0-.54.26,6.41,6.41,0,0,0-.71,1.51l-1.94,5a11.1,11.1,0,0,1-1.09,2.32,1.57,1.57,0,0,1-1.25.61,1.4,1.4,0,0,1-1-.35,1.07,1.07,0,0,1-.37-.83.93.93,0,0,1,.26-.69.86.86,0,0,1,1.22,0,1.07,1.07,0,0,1,.22.72.82.82,0,0,0,.07.36.2.2,0,0,0,.17.08.55.55,0,0,0,.37-.21,4.67,4.67,0,0,0,.68-1.4Z" style="fill: #231f20"/>
      </g>
      <g>
        <path d="M168.94,33.5v5.84h3.79V41h-3.79v9.86a7.71,7.71,0,0,0,.13,1.78,1.32,1.32,0,0,0,.45.65,1,1,0,0,0,.6.25c.74,0,1.44-.56,2.1-1.69l.51.38c-.92,2.18-2.41,3.27-4.49,3.27a4,4,0,0,1-2.57-.84,3.68,3.68,0,0,1-1.34-1.89,16.37,16.37,0,0,1-.17-3.14V41h-2.08v-.59a22.43,22.43,0,0,0,3.66-3.2,19,19,0,0,0,2.64-3.74Z" style="fill: #231f20"/>
        <path d="M179.91,32.15v9.24a9.76,9.76,0,0,1,2.4-2,4.88,4.88,0,0,1,2.28-.57,4,4,0,0,1,2.57.85,4,4,0,0,1,1.41,2,14.6,14.6,0,0,1,.35,3.88v6.24a4.55,4.55,0,0,0,.35,2.28,1.94,1.94,0,0,0,1.38.57v.61h-8.1V54.7a1.85,1.85,0,0,0,1.28-.68,4.58,4.58,0,0,0,.31-2.17V44.72a11.8,11.8,0,0,0-.15-2.48,1.53,1.53,0,0,0-.52-.79,1.32,1.32,0,0,0-.83-.28,2.25,2.25,0,0,0-1.33.47,5.83,5.83,0,0,0-1.4,1.65v8.56a5.27,5.27,0,0,0,.25,2.13,1.66,1.66,0,0,0,1.33.72v.61H173.4V54.7a2,2,0,0,0,1.43-.65,4.65,4.65,0,0,0,.29-2.2V35.62a4.57,4.57,0,0,0-.33-2.25,2.05,2.05,0,0,0-1.39-.59v-.63Z" style="fill: #231f20"/>
      </g>
      <path d="M32.08,89.38a1.5,1.5,0,0,0,.71.72,1.37,1.37,0,0,0,1.47,0,4.89,4.89,0,0,0,1.48-1.78v0a2,2,0,0,1-2.09.11,2.57,2.57,0,0,1-.84-.66,2.2,2.2,0,0,1-.43-.83,2.16,2.16,0,0,1,0-1,3.74,3.74,0,0,1,.35-1,2.76,2.76,0,0,1,.65-.81,2.2,2.2,0,0,1,.83-.46,2.38,2.38,0,0,1,1-.08,2.72,2.72,0,0,1,1,.32,3,3,0,0,1,.82.63,1.85,1.85,0,0,1,.47.91,2.88,2.88,0,0,1,0,1.27,6.7,6.7,0,0,1-.66,1.71,6,6,0,0,1-2,2.42,2.16,2.16,0,0,1-2.31,0,2.56,2.56,0,0,1-1.2-1.19A2,2,0,0,1,31.26,88l.82.43A1.22,1.22,0,0,0,32.08,89.38Zm4.43-3.13a1.53,1.53,0,0,0,0-.64,1.57,1.57,0,0,0-.25-.58,1.47,1.47,0,0,0-.55-.45,1.44,1.44,0,0,0-.69-.19,1.27,1.27,0,0,0-.61.14,1.54,1.54,0,0,0-.5.39,2.91,2.91,0,0,0-.4.57,1.83,1.83,0,0,0-.19.6,1.78,1.78,0,0,0,0,.61,1.61,1.61,0,0,0,.25.55,1.49,1.49,0,0,0,.48.41,1.59,1.59,0,0,0,.65.18,1.4,1.4,0,0,0,.61-.09,1.51,1.51,0,0,0,.54-.33,1.9,1.9,0,0,0,.4-.53A2,2,0,0,0,36.51,86.25Z" style="fill: #231f20"/>
      <path d="M56,19c.54-.21,13.4,8.68,23.3,25.62C82,49.17,84.7,58.29,86.12,63.85c1.35,5.29,1,7.8,1,7.8a.43.43,0,0,1-.18.25,20.44,20.44,0,0,1-2.24,1.19,64.11,64.11,0,0,1-28.88,6.28h-.18A64.06,64.06,0,0,1,26.8,73.09a22.12,22.12,0,0,1-2.25-1.19.43.43,0,0,1-.18-.25s-.31-2.51,1-7.8c1.42-5.56,4.14-14.68,6.82-19.27C42.14,27.64,55,18.86,55.54,19Z" style="fill: #231f20;stroke: #231f20;stroke-miterlimit: 10;stroke-width: 1.16631172347148px"/>
      <g>
        <path d="M48.9,71.58a5.83,5.83,0,0,0-.66-.66A1.47,1.47,0,0,1,48,70.4a7.59,7.59,0,0,1-.4-3c.1-1.07.19-2.15.22-3.22,0-1.42,0-2.85,0-4.27a13.93,13.93,0,0,0-.23-1.82c-.18-1.12-.42-2.23-.55-3.35a13.15,13.15,0,0,0-1-4c-.34-.74-.78-.87-1.54-.32-.43.32-.81.72-1.21,1.07-.64.56-1.33,1.06-1.91,1.67-.83.86-1.49,1.78-2.37,2.68a33.36,33.36,0,0,0-2.24,2.92c-.73.91-1.29,2-2,2.92-.48.72-1,1.38-1.52,2.1a2.69,2.69,0,0,1-2.07,1.55c-.22,0-.45.28-.6.49s.08.39.2.45c1.17.58,2.34,1.14,3.54,1.64.21.08.56-.2.84-.32a2.24,2.24,0,0,0-.31-.72,1.37,1.37,0,0,1-.44-1.45A11.21,11.21,0,0,1,36.29,62c.35-.5.73-.43,1.23-.21.74.32,1.53.58,2.3.83s1.8.52,2.69.78a11.82,11.82,0,0,1,1.23.41,1.65,1.65,0,0,1,.81.55,5.4,5.4,0,0,1,.27,3.75,2.18,2.18,0,0,1-2.12,1.73C43.42,71.08,46.73,72.05,48.9,71.58Z" style="fill: #fff"/>
        <path d="M46.2,59.92c-.05.48-.12,1.11-.18,1.73a.66.66,0,0,1-.93.62c-1.54-.49-3.08-1-4.62-1.44a1.32,1.32,0,0,1-.82-1.75A19.75,19.75,0,0,1,41,57.36c.73-.94,1.46-1.89,2.21-2.82a6.37,6.37,0,0,1,1-1c.57-.46,1-.36,1.19.35A10.38,10.38,0,0,1,45.87,56C46,57.26,46.08,58.52,46.2,59.92Z"/>
      </g>
      <path d="M76.31,51.9c.08-.17.29-.39.27-.59a7,7,0,0,0-1.14-3.58c-.31-.47-.59-.6-1-.25a4.25,4.25,0,0,1-2.59.8,6.26,6.26,0,0,0-2.31.6,11.45,11.45,0,0,0-3.93,3.78A11,11,0,0,0,64,56.77a12,12,0,0,0,.32,4.63,22.17,22.17,0,0,0,1.12,3,8.82,8.82,0,0,0,2.83,3.46,6.89,6.89,0,0,0,3.49,1.48,4.49,4.49,0,0,0,2.88-.26,14.19,14.19,0,0,0,1.94-.51,14,14,0,0,0,1.62-1,5.14,5.14,0,0,1,2.28-.55.65.65,0,0,0,.68-.77,7.26,7.26,0,0,0-1-3.08.56.56,0,0,0-.43-.27c-.14,0-.3.23-.34.38-.16.59-.22,1.21-.41,1.78a4.07,4.07,0,0,1-3.73,2.72,4.83,4.83,0,0,1-4.62-1.54c-.59-.7-1.43-1.16-1.73-2.15A9.8,9.8,0,0,0,68,62.42a1.32,1.32,0,0,1,.81-1.85c.53-.1,1.08-.16,1.6-.31,1.06-.3,2.09-.75,3.16-.95,1.38-.25,2.83-.79,4.11.37a.64.64,0,0,0,.6,0,1.36,1.36,0,0,0,.2-.82c-.11-.58-.33-1.12-.48-1.69s-.11-1.35-.75-1.89c-.16.19-.39.36-.42.56-.09.71-.75,1-1.1,1.48a.61.61,0,0,1-.3.25,16.35,16.35,0,0,1-3.65.88,19.33,19.33,0,0,0-3.48.76c-.57.14-1.31-.26-1.29-.82,0-1.82-.32-3.68.4-5.44a5.47,5.47,0,0,1,2.11-2.59,7.55,7.55,0,0,1,1.55-.64,2.91,2.91,0,0,1,3,.38C74.78,50.68,75.48,51.23,76.31,51.9Z" style="fill: #fff"/>
      <path d="M51.78,44.1a2.71,2.71,0,0,0-.35.8c-.08,1.48-.15,3-.12,4.45,0,.32.35.69.62.94.1.1.45-.11.68-.11a4.55,4.55,0,0,1,1.29.08,4.36,4.36,0,0,1,.45.28,3.52,3.52,0,0,0,1.3.22,15.07,15.07,0,0,0,3.22,0,6.4,6.4,0,0,0,2.58-1,5.37,5.37,0,0,0,2.45-3A7.44,7.44,0,0,0,64,42.4a4.5,4.5,0,0,0-.56-1.58A8.68,8.68,0,0,0,61.73,39a17.37,17.37,0,0,0-2.38-1.45,11.86,11.86,0,0,0-2.77-1.36,8.82,8.82,0,0,1-2.51-1.47,1.7,1.7,0,0,1-.59-.84,6,6,0,0,1-.42-1.71A2.11,2.11,0,0,1,53.61,31c.11-.17.26-.3.49-.58l.25-.29A3.43,3.43,0,0,1,58,28.76a3.19,3.19,0,0,1,2.49,1.88,7.32,7.32,0,0,1,1.09,2.88c0,.16.23.39.4.45a.57.57,0,0,0,.5-.21c.26-.89,1-1.64.6-2.72a20.27,20.27,0,0,1-.57-2.81c-.07-.4-.25-.43-.61-.3a2.82,2.82,0,0,1-1.32.25,17.53,17.53,0,0,1-2-.63,4.62,4.62,0,0,0-3.94.22,13.14,13.14,0,0,0-3.06,3.12,4.5,4.5,0,0,0-.4,5,4.69,4.69,0,0,0,.41,1,3.38,3.38,0,0,0,1.72,1.65c1.15.67,2.34,1.27,3.5,1.91.23.12.59.14.81.24a15.86,15.86,0,0,1,3,2,4,4,0,0,1-1.88,7.11A4.16,4.16,0,0,1,55,49.24c-.32-.26-.58-.59-.88-.88a5.15,5.15,0,0,1-1.48-2.94C52.54,44.89,52.52,44.31,51.78,44.1Z" style="fill: #fff"/>
      <circle cx="46.25" cy="39.07" r="1.71" style="fill: #fff"/>
      <circle cx="68.31" cy="39.07" r="1.71" style="fill: #fff"/>
      <circle cx="57.98" cy="60.51" r="1.71" style="fill: #fff"/>
    </g>
  </g>
</svg>
