<svg xmlns="http://www.w3.org/2000/svg" viewBox="0 0 745.73 88.5">
  <title>logo_03-13</title>
  <g id="Layer_2" data-name="Layer 2">
    <g id="Layer_1-2" data-name="Layer 1">
      <path d="M204,10.61h7L194.47,86.19h-7.05Z" style="fill: #fff"/>
      <path d="M216.35,50.74c.8-3.62,2-11.31,2.51-13.87h6.41c-.7,3.63-1.48,7.68-1.47,8.64h.32a23.85,23.85,0,0,1,19-9.92c15.37,0,16.5,10.46,14.13,21.24l-6.43,29.36h-6.41l6.37-29c1.75-8,1.22-15.8-8.92-15.8-9.5,0-18.54,6.62-21.51,20.18L215,86.19h-6.4Z" style="fill: #fff"/>
      <path d="M295.21,42.63h-14.1l-7,32.14c-1,4.38,1,6.94,5.31,6.94A22,22,0,0,0,287,80l-.73,5.76a31.85,31.85,0,0,1-8.7,1.71c-9.19,0-11.47-5.66-9.92-12.7l7-32.14H264l1.26-5.76H276l3.11-14.2h6.41l-3.12,14.2h14.09Z" style="fill: #fff"/>
      <path d="M300.63,57.37c.56-2.57,7.46-16,21.44-16,9.5,0,15.49,7.26,13.57,16ZM332.44,73A25.33,25.33,0,0,1,314,81.71c-14.94,0-15.78-13.24-14.61-18.58h41.43l1-4.48c2.51-11.43-2.95-23.06-18.11-23.06-14.42,0-27.1,11.1-30.33,25.83-3.35,15.27,4.22,26.05,19.28,26.05A30.54,30.54,0,0,0,336.27,76.9Z" style="fill: #fff"/>
      <path d="M354.64,50.74c.8-3.62,1.95-11.31,2.51-13.87h6.4c-.69,3.63-1.47,7.68-1.47,8.64,4.47-5.76,10.51-9.92,17.87-9.92a11,11,0,0,1,3.25.45l-2.87,6.07a3.84,3.84,0,0,0-1.24-.12c-11.11,0-17.82,7.69-19.92,17.3l-5.9,26.9h-6.4Z" style="fill: #fff"/>
      <path d="M388.63,50.74c.8-3.62,1.95-11.31,2.51-13.87h6.41c-.69,3.63-1.47,7.68-1.47,8.64h.32a23.89,23.89,0,0,1,19.05-9.92c15.37,0,16.5,10.46,14.13,21.24l-6.44,29.36h-6.4l6.36-29c1.76-8,1.22-15.8-8.92-15.8-9.5,0-18.53,6.62-21.5,20.18l-5.41,24.66h-6.4Z" style="fill: #fff"/>
      <path d="M473.43,61.42l-.73,3.31c-1.8,8.22-7.24,17-20.91,17-5.34,0-10.53-3.1-9.19-9.18,1.85-8.44,13.11-11.11,23.78-11.11Zm7.53-8c2.73-12.5-3.78-17.83-15.74-17.83a35.16,35.16,0,0,0-20.32,6.94l2.78,4.37A27.22,27.22,0,0,1,464,41.35c7.9,0,13.14,3.42,11.26,12l-.66,3h-7.47c-9.72,0-27.66,1.49-31,16.55-2.29,10.46,5.76,14.62,14.19,14.62s14.32-3,19.34-9.28h.21a48.21,48.21,0,0,0-1.11,8h6c.5-5.66,1.48-11.1,3.58-20.71Z" style="fill: #fff"/>
      <path d="M519.73,42.63H505.65l-7,32.14c-1,4.38,1,6.94,5.31,6.94A21.92,21.92,0,0,0,511.54,80l-.73,5.76a31.77,31.77,0,0,1-8.7,1.71c-9.18,0-11.46-5.66-9.91-12.7l7-32.14H488.56l1.27-5.76h10.68l3.11-14.2H510l-3.11,14.2H521Z" style="fill: #fff"/>
      <path d="M533.56,36.87H540L529.14,86.19h-6.4Zm8.53-24.34a3.74,3.74,0,0,1,3.76,4.8A6.3,6.3,0,0,1,540,22.14a3.73,3.73,0,0,1-3.75-4.81A6.28,6.28,0,0,1,542.09,12.53Z" style="fill: #fff"/>
      <path d="M551.54,61.53c2.44-11.1,11.9-20.18,24-20.18s17.54,9.08,15.11,20.18-11.9,20.18-24,20.18S549.11,72.63,551.54,61.53Zm-6.4,0c-3.3,15,5.09,25.94,20.25,25.94S593.72,76.58,597,61.53s-5.1-25.94-20.26-25.94S548.44,46.48,545.14,61.53Z" style="fill: #fff"/>
      <path d="M608.91,50.74c.79-3.62,2-11.31,2.51-13.87h6.4c-.69,3.63-1.47,7.68-1.47,8.64h.32a23.89,23.89,0,0,1,19.05-9.92c15.37,0,16.49,10.46,14.13,21.24l-6.44,29.36H637l6.38-29c1.75-8,1.22-15.8-8.92-15.8C625,41.35,615.92,48,613,61.53l-5.41,24.66h-6.41Z" style="fill: #fff"/>
      <path d="M692.08,61.42l-.72,3.31c-1.8,8.22-7.25,17-20.92,17-5.33,0-10.52-3.1-9.19-9.18,1.85-8.44,13.11-11.11,23.79-11.11Zm7.52-8c2.74-12.5-3.77-17.83-15.73-17.83a35.13,35.13,0,0,0-20.31,6.94l2.77,4.37a27.22,27.22,0,0,1,16.27-5.55c7.91,0,13.13,3.42,11.26,12l-.65,3h-7.48c-9.71,0-27.65,1.49-31,16.55-2.29,10.46,5.77,14.62,14.2,14.62s14.32-3,19.33-9.28h.21a48.21,48.21,0,0,0-1.11,8h6c.49-5.66,1.47-11.1,3.58-20.71Z" style="fill: #fff"/>
      <path d="M723.48,5.48h6.4L712.19,86.19h-6.41Z" style="fill: #fff"/>
      <g>
        <path d="M54.51,44.36c-6.72-6-15.27-8-16.19-8.25l-3.21-1.23c-3.21-.91-2.75-4.27-2.6-4.73.62-2.44,2.6-4.43,6.26-4.43,6.58,0,9.48,5.66,9,10.84h20c2-12.83-7.49-28.41-28.26-28.41-17.41,0-29.78,5.66-31.77,22.31a16.9,16.9,0,0,0,4.89,13.9Z" style="fill: #fff"/>
        <polygon points="179.14 28.62 182.96 10.6 131.95 10.6 124.31 44.36 175.47 44.36 177.16 36.87 147.22 36.87 149.36 28.62 179.14 28.62" style="fill: #fff"/>
        <path d="M120.16,63.48l-2.73-13.93H96.81l.64,5H87l2.33-5H67.8L62.59,59.79a22.61,22.61,0,0,0-3.5-10.24h-40c5,3.06,10.09,4.58,10.85,5l2.14.92c4.27,2,6.11,3.51,6.26,5.34.61,4.12-4.43,6-6.87,5.8-3.52,0-8.4-1.68-8.1-7.33H.13C-.93,70,4,88.5,29.61,88.5c8.15,0,15.42-1.9,21.07-5.28l-1.52,3H72.38l7.06-15.28h20l1.91,15.28h65.37L171.35,65H141l2-9.46H173l1.22-6h-51Z" style="fill: #fff"/>
        <polygon points="95.32 36.56 96.21 44.36 116.37 44.36 109.95 10.75 107.05 10.75 92.39 10.75 87.19 10.75 70.39 44.36 91.78 44.36 95.32 36.56" style="fill: #fff"/>
      </g>
      <path d="M740.12,0a5.72,5.72,0,0,1,2.77.72A5.2,5.2,0,0,1,745,2.79a5.73,5.73,0,0,1,.75,2.82A5.55,5.55,0,0,1,745,8.4a5.31,5.31,0,0,1-2.07,2.08,5.65,5.65,0,0,1-5.59,0,5.24,5.24,0,0,1-2.07-2.08,5.56,5.56,0,0,1-.75-2.79,5.74,5.74,0,0,1,.76-2.82A5.24,5.24,0,0,1,737.35.72,5.75,5.75,0,0,1,740.12,0Zm0,1.1a4.54,4.54,0,0,0-2.22.58,4.17,4.17,0,0,0-1.67,1.66,4.52,4.52,0,0,0-.61,2.27,4.61,4.61,0,0,0,.59,2.25,4.32,4.32,0,0,0,1.67,1.67,4.5,4.5,0,0,0,4.49,0A4.3,4.3,0,0,0,744,7.86a4.52,4.52,0,0,0,0-4.52,4.19,4.19,0,0,0-1.68-1.66A4.54,4.54,0,0,0,740.13,1.1Zm-2.54,7.51V2.66h3.11a2.61,2.61,0,0,1,.94.24,1.59,1.59,0,0,1,.55.57,1.68,1.68,0,0,1,.23.86,1.58,1.58,0,0,1-.42,1.1,2,2,0,0,1-1.19.57,1.36,1.36,0,0,1,.42.22,2.62,2.62,0,0,1,.4.46c0,.06.19.3.44.72l.7,1.2h-1.49l-.5-1A4,4,0,0,0,740,6.42a1.33,1.33,0,0,0-.84-.25h-.31V8.61Zm1.21-3.38h.49a6.25,6.25,0,0,0,1.3-.08.77.77,0,0,0,.4-.28.83.83,0,0,0,.14-.46A.68.68,0,0,0,741,4a.72.72,0,0,0-.41-.28,5.31,5.31,0,0,0-1.29-.09h-.49Z" style="fill: #fff"/>
    </g>
  </g>
</svg>
