<svg xmlns="http://www.w3.org/2000/svg" viewBox="0 0 152.76 146.99">
  <title>logo_1905-1967</title>
  <g id="Layer_2" data-name="Layer 2">
    <g id="Layer_1-2" data-name="Layer 1">
      <g>
        <path d="M148.82,108.52c-3.39-13.26-9.88-35-16.29-46C108.89,22.12,78.2.89,76.92,1.4H75.84c-1.38-.25-32,20.72-55.61,61.14-6.41,11-12.89,32.72-16.28,46-3.23,12.62-2.48,18.62-2.48,18.62a1,1,0,0,0,.44.6,47.14,47.14,0,0,0,5.35,2.83,153.06,153.06,0,0,0,68.91,15h.43a153,153,0,0,0,68.9-15,47.65,47.65,0,0,0,5.36-2.83,1.11,1.11,0,0,0,.44-.6S152,121.14,148.82,108.52ZM106.33,45.3a4.08,4.08,0,1,1-4.08,4.08A4.08,4.08,0,0,1,106.33,45.3Zm-52.65,0a4.08,4.08,0,1,1-4.08,4.08A4.08,4.08,0,0,1,53.68,45.3Zm-8.47,77.55a5.22,5.22,0,0,0,5.06-4.14c.66-3,.84-6.1-.65-8.95a3.93,3.93,0,0,0-1.92-1.31,23,23,0,0,0-2.94-1c-2.14-.63-4.29-1.2-6.41-1.88a55.55,55.55,0,0,1-5.51-2c-1.19-.51-2.09-.68-2.94.52a26.9,26.9,0,0,0-4.51,8.34,3.26,3.26,0,0,0,1.05,3.45,5.11,5.11,0,0,1,.76,1.74c-.68.27-1.52,1-2,.75-2.87-1.18-5.67-2.54-8.46-3.9-.29-.14-.6-.92-.48-1.08.36-.5.92-1.14,1.44-1.18,2.51-.15,3.73-1.84,4.95-3.69s2.47-3.3,3.63-5c1.57-2.31,2.91-4.81,4.64-7s3.2-4.77,5.34-7,3.7-4.34,5.66-6.4c1.39-1.45,3-2.65,4.56-4,1-.84,1.86-1.8,2.89-2.55,1.82-1.32,2.87-1,3.67.76a31,31,0,0,1,2.44,9.42c.31,2.68.9,5.33,1.32,8a31.89,31.89,0,0,1,.53,4.35c.08,3.39.1,6.79,0,10.18-.07,2.57-.28,5.14-.53,7.69a18.33,18.33,0,0,0,1,7.06,3.62,3.62,0,0,0,.68,1.24A16.53,16.53,0,0,1,60,127C54.82,128.08,46.94,125.79,45.21,122.85Zm36.46-18.21a4.08,4.08,0,1,1,4.08-4.08A4.08,4.08,0,0,1,81.67,104.64ZM90,74.91a15.23,15.23,0,0,1-6.17,2.41,38.74,38.74,0,0,1-7.69,0A8.6,8.6,0,0,1,73,76.76,9.88,9.88,0,0,0,72,76.1a10.48,10.48,0,0,0-3.08-.21c-.56,0-1.39.5-1.63.28-.65-.61-1.48-1.48-1.49-2.26-.06-3.54.11-7.08.29-10.61a6.3,6.3,0,0,1,.84-1.9c1.76.49,1.81,1.88,2,3.14a12.43,12.43,0,0,0,3.55,7,27.48,27.48,0,0,0,2.09,2.09c2.7,2.17,5.85,2.24,9,1.49s5.86-2.23,7.3-5.51A9.65,9.65,0,0,0,88,58.17a38.18,38.18,0,0,0-7.24-4.79c-.54-.24-1.4-.28-1.94-.58-2.78-1.52-5.61-2.95-8.34-4.55-1.65-1-3.1-1.67-4.13-4a11.79,11.79,0,0,1-1-2.5c-2.07-4.32-1.8-8,1-11.92a30.9,30.9,0,0,1,7.3-7.44c2.73-1.9,6.21-1.45,9.41-.53a47.61,47.61,0,0,0,4.85,1.51A6.67,6.67,0,0,0,91,22.8c.87-.3,1.29-.24,1.46.72a46.37,46.37,0,0,0,1.36,6.69c.88,2.59-.81,4.39-1.45,6.51a1.3,1.3,0,0,1-1.19.49,1.6,1.6,0,0,1-.95-1.07c-.07-2.63-1.56-4.61-2.59-6.87-1.29-2.82-3.22-3.81-6-4.48A8.13,8.13,0,0,0,73,28l-.59.69A16.16,16.16,0,0,0,71.24,30c-.67,1-1.35,1.78-1.3,3a14.66,14.66,0,0,0,1,4.08,4.1,4.1,0,0,0,1.41,2c2,1.22,3.54,2.89,6,3.5s4.45,2.06,6.61,3.25a44.12,44.12,0,0,1,5.68,3.46,21.47,21.47,0,0,1,4.17,4.24,11.36,11.36,0,0,1,1.34,3.77,18,18,0,0,1-.34,10.43A12.76,12.76,0,0,1,90,74.91Zm45.42,41.39a12,12,0,0,0-5.42,1.32,36.31,36.31,0,0,1-3.88,2.27,32.77,32.77,0,0,1-4.63,1.2,10.57,10.57,0,0,1-6.88.62,16.53,16.53,0,0,1-8.33-3.52c-2.65-2.33-5.38-4.63-6.74-8.27-.9-2.41-2.12-4.7-2.68-7.25a29.21,29.21,0,0,1-.76-11A26.57,26.57,0,0,1,100,81.82a27.32,27.32,0,0,1,9.38-9c1.54-1,3.63-1.14,5.51-1.42,2.18-.33,4.4-.26,6.18-1.93.87-.82,1.52-.52,2.27.59a16.7,16.7,0,0,1,2.73,8.56c0,.46-.45,1-.66,1.41-2-1.6-3.64-2.91-5.27-4.26-2.21-1.84-4.67-1.76-7.19-.9a17.55,17.55,0,0,0-3.71,1.53,12.9,12.9,0,0,0-5,6.17c-1.73,4.2-.83,8.65-1,13,0,1.35,1.71,2.3,3.06,2,2.77-.68,5.53-1.69,8.33-1.82,3.1-.15,5.83-1.31,8.71-2.11a1.46,1.46,0,0,0,.71-.6c.82-1.21,2.41-1.82,2.63-3.53.06-.47.62-.87,1-1.34,1.54,1.29,1.41,3,1.8,4.52.35,1.35.89,2.66,1.14,4a3.12,3.12,0,0,1-.48,2,1.54,1.54,0,0,1-1.43,0c-3.06-2.78-6.52-1.49-9.8-.88-2.56.47-5,1.54-7.54,2.26-1.24.35-2.55.49-3.82.73a3.16,3.16,0,0,0-1.94,4.42,23.43,23.43,0,0,1,2.19,4.21c.7,2.34,2.72,3.44,4.13,5.12,3,3.54,6.88,4.18,11,3.68s7.46-2.27,8.88-6.48c.47-1.37.61-2.85,1-4.26.1-.37.49-.87.81-.92a1.33,1.33,0,0,1,1,.66,16.86,16.86,0,0,1,2.37,7.34A1.54,1.54,0,0,1,135.38,116.3Z" style="fill: #fff"/>
        <path d="M51.62,84.73c-.58-1.7-1.5-1.93-2.85-.84a16,16,0,0,0-2.38,2.41c-1.8,2.22-3.54,4.48-5.3,6.73a46.24,46.24,0,0,0-3.16,4.11c-.87,1.44.32,3.68,2,4.17,3.69,1.11,7.37,2.27,11,3.43a1.57,1.57,0,0,0,2.22-1.47c.15-1.48.3-3,.42-4.13-.27-3.34-.43-6.34-.79-9.31A26.32,26.32,0,0,0,51.62,84.73Z" style="fill: #fff"/>
      </g>
      <path d="M76.92,1.4c1.28-.51,32,20.72,55.61,61.14,6.41,11,12.9,32.72,16.29,46,3.22,12.62,2.48,18.62,2.48,18.62a1.11,1.11,0,0,1-.44.6,47.65,47.65,0,0,1-5.36,2.83,153,153,0,0,1-68.9,15h-.43a153.06,153.06,0,0,1-68.91-15,47.14,47.14,0,0,1-5.35-2.83,1,1,0,0,1-.44-.6s-.75-6,2.48-18.62c3.39-13.26,9.87-35,16.28-46C43.87,22.12,74.46,1.15,75.84,1.4Z" style="fill: none;stroke: #fff;stroke-miterlimit: 10;stroke-width: 2.78329449091132px"/>
    </g>
  </g>
</svg>
