<svg xmlns="http://www.w3.org/2000/svg" viewBox="0 0 120.56 74.57">
  <title>logo</title>
  <g id="Layer_2" data-name="Layer 2">
    <g id="Layer_1-2" data-name="Layer 1">
      <g>
        <path d="M80.45,57.81V45.75h33.3V57.81ZM110.92,35.4V23.34H80.45V35.4ZM113.75,13V.93H80.45V13ZM43.54,27.06,34.16,42.67c1.62-3.34-1-5.11-2.63-5.6-2.75-1-11.36-2.75-17-4.39a21.2,21.2,0,0,1-6.13-2.84A15,15,0,0,1,2.09,17.52C2.09,14.05,3.82,0,25.38,0,43.09,0,47.9,10.36,48.32,16.55H33.83c-.51-2.25-2.55-4.91-8.77-4.94-1.43,0-7.18.14-7.73,3.88a3.35,3.35,0,0,0,1.34,3.33A10.33,10.33,0,0,0,21.73,20c2.62.79,8.36,1.89,11.18,2.59C37.83,23.83,41.35,25.32,43.54,27.06ZM25.3,45.87c-5.7,0-9.43-1.46-10.64-7.32H0c0,2.35,1.23,12.31,10.15,16.5,5,2.34,10.58,2.76,14.91,2.76L34,42.9C33.4,43.75,32.16,45.87,25.3,45.87Z" style="fill: #fff"/>
        <path d="M120.56,72.05a2.49,2.49,0,1,1-2.48-2.48A2.49,2.49,0,0,1,120.56,72.05Zm-.29,0a2.2,2.2,0,1,0-2.21,2.22A2.17,2.17,0,0,0,120.27,72.05Zm-1.58.31.64,1h-.68l-.56-.86h-.46v.86h-.58V70.66h1.17c.63,0,1,.32,1,.87A.83.83,0,0,1,118.69,72.36Zm0-.79c0-.26-.18-.39-.47-.39h-.57V72h.58C118.51,72,118.67,71.79,118.67,71.57ZM49.51,64.92h1.93V74.4H49.75L46,68.67V74.4H44V64.92h1.82l3.65,5.52Zm-9.94,6,2,3.52H39.34l-1.76-3.12H36.34V74.4h-2V64.92H38a3.57,3.57,0,0,1,2.59.9,3,3,0,0,1,.8,2.2v0A2.86,2.86,0,0,1,39.57,70.88Zm-.21-2.77c0-1-.59-1.42-1.6-1.42H36.34v2.86H37.8a1.38,1.38,0,0,0,1.56-1.42ZM2,74.4h2V64.92H2Zm25.39-3.89H31V68.74H27.35v-2h4.18V64.92H25.39V74.4h6.19V72.62H27.35Zm-15.06-.07L8.64,64.92H6.82V74.4H8.76V68.67l3.77,5.73h1.69V64.92H12.29Zm4.13-3.71h2.4V74.4h2V66.73h2.4V64.92H16.42Zm42.42-1.81,3.4,9.48H60.19l-.71-2.06H56.2l-.69,2.06h-2l3.4-9.48Zm0,5.68-1-3.08L56.76,70.6Zm34.27-.16-3.65-5.52H87.65V74.4h1.93V68.67l3.78,5.73h1.69V64.92H93.11Zm16.78-5.52h-2V74.4h5.83V72.6h-3.86ZM63,66.73h2.4V74.4h2V66.73h2.4V64.92H63Zm9,7.67h2V64.92H72Zm13.12-4.83v.17c0,2.83-1.8,4.83-4.32,4.83s-4.31-2-4.31-4.81V69.6c0-2.84,1.8-4.83,4.32-4.83S85.13,66.74,85.13,69.57Zm-2,.06c0-1.87-1-3-2.27-3s-2.28,1.17-2.28,3v.1c0,1.87,1,3.05,2.29,3.05s2.26-1.17,2.26-3Zm22.78,4.77h-2l-.71-2.06H99.83l-.7,2.06h-2l3.4-9.48h1.92Zm-3.35-3.8-1-3.08-1,3.08ZM80.45.93H59.24L43.54,27.06,34.16,42.67,34,42.9l-9,14.91H40.18l7.25-12.07h19.7V57.81H80.45ZM67.13,35.38H53.65L67.13,13Z" style="fill: #d1d3d4"/>
      </g>
    </g>
  </g>
</svg>
