<svg xmlns="http://www.w3.org/2000/svg" viewBox="0 0 263.61 51.77">
  <title>logo_81-86</title>
  <g id="Layer_2" data-name="Layer 2">
    <g id="Layer_1-2" data-name="Layer 1">
      <g>
        <path d="M34,22.58a26.12,26.12,0,0,0-10.1-5.14l-2-.76a2.43,2.43,0,0,1-1.62-3A3.68,3.68,0,0,1,24.19,11c4.1,0,5.91,3.52,5.62,6.76H42.3C43.54,9.72,37.63,0,24.67,0,13.81,0,6.09,3.53,4.85,13.91A10.52,10.52,0,0,0,7.9,22.58Z" style="fill: #fff"/>
        <polygon points="111.76 12.77 114.14 1.52 82.32 1.52 77.55 22.58 109.47 22.58 110.52 17.91 91.85 17.91 93.18 12.77 111.76 12.77" style="fill: #fff"/>
        <path d="M75,34.51l-1.7-8.69H60.4L60.79,29H54.28l1.45-3.15H42.3l-3.25,6.39a14.18,14.18,0,0,0-2.18-6.39h-25A48.51,48.51,0,0,0,18.67,29l1.33.57c2.67,1.24,3.81,2.19,3.91,3.33.38,2.58-2.77,3.72-4.29,3.63-2.19,0-5.24-1-5.05-4.58H.08c-.66,6.67,2.39,18.2,18.39,18.2a25.63,25.63,0,0,0,13.15-3.29l-.95,1.86H45.16l4.4-9.53H62.07l1.19,9.53H104l2.86-13.24h-19l1.24-5.91H108l.76-3.72H76.89Z" style="fill: #fff"/>
        <polygon points="59.47 17.72 60.02 22.58 72.6 22.58 68.6 1.62 66.79 1.62 57.64 1.62 54.4 1.62 43.92 22.58 57.26 22.58 59.47 17.72" style="fill: #fff"/>
      </g>
      <g>
        <path d="M129.29,3.76,127,14.41h-1.6l2.25-10.65h-4L124,2.42h9.67l-.3,1.34Z" style="fill: #fff;stroke: #fff;stroke-miterlimit: 10;stroke-width: 0.5px"/>
        <path d="M136.38,2.42l-1,4.58,0,0a3.41,3.41,0,0,1,1.36-1.14,4.11,4.11,0,0,1,1.73-.37,2.69,2.69,0,0,1,1.82.53,2.18,2.18,0,0,1,.6,1.7,6.17,6.17,0,0,1-.07.74c0,.3-.11.62-.18,1l-1.06,4.95h-1.43l1.11-5.07c0-.09,0-.19,0-.31l.06-.37a2.58,2.58,0,0,0,.06-.37,1.89,1.89,0,0,0,0-.29,1,1,0,0,0-.44-.92A1.84,1.84,0,0,0,138,6.79a2.61,2.61,0,0,0-1.17.28,3.28,3.28,0,0,0-1,.72,2.48,2.48,0,0,0-.61.82,6.56,6.56,0,0,0-.35,1l-1,4.8h-1.41l2.52-12Z" style="fill: #fff;stroke: #fff;stroke-miterlimit: 10;stroke-width: 0.5px"/>
        <path d="M143.63,11.25a2.13,2.13,0,0,0,.19.9,1.75,1.75,0,0,0,.5.66,2.47,2.47,0,0,0,.73.4,2.35,2.35,0,0,0,.84.14,2.8,2.8,0,0,0,1.58-.42,2.56,2.56,0,0,0,.92-1.24h1.43a3.64,3.64,0,0,1-.54,1.27,3.5,3.5,0,0,1-.89.91,3.85,3.85,0,0,1-1.16.54,4.57,4.57,0,0,1-1.34.19,4.24,4.24,0,0,1-1.79-.33,3.14,3.14,0,0,1-1.14-.84,3,3,0,0,1-.58-1.13,4.11,4.11,0,0,1-.17-1.18,6.9,6.9,0,0,1,.36-2.28,5.69,5.69,0,0,1,1-1.77A4.45,4.45,0,0,1,145,5.93a3.77,3.77,0,0,1,1.71-.4,3.52,3.52,0,0,1,2.79,1,4.18,4.18,0,0,1,.89,2.84,4.26,4.26,0,0,1-.05.64c0,.2-.07.37-.09.49h-6.53A4.74,4.74,0,0,0,143.63,11.25Zm5.24-2.91a2.08,2.08,0,0,0-.34-.79,1.8,1.8,0,0,0-.64-.55,2.15,2.15,0,0,0-1-.21,3,3,0,0,0-1.11.19,2.75,2.75,0,0,0-.87.53,3.18,3.18,0,0,0-.62.78,4.44,4.44,0,0,0-.4,1h5A3.41,3.41,0,0,0,148.87,8.34Z" style="fill: #fff;stroke: #fff;stroke-miterlimit: 10;stroke-width: 0.5px"/>
        <path d="M167.05,2.42l-.26,1.34h-6.67l-.81,3.82h6.22l-.27,1.34H159l-.87,4.15h6.75l-.3,1.34h-8.35l2.54-12Z" style="fill: #fff;stroke: #fff;stroke-miterlimit: 10;stroke-width: 0.5px"/>
        <path d="M169.73,5.73,169.46,7h0a3.41,3.41,0,0,1,1.36-1.14,4.14,4.14,0,0,1,1.73-.37,2.67,2.67,0,0,1,1.82.53,2.18,2.18,0,0,1,.6,1.7,4.62,4.62,0,0,1-.07.74q-.06.45-.18,1l-1.06,4.95h-1.43l1.11-5.07c0-.09,0-.19,0-.31s.05-.24.07-.37l.06-.37a1.68,1.68,0,0,0,0-.29,1,1,0,0,0-.43-.92,1.85,1.85,0,0,0-1.08-.29,2.64,2.64,0,0,0-1.17.28,3.41,3.41,0,0,0-1,.72,2.32,2.32,0,0,0-.6.82,5.66,5.66,0,0,0-.36,1l-1,4.8h-1.41l1.82-8.68Z" style="fill: #fff;stroke: #fff;stroke-miterlimit: 10;stroke-width: 0.5px"/>
        <path d="M183.53,14.44a8.41,8.41,0,0,1-.35,1.07,3.67,3.67,0,0,1-1.54,1.86,4.85,4.85,0,0,1-2.41.55,5.4,5.4,0,0,1-1.28-.15,3.11,3.11,0,0,1-1.08-.47,2.46,2.46,0,0,1-.77-.83,2.49,2.49,0,0,1-.31-1.23h1.41a1.36,1.36,0,0,0,.23.71,1.48,1.48,0,0,0,.49.44,2.17,2.17,0,0,0,.68.22,6.7,6.7,0,0,0,.79.05,2.72,2.72,0,0,0,1.35-.3,2.51,2.51,0,0,0,.86-.79,3.8,3.8,0,0,0,.53-1.11c.13-.42.25-.85.36-1.27l0,0a2.66,2.66,0,0,1-1.18,1,3.85,3.85,0,0,1-1.52.3,3.46,3.46,0,0,1-1.42-.26,2.64,2.64,0,0,1-1-.74,3.24,3.24,0,0,1-.61-1.13,4.73,4.73,0,0,1-.21-1.44A6.12,6.12,0,0,1,176.81,9a5.51,5.51,0,0,1,.89-1.72A4.61,4.61,0,0,1,179.12,6a3.85,3.85,0,0,1,1.9-.47,3.59,3.59,0,0,1,.93.12,3.75,3.75,0,0,1,.82.35,2.48,2.48,0,0,1,.64.56,2,2,0,0,1,.36.73v0h0l.27-1.59h1.35l-1.57,7.42C183.75,13.6,183.65,14,183.53,14.44Zm-5.47-2.66a2.22,2.22,0,0,0,.39.73,1.92,1.92,0,0,0,.67.52,2.13,2.13,0,0,0,.94.19,2.42,2.42,0,0,0,1.4-.4,3.22,3.22,0,0,0,1-1,4.79,4.79,0,0,0,.58-1.35,5.42,5.42,0,0,0,.2-1.39,2.41,2.41,0,0,0-.55-1.64A2.08,2.08,0,0,0,181,6.79a2.17,2.17,0,0,0-1.33.42,3.78,3.78,0,0,0-1,1,5.11,5.11,0,0,0-.58,1.33,4.64,4.64,0,0,0-.21,1.32A2.91,2.91,0,0,0,178.06,11.78Z" style="fill: #fff;stroke: #fff;stroke-miterlimit: 10;stroke-width: 0.5px"/>
        <path d="M189.15,5.73l-1.82,8.68h-1.41l1.8-8.68ZM188,4.17l.37-1.75h1.44l-.37,1.75Z" style="fill: #fff;stroke: #fff;stroke-miterlimit: 10;stroke-width: 0.5px"/>
        <path d="M193,5.73,192.78,7h0a3.41,3.41,0,0,1,1.36-1.14,4.11,4.11,0,0,1,1.73-.37,2.69,2.69,0,0,1,1.82.53,2.18,2.18,0,0,1,.6,1.7,4.62,4.62,0,0,1-.07.74q-.06.45-.18,1L197,14.41h-1.43l1.11-5.07c0-.09,0-.19.05-.31s0-.24.07-.37l.06-.37c0-.12,0-.22,0-.29a1,1,0,0,0-.44-.92,1.84,1.84,0,0,0-1.07-.29,2.64,2.64,0,0,0-1.17.28,3.28,3.28,0,0,0-1,.72,2.48,2.48,0,0,0-.61.82,6.56,6.56,0,0,0-.35,1l-1,4.8h-1.41l1.82-8.68Z" style="fill: #fff;stroke: #fff;stroke-miterlimit: 10;stroke-width: 0.5px"/>
        <path d="M201.06,11.25a2.13,2.13,0,0,0,.18.9,1.78,1.78,0,0,0,.51.66,2.3,2.3,0,0,0,.72.4,2.39,2.39,0,0,0,.84.14,2.77,2.77,0,0,0,1.58-.42,2.56,2.56,0,0,0,.92-1.24h1.43A3.64,3.64,0,0,1,206.7,13a3.35,3.35,0,0,1-.89.91,3.85,3.85,0,0,1-1.16.54,4.52,4.52,0,0,1-1.34.19,4.27,4.27,0,0,1-1.79-.33,3.1,3.1,0,0,1-1.13-.84,3,3,0,0,1-.59-1.13,4.49,4.49,0,0,1-.17-1.18A6.9,6.9,0,0,1,200,8.84a5.71,5.71,0,0,1,1-1.77,4.31,4.31,0,0,1,1.42-1.14,3.8,3.8,0,0,1,1.71-.4,3.54,3.54,0,0,1,2.8,1,4.23,4.23,0,0,1,.88,2.84,4.26,4.26,0,0,1-.05.64c0,.2-.06.37-.09.49h-6.53A4.73,4.73,0,0,0,201.06,11.25Zm5.23-2.91a1.94,1.94,0,0,0-.34-.79,1.72,1.72,0,0,0-.64-.55,2.13,2.13,0,0,0-1-.21A3,3,0,0,0,203.2,7a2.75,2.75,0,0,0-.87.53,3.18,3.18,0,0,0-.62.78,4.44,4.44,0,0,0-.4,1h5A3.41,3.41,0,0,0,206.29,8.34Z" style="fill: #fff;stroke: #fff;stroke-miterlimit: 10;stroke-width: 0.5px"/>
        <path d="M210.28,11.25a2,2,0,0,0,.19.9,1.75,1.75,0,0,0,.5.66,2.3,2.3,0,0,0,.72.4,2.39,2.39,0,0,0,.84.14,2.75,2.75,0,0,0,1.58-.42,2.5,2.5,0,0,0,.92-1.24h1.43a3.83,3.83,0,0,1-.53,1.27,3.54,3.54,0,0,1-.9.91,3.8,3.8,0,0,1-1.15.54,4.64,4.64,0,0,1-1.35.19,4.27,4.27,0,0,1-1.79-.33,3.19,3.19,0,0,1-1.13-.84A3,3,0,0,1,209,12.3a4.49,4.49,0,0,1-.17-1.18,6.9,6.9,0,0,1,.36-2.28,5.71,5.71,0,0,1,1-1.77,4.35,4.35,0,0,1,1.43-1.14,3.76,3.76,0,0,1,1.7-.4,3.54,3.54,0,0,1,2.8,1A4.18,4.18,0,0,1,217,9.37,4.26,4.26,0,0,1,217,10c0,.2-.06.37-.08.49h-6.54A6.3,6.3,0,0,0,210.28,11.25Zm5.23-2.91a2.07,2.07,0,0,0-.33-.79,1.75,1.75,0,0,0-.65-.55,2.13,2.13,0,0,0-1-.21,3,3,0,0,0-1.12.19,2.59,2.59,0,0,0-.86.53,2.77,2.77,0,0,0-.62.78,4.47,4.47,0,0,0-.41,1h5A3.41,3.41,0,0,0,215.51,8.34Z" style="fill: #fff;stroke: #fff;stroke-miterlimit: 10;stroke-width: 0.5px"/>
        <path d="M221,5.73l-.42,1.86h0a4.81,4.81,0,0,1,1.28-1.48,3,3,0,0,1,1.87-.58l.26,0a.55.55,0,0,1,.25,0l-.34,1.52h-.86a2,2,0,0,0-.42.07,2.87,2.87,0,0,0-1,.52,4,4,0,0,0-.79.89,3.48,3.48,0,0,0-.46,1q-.17.56-.27,1.05l-.82,3.84h-1.41l1.8-8.68Z" style="fill: #fff;stroke: #fff;stroke-miterlimit: 10;stroke-width: 0.5px"/>
        <path d="M226.86,5.73l-1.81,8.68h-1.41l1.79-8.68Zm-1.11-1.56.37-1.75h1.45l-.37,1.75Z" style="fill: #fff;stroke: #fff;stroke-miterlimit: 10;stroke-width: 0.5px"/>
        <path d="M230.76,5.73,230.49,7h0a3.47,3.47,0,0,1,1.36-1.14,4.14,4.14,0,0,1,1.73-.37,2.72,2.72,0,0,1,1.83.53,2.18,2.18,0,0,1,.59,1.7,5.86,5.86,0,0,1-.06.74c-.05.3-.11.62-.19,1l-1.06,4.95H233.3l1.1-5.07c0-.09,0-.19,0-.31s.05-.24.07-.37l.06-.37a1.89,1.89,0,0,0,0-.29,1,1,0,0,0-.44-.92,1.85,1.85,0,0,0-1.08-.29,2.57,2.57,0,0,0-1.16.28,3.32,3.32,0,0,0-1,.72,2.6,2.6,0,0,0-.6.82,5.64,5.64,0,0,0-.35,1l-1,4.8h-1.41l1.81-8.68Z" style="fill: #fff;stroke: #fff;stroke-miterlimit: 10;stroke-width: 0.5px"/>
        <path d="M244.57,14.44a10.38,10.38,0,0,1-.35,1.07,3.69,3.69,0,0,1-1.55,1.86,4.84,4.84,0,0,1-2.4.55,5.43,5.43,0,0,1-1.29-.15,3.11,3.11,0,0,1-1.08-.47,2.56,2.56,0,0,1-.77-.83,2.6,2.6,0,0,1-.31-1.23h1.42a1.36,1.36,0,0,0,.22.71,1.48,1.48,0,0,0,.49.44,2.17,2.17,0,0,0,.68.22,6.84,6.84,0,0,0,.79.05,2.7,2.7,0,0,0,1.35-.3,2.64,2.64,0,0,0,.87-.79,4.08,4.08,0,0,0,.53-1.11l.36-1.27,0,0a2.63,2.63,0,0,1-1.17,1,3.87,3.87,0,0,1-1.53.3,3.49,3.49,0,0,1-1.42-.26,2.64,2.64,0,0,1-1-.74,3.24,3.24,0,0,1-.61-1.13,4.73,4.73,0,0,1-.21-1.44A6.12,6.12,0,0,1,237.84,9a5.73,5.73,0,0,1,.89-1.72A4.73,4.73,0,0,1,240.15,6a3.85,3.85,0,0,1,1.9-.47,3.59,3.59,0,0,1,.93.12,3.55,3.55,0,0,1,.82.35,2.33,2.33,0,0,1,.64.56,1.73,1.73,0,0,1,.36.73v0h0l.27-1.59h1.34l-1.56,7.42C244.79,13.6,244.68,14,244.57,14.44Zm-5.48-2.66a2.07,2.07,0,0,0,.4.73,1.8,1.8,0,0,0,.66.52,2.13,2.13,0,0,0,.94.19,2.4,2.4,0,0,0,1.4-.4,3.36,3.36,0,0,0,1-1,5.1,5.1,0,0,0,.58-1.35,5.87,5.87,0,0,0,.19-1.39,2.36,2.36,0,0,0-.55-1.64A2.08,2.08,0,0,0,242,6.79a2.2,2.2,0,0,0-1.33.42,3.6,3.6,0,0,0-.95,1,4.82,4.82,0,0,0-.59,1.33,4.61,4.61,0,0,0-.2,1.32A2.9,2.9,0,0,0,239.09,11.78Z" style="fill: #fff;stroke: #fff;stroke-miterlimit: 10;stroke-width: 0.5px"/>
        <path d="M125.05,19.22a7.8,7.8,0,0,1,1.47.14,3.67,3.67,0,0,1,1.27.5,2.49,2.49,0,0,1,.88.94,3,3,0,0,1,.33,1.48,3.2,3.2,0,0,1-.2,1.15,3.49,3.49,0,0,1-.55,1,3.1,3.1,0,0,1-.85.72,2.92,2.92,0,0,1-1.1.37v0a1.61,1.61,0,0,1,.64.37,1.78,1.78,0,0,1,.41.6,2.63,2.63,0,0,1,.18.77,3.63,3.63,0,0,1,0,.87,7.28,7.28,0,0,1-.1.8c0,.26-.08.52-.1.79a4.82,4.82,0,0,0,0,.76,1.88,1.88,0,0,0,.22.72h-1.66a3.62,3.62,0,0,1-.14-1,7.68,7.68,0,0,1,.17-1.58,4.77,4.77,0,0,0,.08-1.3,1.62,1.62,0,0,0-.25-.76.89.89,0,0,0-.45-.37,1.75,1.75,0,0,0-.54-.12h-4.18l-1.08,5.12H117.9l2.53-12Zm-.6,5.53a3.81,3.81,0,0,0,1.52-.26,2.38,2.38,0,0,0,.9-.61,2,2,0,0,0,.43-.77,3.08,3.08,0,0,0,.11-.73,1.86,1.86,0,0,0-.2-.91,1.68,1.68,0,0,0-.53-.56,2.23,2.23,0,0,0-.75-.27,5,5,0,0,0-.88-.08h-3.3l-.9,4.19Z" style="fill: #fff;stroke: #fff;stroke-miterlimit: 10;stroke-width: 0.5px"/>
        <path d="M131.47,28.06a2,2,0,0,0,.19.89,1.75,1.75,0,0,0,.5.66,2.3,2.3,0,0,0,.72.4,2.4,2.4,0,0,0,.84.15,2.75,2.75,0,0,0,1.58-.43,2.57,2.57,0,0,0,.93-1.24h1.42a3.83,3.83,0,0,1-.53,1.27,3.51,3.51,0,0,1-.89.91,4,4,0,0,1-1.16.54,4.64,4.64,0,0,1-1.35.19,4.3,4.3,0,0,1-1.79-.33,3.19,3.19,0,0,1-1.13-.84,3,3,0,0,1-.59-1.12,4.62,4.62,0,0,1-.17-1.19,6.65,6.65,0,0,1,.37-2.28,5.69,5.69,0,0,1,1-1.77,4.35,4.35,0,0,1,1.43-1.14,3.76,3.76,0,0,1,1.7-.4,3.54,3.54,0,0,1,2.8,1,4.18,4.18,0,0,1,.88,2.84,4.26,4.26,0,0,1-.05.64c0,.2-.06.37-.08.49h-6.54A6.33,6.33,0,0,0,131.47,28.06Zm5.24-2.92a2.25,2.25,0,0,0-.34-.79,1.75,1.75,0,0,0-.65-.55,2.13,2.13,0,0,0-1-.21,3.06,3.06,0,0,0-1.12.19,2.7,2.7,0,0,0-.86.53,3,3,0,0,0-.62.78,5,5,0,0,0-.41.95h5A3,3,0,0,0,136.71,25.14Z" style="fill: #fff;stroke: #fff;stroke-miterlimit: 10;stroke-width: 0.5px"/>
        <path d="M145,24a2.21,2.21,0,0,0-1.3-.37,3.63,3.63,0,0,0-.65.05,2,2,0,0,0-.6.17,1.32,1.32,0,0,0-.43.34.85.85,0,0,0-.17.54.78.78,0,0,0,.2.53,2,2,0,0,0,.52.4,5.11,5.11,0,0,0,.74.34l.83.33c.29.12.57.26.85.4a4.46,4.46,0,0,1,.73.5,2.27,2.27,0,0,1,.52.66,1.87,1.87,0,0,1,.2.88,2.3,2.3,0,0,1-.32,1.23,2.6,2.6,0,0,1-.82.83,3.61,3.61,0,0,1-1.14.47,6,6,0,0,1-1.26.14,6.78,6.78,0,0,1-1.4-.14,3.14,3.14,0,0,1-1.1-.48,2.4,2.4,0,0,1-.73-.9,3.27,3.27,0,0,1-.27-1.4h1.41a1.42,1.42,0,0,0,.15.79,1.21,1.21,0,0,0,.48.52,2.08,2.08,0,0,0,.72.28,4.14,4.14,0,0,0,.87.09,4.38,4.38,0,0,0,.71-.07,2.15,2.15,0,0,0,.63-.23,1.44,1.44,0,0,0,.47-.41,1.13,1.13,0,0,0,.17-.62.81.81,0,0,0-.2-.55,2,2,0,0,0-.52-.41,5,5,0,0,0-.73-.34c-.28-.11-.55-.22-.83-.35a8.08,8.08,0,0,1-.85-.37,3.14,3.14,0,0,1-.74-.48,2.12,2.12,0,0,1-.52-.64,1.84,1.84,0,0,1-.19-.86,2.16,2.16,0,0,1,.27-1.08,2.59,2.59,0,0,1,.73-.78,4.14,4.14,0,0,1,1-.48,4.25,4.25,0,0,1,1.18-.16,4.73,4.73,0,0,1,1.19.14,2.79,2.79,0,0,1,1.05.47,2.41,2.41,0,0,1,.75.86,2.66,2.66,0,0,1,.29,1.28h-1.43A1.24,1.24,0,0,0,145,24Z" style="fill: #fff;stroke: #fff;stroke-miterlimit: 10;stroke-width: 0.5px"/>
        <path d="M148.77,25.74a5.31,5.31,0,0,1,1-1.75,4.73,4.73,0,0,1,1.52-1.21,4.51,4.51,0,0,1,2.05-.45,3.64,3.64,0,0,1,2.68.91,3.61,3.61,0,0,1,.93,2.68,6.71,6.71,0,0,1-.32,2,5.42,5.42,0,0,1-.94,1.76A4.84,4.84,0,0,1,154.14,31a4.5,4.5,0,0,1-2,.45,4.09,4.09,0,0,1-1.53-.27,3.32,3.32,0,0,1-1.16-.75,3.35,3.35,0,0,1-.72-1.14,4,4,0,0,1-.25-1.45A6.43,6.43,0,0,1,148.77,25.74Zm1.7,3.76a2.31,2.31,0,0,0,1.78.66,2.42,2.42,0,0,0,1.39-.41,3.88,3.88,0,0,0,1-1,5,5,0,0,0,.62-1.34,4.9,4.9,0,0,0,.21-1.36,3.32,3.32,0,0,0-.13-1,2.1,2.1,0,0,0-.42-.78,2,2,0,0,0-.72-.52,2.41,2.41,0,0,0-1-.19,2.58,2.58,0,0,0-1.44.4,3.74,3.74,0,0,0-1,1,4.52,4.52,0,0,0-.63,1.35,5.13,5.13,0,0,0-.21,1.41A2.46,2.46,0,0,0,150.47,29.5Z" style="fill: #fff;stroke: #fff;stroke-miterlimit: 10;stroke-width: 0.5px"/>
        <path d="M163.91,31.21l.27-1.31h0A3.3,3.3,0,0,1,162.79,31a4.14,4.14,0,0,1-1.73.37,2.72,2.72,0,0,1-1.83-.53,2.18,2.18,0,0,1-.59-1.69,5.86,5.86,0,0,1,.06-.74c.05-.3.11-.62.19-1L160,22.53h1.43l-1.11,5.07a1.67,1.67,0,0,0-.07.3c0,.13,0,.25-.07.38s0,.25,0,.37,0,.22,0,.3a1,1,0,0,0,.43.91,1.86,1.86,0,0,0,1.08.3,2.57,2.57,0,0,0,1.11-.24,3.27,3.27,0,0,0,.92-.63,3.61,3.61,0,0,0,.68-.91,3.85,3.85,0,0,0,.4-1.05l1-4.8h1.43l-1.83,8.68Z" style="fill: #fff;stroke: #fff;stroke-miterlimit: 10;stroke-width: 0.5px"/>
        <path d="M171.39,22.53,171,24.39h0a5,5,0,0,1,1.29-1.48,3,3,0,0,1,1.87-.58l.25,0a.54.54,0,0,1,.25,0l-.33,1.53a.65.65,0,0,0-.22,0h-.64a2,2,0,0,0-.42.07,2.87,2.87,0,0,0-1.05.52,4,4,0,0,0-.8.89,3.47,3.47,0,0,0-.45,1q-.17.55-.27,1.05l-.82,3.84h-1.41L170,22.53Z" style="fill: #fff;stroke: #fff;stroke-miterlimit: 10;stroke-width: 0.5px"/>
        <path d="M180.7,24a1.93,1.93,0,0,0-1.35-.44,2.77,2.77,0,0,0-1.45.37,3.44,3.44,0,0,0-1.06.95,4.39,4.39,0,0,0-.65,1.32,5.23,5.23,0,0,0-.21,1.44,4.34,4.34,0,0,0,.1,1,2.48,2.48,0,0,0,.36.79,1.78,1.78,0,0,0,.67.53,2.2,2.2,0,0,0,1,.21,2.58,2.58,0,0,0,1.57-.49,2.8,2.8,0,0,0,1-1.3h1.43a4,4,0,0,1-1.41,2.26,4.15,4.15,0,0,1-2.55.77,3.45,3.45,0,0,1-2.68-1,3.89,3.89,0,0,1-.9-2.75,6.34,6.34,0,0,1,.31-2,5.23,5.23,0,0,1,.92-1.71,4.45,4.45,0,0,1,3.57-1.63,3.52,3.52,0,0,1,2.34.71,2.85,2.85,0,0,1,.92,2.24h-1.43A1.63,1.63,0,0,0,180.7,24Z" style="fill: #fff;stroke: #fff;stroke-miterlimit: 10;stroke-width: 0.5px"/>
        <path d="M185.4,28.06a2.11,2.11,0,0,0,.18.89,1.89,1.89,0,0,0,.51.66,2.3,2.3,0,0,0,.72.4,2.4,2.4,0,0,0,.84.15,2.75,2.75,0,0,0,1.58-.43,2.56,2.56,0,0,0,.92-1.24h1.43a3.64,3.64,0,0,1-.54,1.27,3.22,3.22,0,0,1-.89.91,3.74,3.74,0,0,1-1.16.54,4.52,4.52,0,0,1-1.34.19,4.27,4.27,0,0,1-1.79-.33,3.19,3.19,0,0,1-1.13-.84,3,3,0,0,1-.59-1.12,4.62,4.62,0,0,1-.17-1.19,6.9,6.9,0,0,1,.36-2.28,5.71,5.71,0,0,1,1-1.77,4.35,4.35,0,0,1,1.43-1.14,3.76,3.76,0,0,1,1.7-.4,3.54,3.54,0,0,1,2.8,1,4.18,4.18,0,0,1,.88,2.84,4.26,4.26,0,0,1-.05.64c0,.2-.06.37-.08.49h-6.54A6.33,6.33,0,0,0,185.4,28.06Zm5.23-2.92a2.07,2.07,0,0,0-.33-.79,1.84,1.84,0,0,0-.65-.55,2.13,2.13,0,0,0-1-.21,3,3,0,0,0-1.12.19,2.59,2.59,0,0,0-.86.53,3,3,0,0,0-.63.78,5,5,0,0,0-.4.95h5A3.41,3.41,0,0,0,190.63,25.14Z" style="fill: #fff;stroke: #fff;stroke-miterlimit: 10;stroke-width: 0.5px"/>
        <path d="M209.19,19.22l-.29,1.34h-6.3l-.79,3.82h5.55l-.29,1.34h-5.54l-1.14,5.49h-1.6l2.5-12Z" style="fill: #fff;stroke: #fff;stroke-miterlimit: 10;stroke-width: 0.5px"/>
        <path d="M209.52,25.74a5.29,5.29,0,0,1,.95-1.75A4.77,4.77,0,0,1,212,22.78a4.5,4.5,0,0,1,2-.45,3.65,3.65,0,0,1,2.69.91,3.61,3.61,0,0,1,.93,2.68,6.71,6.71,0,0,1-.32,2,5.61,5.61,0,0,1-.94,1.76A4.76,4.76,0,0,1,214.88,31a4.43,4.43,0,0,1-2,.45,4.18,4.18,0,0,1-1.54-.27,3.19,3.19,0,0,1-1.87-1.89,4,4,0,0,1-.25-1.45A6.43,6.43,0,0,1,209.52,25.74Zm1.7,3.76a2.29,2.29,0,0,0,1.78.66,2.42,2.42,0,0,0,1.39-.41,3.88,3.88,0,0,0,1-1A5,5,0,0,0,216,27.4a4.9,4.9,0,0,0,.21-1.36,3.32,3.32,0,0,0-.14-1,2.1,2.1,0,0,0-.42-.78,2.08,2.08,0,0,0-.71-.52,2.48,2.48,0,0,0-1-.19,2.56,2.56,0,0,0-1.44.4,3.61,3.61,0,0,0-1,1,4.52,4.52,0,0,0-.63,1.35,5.13,5.13,0,0,0-.21,1.41A2.46,2.46,0,0,0,211.22,29.5Z" style="fill: #fff;stroke: #fff;stroke-miterlimit: 10;stroke-width: 0.5px"/>
        <path d="M222.21,22.53l-.42,1.86h0a5,5,0,0,1,1.29-1.48,3,3,0,0,1,1.87-.58l.25,0a.54.54,0,0,1,.25,0l-.33,1.53a.65.65,0,0,0-.22,0h-.64a2,2,0,0,0-.42.07,2.87,2.87,0,0,0-1.05.52,4,4,0,0,0-.8.89,3.47,3.47,0,0,0-.45,1q-.16.55-.27,1.05l-.82,3.84h-1.41l1.79-8.68Z" style="fill: #fff;stroke: #fff;stroke-miterlimit: 10;stroke-width: 0.5px"/>
        <path d="M121,36l2.16,12h-1.64l-.56-3.61h-5L113.76,48H112l7.21-12Zm-.24,7-.89-5.63h0l-3.21,5.63Z" style="fill: #fff;stroke: #fff;stroke-miterlimit: 10;stroke-width: 0.5px"/>
        <path d="M130.62,48l.3-1.24h0a3.36,3.36,0,0,1-1.31,1.13,3.88,3.88,0,0,1-1.56.3,3.92,3.92,0,0,1-1.46-.26,3.3,3.3,0,0,1-1.08-.72,2.9,2.9,0,0,1-.65-1.12,4.46,4.46,0,0,1-.22-1.45,6.17,6.17,0,0,1,.33-2,5.78,5.78,0,0,1,.94-1.77,4.82,4.82,0,0,1,1.51-1.29,4.16,4.16,0,0,1,2-.49,4.73,4.73,0,0,1,.83.07,3.47,3.47,0,0,1,.79.25,2.31,2.31,0,0,1,.67.47,1.79,1.79,0,0,1,.42.74h0l.93-4.64h1.41L132,48Zm-4.06-1.68a2.1,2.1,0,0,0,1.7.63,2.59,2.59,0,0,0,1.45-.42,4,4,0,0,0,1.07-1.06,5.33,5.33,0,0,0,.65-1.41,5.06,5.06,0,0,0,.23-1.43,2.36,2.36,0,0,0-.57-1.62,2,2,0,0,0-1.62-.63,2.78,2.78,0,0,0-1.49.39,3.62,3.62,0,0,0-1.08,1,4.43,4.43,0,0,0-.65,1.37,5.21,5.21,0,0,0-.22,1.48A2.51,2.51,0,0,0,126.56,46.33Z" style="fill: #fff;stroke: #fff;stroke-miterlimit: 10;stroke-width: 0.5px"/>
        <path d="M136.43,48l-1.25-8.68h1.52l.74,7.22h0l3.76-7.22h1.55L138,48Z" style="fill: #fff;stroke: #fff;stroke-miterlimit: 10;stroke-width: 0.5px"/>
        <path d="M144.1,40.7a3.07,3.07,0,0,1,.84-.88,3.44,3.44,0,0,1,1.15-.52,4.83,4.83,0,0,1,1.32-.17,6.66,6.66,0,0,1,1.21.1,3,3,0,0,1,1,.35,1.9,1.9,0,0,1,.7.68,2.11,2.11,0,0,1,.26,1.08,3.85,3.85,0,0,1-.09.8q-.09.44-.18.78l-.55,2.37c0,.18-.08.38-.15.61a2.41,2.41,0,0,0-.09.64.59.59,0,0,0,.12.42.44.44,0,0,0,.3.11.7.7,0,0,0,.23,0l.22-.07-.21,1a2.79,2.79,0,0,1-.43.13,2.07,2.07,0,0,1-.45.06,1.18,1.18,0,0,1-.89-.32,1,1,0,0,1-.23-.89l0,0a2.94,2.94,0,0,1-1.12.92,4.23,4.23,0,0,1-1.78.32,3.85,3.85,0,0,1-1-.13,2,2,0,0,1-1.39-1.17,2.76,2.76,0,0,1-.21-1.14,2.42,2.42,0,0,1,.41-1.49,2.73,2.73,0,0,1,1-.82,5.62,5.62,0,0,1,1.41-.38c.52-.06,1-.12,1.5-.16l1-.11a2.2,2.2,0,0,0,.68-.2.87.87,0,0,0,.4-.38,1.64,1.64,0,0,0,.12-.69A.84.84,0,0,0,149,41a1.19,1.19,0,0,0-.42-.35,1.84,1.84,0,0,0-.56-.17,3.1,3.1,0,0,0-.6,0,4.23,4.23,0,0,0-.79.08,2.4,2.4,0,0,0-.72.28,1.94,1.94,0,0,0-.54.49,1.56,1.56,0,0,0-.28.71h-1.43A3.06,3.06,0,0,1,144.1,40.7Zm.4,5.95a2,2,0,0,0,1.08.31A2.69,2.69,0,0,0,148,45.81a2.91,2.91,0,0,0,.48-1.06c.08-.38.18-.77.28-1.17h0a2,2,0,0,1-.76.31,9.44,9.44,0,0,1-1,.14l-1.05.13a4.17,4.17,0,0,0-.94.24,1.65,1.65,0,0,0-.69.48,1.35,1.35,0,0,0-.29.87A1,1,0,0,0,144.5,46.65Z" style="fill: #fff;stroke: #fff;stroke-miterlimit: 10;stroke-width: 0.5px"/>
        <path d="M154.81,39.33l-.27,1.31h0a3.41,3.41,0,0,1,1.36-1.14,4.14,4.14,0,0,1,1.73-.37,2.72,2.72,0,0,1,1.83.53,2.22,2.22,0,0,1,.59,1.7,5.86,5.86,0,0,1-.06.74c-.05.3-.11.62-.19,1L158.77,48h-1.43l1.11-5.07c0-.09,0-.19.05-.31s.05-.24.07-.37l.06-.37a1.68,1.68,0,0,0,0-.29,1,1,0,0,0-.43-.92,1.85,1.85,0,0,0-1.08-.29,2.64,2.64,0,0,0-1.17.28,3.41,3.41,0,0,0-1,.72,2.32,2.32,0,0,0-.6.82,5.66,5.66,0,0,0-.36,1L153,48h-1.42l1.82-8.68Z" style="fill: #fff;stroke: #fff;stroke-miterlimit: 10;stroke-width: 0.5px"/>
        <path d="M167.73,40.83a2,2,0,0,0-1.35-.44,2.77,2.77,0,0,0-1.45.37,3.44,3.44,0,0,0-1.06,1,4.78,4.78,0,0,0-.65,1.32,5.23,5.23,0,0,0-.21,1.44,4.34,4.34,0,0,0,.1,1,2.3,2.3,0,0,0,.37.79,1.74,1.74,0,0,0,.66.53,2.2,2.2,0,0,0,1,.21,2.63,2.63,0,0,0,1.58-.49,2.85,2.85,0,0,0,.95-1.3h1.43a4,4,0,0,1-1.41,2.26,4.13,4.13,0,0,1-2.55.77,3.47,3.47,0,0,1-2.68-1,3.89,3.89,0,0,1-.9-2.75,6.34,6.34,0,0,1,.31-2,5.23,5.23,0,0,1,.92-1.71,4.78,4.78,0,0,1,1.51-1.19,4.69,4.69,0,0,1,2.06-.44,3.56,3.56,0,0,1,2.35.71,2.88,2.88,0,0,1,.91,2.24h-1.43A1.63,1.63,0,0,0,167.73,40.83Z" style="fill: #fff;stroke: #fff;stroke-miterlimit: 10;stroke-width: 0.5px"/>
        <path d="M173.61,39.33,171.79,48h-1.41l1.8-8.68Zm-1.11-1.56.37-1.75h1.44l-.37,1.75Z" style="fill: #fff;stroke: #fff;stroke-miterlimit: 10;stroke-width: 0.5px"/>
        <path d="M177.5,39.33l-.26,1.31h0a3.41,3.41,0,0,1,1.36-1.14,4.11,4.11,0,0,1,1.73-.37,2.69,2.69,0,0,1,1.82.53,2.18,2.18,0,0,1,.6,1.7,4.62,4.62,0,0,1-.07.74q-.06.45-.18,1L181.47,48H180l1.11-5.07c0-.09,0-.19,0-.31s0-.24.07-.37l.06-.37c0-.12,0-.22,0-.29a1,1,0,0,0-.44-.92,1.84,1.84,0,0,0-1.07-.29,2.64,2.64,0,0,0-1.17.28,3.28,3.28,0,0,0-1,.72,2.48,2.48,0,0,0-.61.82,6.56,6.56,0,0,0-.35,1l-1,4.8h-1.41l1.82-8.68Z" style="fill: #fff;stroke: #fff;stroke-miterlimit: 10;stroke-width: 0.5px"/>
        <path d="M191.31,48a10.38,10.38,0,0,1-.35,1.07A3.64,3.64,0,0,1,189.41,51a4.84,4.84,0,0,1-2.4.55,5.4,5.4,0,0,1-1.28-.15,3.25,3.25,0,0,1-1.09-.47,2.53,2.53,0,0,1-.76-.83,2.49,2.49,0,0,1-.31-1.23H185a1.36,1.36,0,0,0,.23.71,1.44,1.44,0,0,0,.48.44,2.36,2.36,0,0,0,.68.22,5.24,5.24,0,0,0,.79,0,2.77,2.77,0,0,0,1.36-.3,2.51,2.51,0,0,0,.86-.79,3.8,3.8,0,0,0,.53-1.11c.13-.42.25-.85.36-1.27l0,0a2.71,2.71,0,0,1-1.18,1,3.87,3.87,0,0,1-1.53.3,3.53,3.53,0,0,1-1.42-.26,2.6,2.6,0,0,1-1-.74,3.17,3.17,0,0,1-.62-1.13,4.73,4.73,0,0,1-.21-1.44,6.13,6.13,0,0,1,.32-1.92,5.51,5.51,0,0,1,.89-1.72,4.35,4.35,0,0,1,1.42-1.24,3.71,3.71,0,0,1,1.89-.48,3.61,3.61,0,0,1,.94.12,3.35,3.35,0,0,1,.82.36,2.42,2.42,0,0,1,.64.55,2,2,0,0,1,.36.73v0h0l.27-1.59h1.34l-1.56,7.42C191.53,47.2,191.43,47.63,191.31,48Zm-5.47-2.66a2.38,2.38,0,0,0,.39.74,1.92,1.92,0,0,0,.67.51,2.1,2.1,0,0,0,.94.19,2.45,2.45,0,0,0,1.4-.4,3.33,3.33,0,0,0,1-1A4.79,4.79,0,0,0,190.8,44a5.39,5.39,0,0,0,.19-1.39,2.4,2.4,0,0,0-.54-1.64,2.1,2.1,0,0,0-1.67-.62,2.17,2.17,0,0,0-1.33.42,3.78,3.78,0,0,0-1,1,5.14,5.14,0,0,0-.59,1.33,5,5,0,0,0-.2,1.32A2.91,2.91,0,0,0,185.84,45.38Z" style="fill: #fff;stroke: #fff;stroke-miterlimit: 10;stroke-width: 0.5px"/>
        <path d="M203.49,36l1.6,10.31h0L211.05,36h2.22l-2.54,12H209.2l2.46-10.5h0L205.51,48H204l-1.56-10.5h0L200.28,48h-1.53l2.53-12Z" style="fill: #fff;stroke: #fff;stroke-miterlimit: 10;stroke-width: 0.5px"/>
        <path d="M214.07,42.54a5.31,5.31,0,0,1,1-1.75,4.77,4.77,0,0,1,1.53-1.21,4.44,4.44,0,0,1,2-.45,3.23,3.23,0,0,1,3.61,3.59,6.71,6.71,0,0,1-.32,2.05,5.42,5.42,0,0,1-.94,1.76,4.84,4.84,0,0,1-1.51,1.22,4.47,4.47,0,0,1-2,.45,4.09,4.09,0,0,1-1.53-.27,3.19,3.19,0,0,1-1.15-.75A3.23,3.23,0,0,1,214,46a4,4,0,0,1-.25-1.45A6.43,6.43,0,0,1,214.07,42.54Zm1.7,3.76a2.32,2.32,0,0,0,1.79.66,2.41,2.41,0,0,0,1.38-.41,3.88,3.88,0,0,0,1-1,5,5,0,0,0,.62-1.34,4.9,4.9,0,0,0,.21-1.36,3.32,3.32,0,0,0-.13-1,2.1,2.1,0,0,0-.42-.78,2,2,0,0,0-.72-.52,2.4,2.4,0,0,0-1-.19,2.61,2.61,0,0,0-1.45.4,3.74,3.74,0,0,0-1,1,4.52,4.52,0,0,0-.63,1.35,5.13,5.13,0,0,0-.21,1.41A2.46,2.46,0,0,0,215.77,46.3Z" style="fill: #fff;stroke: #fff;stroke-miterlimit: 10;stroke-width: 0.5px"/>
        <path d="M227.18,36l-.92,4.38,0,0a3.31,3.31,0,0,1,1.17-1,3.22,3.22,0,0,1,1.48-.34,3.9,3.9,0,0,1,1.52.27,2.84,2.84,0,0,1,1,.77,3.14,3.14,0,0,1,.63,1.17,5.23,5.23,0,0,1,.22,1.53,6.62,6.62,0,0,1-.31,2,5.25,5.25,0,0,1-.89,1.69,4.61,4.61,0,0,1-1.43,1.2,4.14,4.14,0,0,1-2,.45,3.54,3.54,0,0,1-1.11-.16,3.41,3.41,0,0,1-.88-.41,2.63,2.63,0,0,1-.62-.57,1.47,1.47,0,0,1-.31-.66h0L224.49,48h-1.26l2.52-12Zm3.62,5.88a2.4,2.4,0,0,0-.37-.79,1.73,1.73,0,0,0-.61-.53,1.87,1.87,0,0,0-.88-.19,3,3,0,0,0-1.61.42,3.69,3.69,0,0,0-1.1,1.09,5.11,5.11,0,0,0-.63,1.43,6,6,0,0,0-.2,1.46,2,2,0,0,0,.65,1.59,2.54,2.54,0,0,0,1.72.58,2.35,2.35,0,0,0,1.36-.41,3.66,3.66,0,0,0,1-1,4.68,4.68,0,0,0,.61-1.32,5.2,5.2,0,0,0,.2-1.35A3.79,3.79,0,0,0,230.8,41.9Z" style="fill: #fff;stroke: #fff;stroke-miterlimit: 10;stroke-width: 0.5px"/>
        <path d="M236.62,39.33,234.81,48H233.4l1.79-8.68Zm-1.11-1.56.37-1.75h1.45L237,37.77Z" style="fill: #fff;stroke: #fff;stroke-miterlimit: 10;stroke-width: 0.5px"/>
        <path d="M241.26,36l-2.52,12h-1.41l2.5-12Z" style="fill: #fff;stroke: #fff;stroke-miterlimit: 10;stroke-width: 0.5px"/>
        <path d="M244.48,39.33,242.67,48h-1.41l1.8-8.68Zm-1.1-1.56.36-1.75h1.45l-.37,1.75Z" style="fill: #fff;stroke: #fff;stroke-miterlimit: 10;stroke-width: 0.5px"/>
        <path d="M250.7,39.33l-.27,1.26H248.7l-1.07,5.11c0,.1,0,.19,0,.28a2.64,2.64,0,0,0,0,.29.47.47,0,0,0,.27.46,1.38,1.38,0,0,0,.59.12,1.87,1.87,0,0,0,.42,0,2.62,2.62,0,0,0,.4-.11L249,48a4.26,4.26,0,0,1-.5.06,4.36,4.36,0,0,1-.51,0,4.47,4.47,0,0,1-.75-.06,1.58,1.58,0,0,1-.61-.22,1.15,1.15,0,0,1-.42-.43,1.31,1.31,0,0,1-.16-.69,2,2,0,0,1,0-.35c0-.11,0-.23.06-.37l1.14-5.39h-1.46l.27-1.26h1.46l.54-2.57h1.43L249,39.33Z" style="fill: #fff;stroke: #fff;stroke-miterlimit: 10;stroke-width: 0.5px"/>
        <path d="M253,50.27a3.8,3.8,0,0,1-.59.66,2.62,2.62,0,0,1-.72.44,2.69,2.69,0,0,1-.94.15,3.15,3.15,0,0,1-.52-.05,2.34,2.34,0,0,1-.47-.16l.25-1.16a2.53,2.53,0,0,0,.4.17,1.69,1.69,0,0,0,.41.06,1.16,1.16,0,0,0,.79-.26,2.76,2.76,0,0,0,.55-.68L253,48l-1.52-8.68H253l1,6.9h0l3.64-6.9h1.56l-5.74,10.15C253.31,49.75,253.13,50,253,50.27Z" style="fill: #fff;stroke: #fff;stroke-miterlimit: 10;stroke-width: 0.5px"/>
      </g>
      <text transform="translate(258.15 48.57) scale(0.58)" style="font-size: 11px;fill: #fff;stroke: #fff;stroke-miterlimit: 10;stroke-width: 0.5px;font-family: HelveticaNeue-LightItalic, Helvetica Neue;font-weight: 300;font-style: italic;letter-spacing: 0.01195386803145099em">®</text>
    </g>
  </g>
</svg>
