<svg xmlns="http://www.w3.org/2000/svg" viewBox="0 0 175.75 89.74">
  <title>logo_92-02</title>
  <g id="Layer_2" data-name="Layer 2">
    <g id="Layer_1-2" data-name="Layer 1">
      <g>
        <polygon points="5.69 75.88 3.02 75.88 0 89.38 2.84 89.38 5.69 75.88 5.69 75.88" style="fill: #fff;fill-rule: evenodd"/>
        <polygon points="8.71 75.88 5.86 89.38 8.53 89.38 10.66 79.97 14.04 89.38 16.7 89.38 19.73 75.88 16.88 75.88 14.93 85.12 11.55 75.88 8.71 75.88 8.71 75.88" style="fill: #fff;fill-rule: evenodd"/>
        <polygon points="21.68 75.88 21.15 78.19 25.23 78.19 22.75 89.38 25.41 89.38 27.9 78.19 31.81 78.19 32.34 75.88 21.68 75.88 21.68 75.88" style="fill: #fff;fill-rule: evenodd"/>
        <polygon points="34.65 75.88 31.63 89.38 41.58 89.38 42.12 87.07 34.83 87.07 35.72 83.7 42.12 83.7 42.65 81.39 36.07 81.39 36.78 78.19 43.72 78.19 44.25 75.88 34.65 75.88 34.65 75.88" style="fill: #fff;fill-rule: evenodd"/>
        <path d="M44.43,89.38h2.84l1.06-5.33h3.2c1.07,0,1.6.54,1.43,1.43a17.2,17.2,0,0,0-.54,2.66,1.49,1.49,0,0,0,0,1.24h3l.18-.53c-.35-.18-.53-.35-.35-1.06a23.08,23.08,0,0,0,.53-3A1.55,1.55,0,0,0,54.73,83,5.33,5.33,0,0,0,57,80.85,4.24,4.24,0,0,0,57.4,78c0-1.42-1.25-2-2.49-2.13H47.45l-3,13.5Zm5.15-11.19h3.73c1.24,0,1.6.71,1.42,1.6a2.4,2.4,0,0,1-2.13,1.95H48.87l.71-3.55Z" style="fill: #fff;fill-rule: evenodd"/>
        <polygon points="60.95 75.88 58.11 89.38 60.77 89.38 62.91 79.97 66.28 89.38 68.95 89.38 71.97 75.88 69.13 75.88 67.17 85.12 63.8 75.88 60.95 75.88 60.95 75.88" style="fill: #fff;fill-rule: evenodd"/>
        <path d="M81.92,75.88h-3.2l-7.64,13.5h2.84l1.43-2.66h5l.36,2.66h2.84l-1.6-13.5Zm-2.31,3.38.53,5.15H76.77l2.84-5.15Z" style="fill: #fff;fill-rule: evenodd"/>
        <polygon points="84.94 75.88 84.41 78.19 88.5 78.19 86.01 89.38 88.85 89.38 91.16 78.19 95.07 78.19 95.6 75.88 84.94 75.88 84.94 75.88" style="fill: #fff;fill-rule: evenodd"/>
        <polygon points="100.4 75.88 97.56 75.88 94.72 89.38 97.38 89.38 100.4 75.88 100.4 75.88" style="fill: #fff;fill-rule: evenodd"/>
        <path d="M114.26,82.81a6.51,6.51,0,0,0-.71-5.33,4.9,4.9,0,0,0-4.09-1.78,7.42,7.42,0,0,0-5,1.78,10.77,10.77,0,0,0-3.2,5.33,7.43,7.43,0,0,0,.89,5.33,5.09,5.09,0,0,0,4.09,1.6,7.41,7.41,0,0,0,4.79-1.6,9.23,9.23,0,0,0,3.2-5.33Zm-7.46,4.62a3.38,3.38,0,0,1-2.31-.89c-.71-.89-.71-2.31-.53-3.73a6.68,6.68,0,0,1,2.31-3.73,3.73,3.73,0,0,1,2.66-.89,2.39,2.39,0,0,1,2.13.89c.72.71.89,2.31.54,3.73a7.17,7.17,0,0,1-2.14,3.73,5.27,5.27,0,0,1-2.66.89Z" style="fill: #fff;fill-rule: evenodd"/>
        <polygon points="118.17 75.88 115.33 89.38 118 89.38 120.13 79.97 123.5 89.38 126.17 89.38 129.19 75.88 126.35 75.88 124.39 85.12 121.02 75.88 118.17 75.88 118.17 75.88" style="fill: #fff;fill-rule: evenodd"/>
        <path d="M139.14,75.88h-3.2l-7.64,13.5h2.84l1.43-2.66h5l.36,2.66h2.84l-1.6-13.5Zm-2.31,3.38.71,5.15H134l2.84-5.15Z" style="fill: #fff;fill-rule: evenodd"/>
        <polygon points="146.07 75.88 143.05 89.38 152.29 89.38 152.82 87.07 146.43 87.07 148.91 75.88 146.07 75.88 146.07 75.88" style="fill: #fff;fill-rule: evenodd"/>
        <path d="M56.51,32.16c-6-5.33-13.68-7.1-14.39-7.46l-2.85-1.07A3.27,3.27,0,0,1,37,19.55c.54-2.31,2.31-4.09,5.51-4.09,5.86,0,8.35,5.15,8,9.77H68.24C70,13.86,61.66,0,43.18,0,27.72,0,16.7,5,14.93,19.73a15.71,15.71,0,0,0,4.26,12.43Z" style="fill: #fff;fill-rule: evenodd"/>
        <path d="M60.6,36.78c2.31,3.38,3.55,8,3,13.87C62.37,63.26,50.29,71.26,34.3,71.26c-22.75,0-27.19-16.35-26.13-25.77H28.79c-.36,5,4.09,6.4,7.11,6.4,2.31.18,6.75-1.42,6.22-5.15-.18-1.6-1.78-3-5.69-4.8l-1.78-.71a72,72,0,0,1-9.77-4.45Z" style="fill: #fff;fill-rule: evenodd"/>
        <polygon points="164.02 32.16 165.44 25.41 138.79 25.41 140.74 18.13 167.22 18.13 170.59 2.13 125.28 2.13 118.53 32.16 164.02 32.16 164.02 32.16" style="fill: #fff;fill-rule: evenodd"/>
        <polygon points="162.95 36.78 161.71 41.94 135.05 41.94 133.28 50.47 160.29 50.47 156.2 69.3 110.35 69.3 117.46 36.78 162.95 36.78 162.95 36.78" style="fill: #fff;fill-rule: evenodd"/>
        <polygon points="93.47 32.16 90.09 2.31 105.73 2.31 111.42 32.16 93.47 32.16 93.47 32.16" style="fill: #fff;fill-rule: evenodd"/>
        <polygon points="112.31 36.78 118.7 69.3 98.09 69.3 94 36.78 112.31 36.78 112.31 36.78" style="fill: #fff;fill-rule: evenodd"/>
        <polygon points="107.16 41.23 104.13 55.8 70.9 55.8 73.75 41.23 107.16 41.23 107.16 41.23" style="fill: #fff;fill-rule: evenodd"/>
        <polygon points="70.55 32.16 85.47 2.31 103.07 2.31 89.56 32.16 70.55 32.16 70.55 32.16" style="fill: #fff;fill-rule: evenodd"/>
        <polygon points="87.43 36.78 72.33 69.3 51.71 69.3 68.24 36.78 87.43 36.78 87.43 36.78" style="fill: #fff;fill-rule: evenodd"/>
        <path d="M169.53,79.08a6.31,6.31,0,1,0-6.22-6.4,6.34,6.34,0,0,0,6.22,6.4Zm0-.71A5.58,5.58,0,0,1,164,72.68a5.51,5.51,0,0,1,11,0,5.58,5.58,0,0,1-5.51,5.69ZM170.59,73c1.25,0,2.14-.54,2.14-2,0-.53-.18-1.24-.71-1.42a2.91,2.91,0,0,0-1.78-.36h-3v6.93h.89V73h1.6l1.95,3.19h1.07L170.59,73Zm-2.48-.71V69.84h1.95c.89,0,2,.17,2,1.24,0,1.42-1.6,1.25-2.67,1.25Z" style="fill: #fff;fill-rule: evenodd"/>
      </g>
    </g>
  </g>
</svg>
