<svg xmlns="http://www.w3.org/2000/svg" viewBox="0 0 152.76 146.99">
  <title>sae_original</title>
  <g id="Layer_2" data-name="Layer 2">
    <g id="Layer_1-2" data-name="Layer 1">
      <path d="M76.92,1.4c1.28-.51,32,20.72,55.61,61.14,6.41,11,12.9,32.72,16.29,46,3.22,12.62,2.48,18.62,2.48,18.62a1.11,1.11,0,0,1-.44.6,47.65,47.65,0,0,1-5.36,2.83,153,153,0,0,1-68.9,15h-.43a153.06,153.06,0,0,1-68.91-15,47.14,47.14,0,0,1-5.35-2.83,1,1,0,0,1-.44-.6s-.75-6,2.48-18.62c3.39-13.26,9.87-35,16.28-46C43.87,22.12,74.46,1.15,75.84,1.4Z" style="fill: #231f20;stroke: #231f20;stroke-miterlimit: 10;stroke-width: 2.78329449091132px"/>
      <g>
        <path d="M60,127a16.53,16.53,0,0,0-1.56-1.57,3.62,3.62,0,0,1-.68-1.24,18.33,18.33,0,0,1-1-7.06c.25-2.55.46-5.12.53-7.69.09-3.39.07-6.79,0-10.18a31.89,31.89,0,0,0-.53-4.35c-.42-2.67-1-5.32-1.32-8A31,31,0,0,0,53,77.45c-.8-1.76-1.85-2.08-3.67-.76-1,.75-1.92,1.71-2.89,2.55-1.52,1.33-3.17,2.53-4.56,4-2,2.06-3.55,4.25-5.66,6.4s-3.53,4.68-5.34,7-3.07,4.68-4.64,7c-1.16,1.7-2.5,3.28-3.63,5s-2.44,3.54-4.95,3.69c-.52,0-1.08.68-1.44,1.18-.12.16.19.94.48,1.08,2.79,1.36,5.59,2.72,8.46,3.9.49.2,1.33-.48,2-.75a5.11,5.11,0,0,0-.76-1.74,3.26,3.26,0,0,1-1.05-3.45,26.9,26.9,0,0,1,4.51-8.34c.85-1.2,1.75-1,2.94-.52a55.55,55.55,0,0,0,5.51,2c2.12.68,4.27,1.25,6.41,1.88a23,23,0,0,1,2.94,1,3.93,3.93,0,0,1,1.92,1.31c1.49,2.85,1.31,6,.65,8.95a5.22,5.22,0,0,1-5.06,4.14C46.94,125.79,54.82,128.08,60,127Z" style="fill: #fff"/>
        <path d="M53.56,99.14c-.12,1.16-.27,2.65-.42,4.13a1.57,1.57,0,0,1-2.22,1.47c-3.67-1.16-7.35-2.32-11-3.43-1.63-.49-2.82-2.73-2-4.17A46.24,46.24,0,0,1,41.09,93c1.76-2.25,3.5-4.51,5.3-6.73a16,16,0,0,1,2.38-2.41c1.35-1.09,2.27-.86,2.85.84a26.32,26.32,0,0,1,1.15,5.1C53.13,92.8,53.29,95.8,53.56,99.14Z"/>
      </g>
      <path d="M125.41,80c.21-.41.69-1,.66-1.41A16.7,16.7,0,0,0,123.34,70c-.75-1.11-1.4-1.41-2.27-.59-1.78,1.67-4,1.6-6.18,1.93-1.88.28-4,.46-5.51,1.42a27.32,27.32,0,0,0-9.38,9,26.57,26.57,0,0,0-3.94,9.82,29.21,29.21,0,0,0,.76,11c.56,2.55,1.78,4.84,2.68,7.25,1.36,3.64,4.09,5.94,6.74,8.27a16.53,16.53,0,0,0,8.33,3.52,10.57,10.57,0,0,0,6.88-.62,32.77,32.77,0,0,0,4.63-1.2,36.31,36.31,0,0,0,3.88-2.27,12,12,0,0,1,5.42-1.32,1.54,1.54,0,0,0,1.63-1.84,16.86,16.86,0,0,0-2.37-7.34,1.33,1.33,0,0,0-1-.66c-.32.05-.71.55-.81.92-.38,1.41-.52,2.89-1,4.26-1.42,4.21-4.83,6-8.88,6.48s-8-.14-11-3.68c-1.41-1.68-3.43-2.78-4.13-5.12a23.43,23.43,0,0,0-2.19-4.21,3.16,3.16,0,0,1,1.94-4.42c1.27-.24,2.58-.38,3.82-.73,2.53-.72,5-1.79,7.54-2.26,3.28-.61,6.74-1.9,9.8.88a1.54,1.54,0,0,0,1.43,0,3.12,3.12,0,0,0,.48-2c-.25-1.36-.79-2.67-1.14-4-.39-1.52-.26-3.23-1.8-4.52-.36.47-.92.87-1,1.34-.22,1.71-1.81,2.32-2.63,3.53a1.46,1.46,0,0,1-.71.6c-2.88.8-5.61,2-8.71,2.11-2.8.13-5.56,1.14-8.33,1.82-1.35.33-3.1-.62-3.06-2,.13-4.34-.77-8.79,1-13a12.9,12.9,0,0,1,5-6.17A17.55,17.55,0,0,1,113,74.85c2.52-.86,5-.94,7.19.9C121.77,77.1,123.43,78.41,125.41,80Z" style="fill: #fff"/>
      <path d="M66.88,61.4A6.3,6.3,0,0,0,66,63.3c-.18,3.53-.35,7.07-.29,10.61,0,.78.84,1.65,1.49,2.26.24.22,1.07-.27,1.63-.28A10.48,10.48,0,0,1,72,76.1a9.88,9.88,0,0,1,1.07.66,8.6,8.6,0,0,0,3.08.53,38.74,38.74,0,0,0,7.69,0A15.23,15.23,0,0,0,90,74.91a12.76,12.76,0,0,0,5.84-7.16,18,18,0,0,0,.34-10.43,11.36,11.36,0,0,0-1.34-3.77,21.47,21.47,0,0,0-4.17-4.24A44.12,44.12,0,0,0,85,45.85c-2.16-1.19-4.28-2.67-6.61-3.25s-4-2.28-6-3.5a4.1,4.1,0,0,1-1.41-2,14.66,14.66,0,0,1-1-4.08c0-1.2.63-2,1.3-3a16.16,16.16,0,0,1,1.18-1.39L73,28a8.13,8.13,0,0,1,8.7-3.17c2.74.67,4.67,1.66,6,4.48,1,2.26,2.52,4.24,2.59,6.87a1.6,1.6,0,0,0,.95,1.07,1.3,1.3,0,0,0,1.19-.49c.64-2.12,2.33-3.92,1.45-6.51a46.37,46.37,0,0,1-1.36-6.69c-.17-1-.59-1-1.46-.72a6.67,6.67,0,0,1-3.14.61A47.61,47.61,0,0,1,83,21.9c-3.2-.92-6.68-1.37-9.41.53a30.9,30.9,0,0,0-7.3,7.44c-2.76,3.88-3,7.6-1,11.92a12,12,0,0,0,1,2.51c1,2.28,2.48,3,4.13,4,2.73,1.6,5.56,3,8.34,4.55.54.3,1.4.34,1.94.58A38.18,38.18,0,0,1,88,58.17a9.65,9.65,0,0,1,2.83,11.46c-1.44,3.28-4.14,4.75-7.3,5.51s-6.28.68-9-1.49a27.48,27.48,0,0,1-2.09-2.09,12.43,12.43,0,0,1-3.55-7C68.69,63.28,68.64,61.89,66.88,61.4Z" style="fill: #fff"/>
      <circle cx="53.68" cy="49.38" r="4.08" style="fill: #fff"/>
      <circle cx="106.33" cy="49.38" r="4.08" style="fill: #fff"/>
      <circle cx="81.67" cy="100.56" r="4.08" style="fill: #fff"/>
    </g>
  </g>
</svg>
